<svg xmlns="http://www.w3.org/2000/svg"><defs><font horiz-adv-x="1277"><font-face units-per-em="2048" ascent="1638" descent="-410"/><glyph unicode="ﬁ" horiz-adv-x="1175" d="M18 866v172h179v70q0 89 23.5 155t62.5 106.5 98.5 65 123 33.5 144.5 9q202 0 369-66l-51-158q-137 54-301 54-68 0-114-7.5t-85.5-28.5-58.5-63-19-106v-64h639v-1038h-194v866h-445v-866h-192v866h-179z"/><glyph unicode="ﬂ" horiz-adv-x="1185" d="M18 866v172h179v70q0 90 23 156t61 106.5 96.5 65 119.5 33 140 8.5q202 0 391-66v-1132q0-83 19-131t69-103l-164-90q-61 63-89.5 134t-28.5 181v1010q-95 27-199 27-58 0-98-7.5t-76-28.5-54-63-18-106v-64h324v-172h-324v-866h-192v866h-179z"/><glyph unicode="ﬃ" horiz-adv-x="1812" d="M18 866v172h179v70q0 75 15 134t44 98.5 66 67 85.5 42.5 97 21 107.5 6q189 0 357-68 108 68 317 68 202 0 369-66l-49-158q-141 54-303 54-68 0-113.5-7.5t-84.5-28.5-58-63-19-106v-64h637v-1038h-192v866h-445v-866h-194v866h-445v-866h-192v866h-179zm371 172h445v70q0 93 28 160-104 39-227 39-61 0-102.5-8t-76-29-51-62.5-16.5-105.5v-64z"/><glyph unicode="ﬄ" horiz-adv-x="1824" d="M18 866v172h179v70q0 75 15 134t44 98.5 66 67 85.5 42.5 97 21 107.5 6q190 0 355-68 103 68 307 68 202 0 391-66v-1132q0-76 19.5-128t70.5-106l-166-90q-61 63-88.5 134t-27.5 181v1010q-94 27-201 27-118 0-181-44t-63-161v-64h322v-172h-322v-866h-194v866h-445v-866h-192v866h-179zm371 172h445v70q0 98 30 162-119 37-229 37-137 0-191.5-49.5t-54.5-186.5v-33z"/><glyph horiz-adv-x="0"/><glyph horiz-adv-x="682"/><glyph horiz-adv-x="565"/><glyph horiz-adv-x="565"/><glyph horiz-adv-x="565"/><glyph unicode="!" horiz-adv-x="679" d="M207 129q0 76 28 99.5t105 23.5q80 0 107.5-23t27.5-100q0-83-27.5-108t-107.5-25q-77 0-105 25t-28 108zm4 1298h254l-55-997h-144z"/><glyph unicode=""" horiz-adv-x="690" d="M92 1427h193l-39-481h-131zm320 0h186l-39-481h-129z"/><glyph unicode="#" horiz-adv-x="1402" d="M55 393l13 156h270l24 362h-276l10 158h277l22 358h183l-21-358h309l23 358h184l-22-358h290l-10-158h-291l-24-362h297l-10-156h-295l-25-393h-184l24 393h-309l-27-393h-182l25 393h-275zm467 156h312l22 362h-311z"/><glyph unicode="$" horiz-adv-x="1275" d="M147 991q0 186 105 284t309 120v295h152v-287q229 0 381-47l-52-180q-45 21-140 34t-189 15v-422q216-29 318-122t102-265q0-187-105.5-282.5t-314.5-117.5v-297h-152v291q-240 0-391 49l51 179q58-20 158-34t182-14v445q-215 24-314.5 105.5t-99.5 250.5zm199 17q0-89 46-130.5t169-56.5v396q-106-14-160.5-64t-54.5-145zm367-809q108 14 162.5 63t54.5 146q0 92-46.5 139t-170.5 67v-415z"/><glyph unicode="%" horiz-adv-x="1865" d="M86 1014q0 133 20.5 220.5t65 137.5 106 70 152.5 20q92 0 154-20t107-70.5 65-137.5 20-220q0-177-38.5-279.5t-111.5-143-196-40.5q-121 0-194 40.5t-111.5 143-38.5 279.5zm174-2q0-185 37.5-251.5t132.5-66.5q98 0 134 65.5t36 252.5q0 130-16.5 195t-51 87.5-102.5 22.5q-66 0-100-22.5t-52-88.5-18-194zm152-1012l841 1427h193l-842-1427h-192zm678 434q0 106 14 183t40 128.5 69 82 95.5 43 125.5 12.5q92 0 154-20t106-70.5 64-138 20-220.5q0-177-38-279.5t-111-143-195-40.5q-121 0-194 40.5t-111.5 143-38.5 279.5zm174-2q0-183 37.5-250t132.5-67q97 0 133.5 66t36.5 251q0 129-17 195t-51.5 89-101.5 23q-49 0-79-11.5t-51.5-45-30.5-93.5-9-157z"/><glyph unicode="&" horiz-adv-x="1591" d="M115 375q0 164 91.5 265t285.5 110q-75 7-127.5 28.5t-81.5 49.5-45 74-20.5 87.5-4.5 102.5q0 186 108.5 278t362.5 92 363.5-85.5 109.5-268.5q0-57-8-102.5t-29.5-89-56-74-90.5-51.5-131-27q76-8 160.5-74t203.5-223q103 163 103 348h204q0-130-49.5-258.5t-138.5-239.5q59-78 213-317h-235q-58 99-117 182-135-115-252-163t-295-48q-139 0-234.5 19.5t-162 66-97 124.5-30.5 194zm223 28q0-145 64.5-202.5t236.5-57.5q150 0 242.5 40t199.5 145q-125 176-224.5 261t-201.5 85q-165 0-241-62.5t-76-208.5zm86 672q0-126 56.5-180.5t189.5-54.5q138 0 207 55t69 178q0 117-59.5 165t-202.5 48-201.5-47-58.5-164z"/><glyph unicode="'" horiz-adv-x="376" d="M92 1427h193l-39-481h-131z"/><glyph unicode="(" horiz-adv-x="571" d="M139 510q0 845 430 1049l93-150q-66-28-120-88.5t-99.5-163.5-71-268-25.5-379 25.5-379 71-268 99.5-163.5 120-88.5l-93-150q-430 204-430 1049z"/><glyph unicode=")" horiz-adv-x="571" d="M-90-389q52 22 96.5 63t85.5 113 70 169.5 46 239 17 314.5q0 213-25.5 378t-70.5 268.5-99 164-120 88.5l92 150q430-206 430-1049t-430-1049z"/><glyph unicode="*" horiz-adv-x="935" d="M61 1020v158h269l-135 235 139 78 133-234 133 234 141-80-137-233h270v-158h-270l135-234-139-77-133 229-133-229-139 79 133 232h-267z"/><glyph unicode="+" horiz-adv-x="1232" d="M121 645v182h401v404h185v-404h403v-182h-403v-401h-185v401h-401z"/><glyph unicode="," horiz-adv-x="552" d="M33-326l162 531h243l-229-531h-176z"/><glyph unicode="-" horiz-adv-x="593" d="M63 479v183h467v-183h-467z"/><glyph unicode="." horiz-adv-x="552" d="M143 129q0 77 27 100t104 23q81 0 108.5-23t27.5-100q0-84-27.5-108.5t-108.5-24.5q-77 0-104 25t-27 108z"/><glyph unicode="/" horiz-adv-x="915" d="M59 0l727 1427h215l-731-1427h-211z"/><glyph unicode="0" d="M117 733q0 172 21.5 297.5t61.5 208.5 105.5 132.5 145 70 188.5 20.5 188.5-20.5 144.5-70 105-132.5 61-208.5 21-297.5q0-218-31.5-366t-98-235-160.5-124-230-37q-108 0-188.5 23t-145 76.5-105 141-62 217-21.5 304.5zm211 0q0-141 10.5-238.5t32-164.5 59.5-104 86.5-52.5 120.5-15.5q74 0 124 15.5t88.5 52.5 59.5 104 31 164 10 239q0 122-6 207.5t-22.5 148-38.5 100-59.5 59-80 29-106.5 7.5q-74 0-121-11.5t-86-44-59.5-95-31.5-159-11-241.5z"/><glyph unicode="1" d="M213 1227l588 256v-1483h-207v1204l-320-145z"/><glyph unicode="2" d="M113 0v166q198 155 317.5 250.5t216 182.5 140.5 135.5 73.5 105 35 95.5 5.5 103q0 135-70.5 185.5t-242.5 50.5q-95 0-202.5-15.5t-162.5-39.5l-47 182q214 61 426 61 271 0 394.5-91.5t123.5-317.5q0-76-9.5-132.5t-39.5-120.5-78-122-132.5-135-195.5-162.5-274-202.5h723v-178h-1001z"/><glyph unicode="3" d="M115 27l43 174q151-45 383-45 149 0 228.5 26t109.5 78.5 30 149.5q0 145-71 202.5t-246 57.5h-182v174h180q159 0 228 52.5t69 174.5q0 78-28 121t-101.5 64.5-208.5 21.5q-95 0-201.5-13t-175.5-34l-45 178q257 53 448 53 197 0 314.5-39t167-115.5 49.5-201.5q0-73-12.5-127t-44.5-102.5-94-77.5-154-37q98-4 165.5-33.5t103.5-81.5 50.5-114 14.5-144q0-230-133.5-324t-434.5-94q-211 0-452 56z"/><glyph unicode="4" horiz-adv-x="1267" d="M55 391v60q116 214 293.5 496t327.5 480h299v-862h196v-174h-196v-391h-203v391h-717zm262 174h455v699q-112-140-242.5-344.5t-212.5-354.5z"/><glyph unicode="5" d="M145 27l45 174q145-45 361-45 110 0 178.5 12.5t109 44.5 55.5 78.5 15 122.5q0 110-26.5 167.5t-98 84-209.5 26.5q-204 0-362-33v768h846v-178h-647v-389q102 10 200 10 197 0 311-45.5t163-140 49-254.5q0-132-31-220t-100.5-141.5-171.5-75.5-254-22q-199 0-433 56z"/><glyph unicode="6" d="M121 723q0 175 25 301t72.5 211 127 135 178.5 71 236 21q189 0 381-57l-54-184q-132 51-327 51-85 0-144-9.5t-112.5-36.5-86-74-52.5-124-23-186q149 28 320 28 149 0 249-24.5t162-79 88.5-136 26.5-202.5q0-132-29-219t-94-140.5-161-75.5-240-22q-153 0-253 35t-167 122.5-95 230.5-28 364zm219-59q1-127 15-216.5t38.5-146.5 65.5-89 88.5-44 116.5-12q125 0 190.5 26.5t89 79 23.5 150.5q0 80-12.5 130.5t-46.5 85-91 49-149 15.5q-216 0-328-28z"/><glyph unicode="7" d="M162 1249v178h1052v-67q-153-247-337.5-648t-290.5-712h-238q126 343 290.5 696.5t297.5 552.5h-774z"/><glyph unicode="8" d="M117 389q0 83 14.5 144t50 113.5 103 82 166.5 33.5q-75 7-129.5 28t-86.5 51-51 74-25.5 88.5-6.5 102.5q0 186 109.5 271t377.5 85q182 0 290-40t153.5-116 45.5-200q0-58-6.5-102.5t-25.5-88.5-51-74-86.5-51-129.5-28q98-4 165-33.5t102.5-81.5 50-113.5 14.5-144.5q0-229-122.5-323.5t-399.5-94.5q-276 0-399 94.5t-123 323.5zm219 14q0-143 65.5-201.5t237.5-58.5 237.5 58.5 65.5 201.5q0 148-69.5 209.5t-233.5 61.5-233.5-61.5-69.5-209.5zm29 672q0-126 64.5-180.5t209.5-54.5q146 0 210 54.5t64 180.5q0 118-60.5 165.5t-213.5 47.5-213.5-47.5-60.5-165.5z"/><glyph unicode="9" d="M113 985q0 261 120.5 369t403.5 108q159 0 257-21.5t162-79 88.5-150.5 24.5-244q0-121-30.5-238t-78.5-212-120.5-192-142-170-158.5-155h-270q176 156 301 297t194 283q-126-17-225-17-296 0-411 92.5t-115 329.5zm219 14q0-82 12.5-129.5t50-78 97-40.5 161.5-10q149 0 275 21 22 76 22 178 0 77-7 132t-24.5 93-39.5 60.5-60.5 34.5-79 16-102.5 4q-93 0-153.5-16.5t-93.5-54-45.5-86.5-12.5-124z"/><glyph unicode=":" horiz-adv-x="552" d="M143 129q0 77 27 100t104 23q81 0 108.5-23t27.5-100q0-84-27.5-108.5t-108.5-24.5q-77 0-104 25t-27 108zm0 793q0 77 27 99.5t104 22.5q81 0 108.5-22.5t27.5-99.5q0-84-27.5-109t-108.5-25q-77 0-104 25.5t-27 108.5z"/><glyph unicode=";" horiz-adv-x="552" d="M33-326l162 531h243l-229-531h-176zm110 1248q0 77 27 99.5t104 22.5q81 0 108.5-22.5t27.5-99.5q0-84-27.5-109t-108.5-25q-77 0-104 25.5t-27 108.5z"/><glyph unicode="<" horiz-adv-x="1232" d="M201 686v98l747 588 107-133-602-502 602-506-105-135z"/><glyph unicode="=" horiz-adv-x="1232" d="M121 397v183h989v-183h-989zm0 486v182h989v-182h-989z"/><glyph unicode=">" horiz-adv-x="1232" d="M201 231l602 502-602 504 104 137 752-590v-98l-748-588z"/><glyph unicode="?" horiz-adv-x="980" d="M74 1411q61 21 165.5 36t180.5 15q261 0 376-100.5t115-300.5q0-176-81-320.5t-261-318.5h-215q173 170 249.5 318.5t76.5 320.5q0 109-58.5 160t-211.5 51q-178 0-287-45zm254-1282q0 77 27 100t104 23q81 0 109-23t28-100q0-83-28-108t-109-25q-77 0-104 25t-27 108z"/><glyph unicode="@" horiz-adv-x="1914" d="M121 543q0 176 31.5 305t89 213.5 150.5 135.5 204 72 260 21q97 0 165-7.5t130-29.5 101-60.5 69-101 42.5-151 12.5-209.5q0-116-9.5-199t-32.5-143.5-54-97-83.5-58-111.5-29-145-7.5q-119 0-195.5 15.5t-129 55-74 105.5-21.5 170q0 88 15.5 148.5t43 98.5 77.5 58.5 107 27.5 144 7q162 0 283-23-3 153-71.5 207.5t-248.5 54.5q-112 0-188.5-8.5t-142.5-32.5-106-64-68.5-105.5-40-154.5-11.5-214q0-122 12.5-209.5t44-154.5 78-108.5 121-67.5 166.5-36 221-10 222.5 12.5 168.5 42.5 123 77 80 121 45 169.5 13 226.5q0 285-45 412h190q43-139 43-418 0-157-21.5-278.5t-68-212-113-152-162.5-99.5-211-54.5-264-16.5q-150 0-264 14.5t-210 49.5-161.5 91.5-111.5 140.5-67 197.5-21 262.5zm598 8q0-117 48.5-157t186.5-40q136 0 186 53t50 207v103q-101 16-232 16-75 0-116-5.5t-71.5-25-41-54.5-10.5-97z"/><glyph unicode="A" horiz-adv-x="1382" d="M2 0q247 743 528 1427h338q273-834 527-1427h-234q-118 298-153 397h-662q-61-182-129-397h-215zm404 575h540q-99 272-227 680h-57q-125-312-256-680z"/><glyph unicode="B" horiz-adv-x="1433" d="M195 0v1427h727q83 0 145-17t99.5-46 60.5-73.5 31-92.5 8-111q0-59-5.5-100.5t-23-83.5-49-68.5-84.5-46-127-26.5q79-4 137-23.5t93.5-50.5 56.5-78 28.5-97 7.5-116q0-200-93.5-298.5t-268.5-98.5h-743zm206 176h506q170 0 170 240 0 120-44.5 188t-133.5 68h-498v-496zm0 666h490q156 0 156 209 0 102-34.5 151t-121.5 49h-490v-409z"/><glyph unicode="C" horiz-adv-x="1222" d="M119 727q0 175 26.5 301t76.5 210 132 133.5 184 70 242 20.5q96 0 209-15t195-38l-51-186q-59 22-152.5 35.5t-175.5 13.5q-91 0-151.5-7t-116.5-28-89-58-58.5-98.5-35.5-148-10-207.5 10.5-208 35-150 58.5-102 89-62 117-31 151-8q81 0 174.5 13t153.5 34l51-186q-82-24-194-39t-210-15q-174 0-293.5 36.5t-204.5 123-124 233-39 363.5z"/><glyph unicode="D" horiz-adv-x="1474" d="M195 0v1427h491q140 0 242.5-20.5t186-69.5 134.5-130 78-202 27-286-26.5-287-78-205-134-133.5-186.5-72-243-21.5h-491zm206 178h273q133 0 216 22.5t140 83.5 80 164.5 23 268.5q0 87-5.5 154.5t-18.5 122-31 93.5-47 68-62 47-80 28.5-97.5 14.5-117.5 4h-273v-1071z"/><glyph unicode="E" horiz-adv-x="1259" d="M195 0v1427h1005v-178h-799v-405h568v-176h-568v-490h799v-178h-1005z"/><glyph unicode="F" horiz-adv-x="1181" d="M195 0v1427h987v-178h-781v-477h568v-176h-568v-596h-206z"/><glyph unicode="G" horiz-adv-x="1411" d="M119 727q0 145 18.5 257t57.5 193 93.5 136 133 88 169.5 47 208 14q97 0 214.5-15t200.5-38l-51-184q-58 22-162.5 35.5t-189.5 13.5q-92 0-154-7t-118.5-28.5-90-58.5-59-99-35.5-148.5-10-207.5 10.5-208.5 35-151 58.5-103 88.5-62.5 117-31.5 151.5-8.5q120 0 235 26v441h-342v174h553v-776q-80-25-217-39.5t-254-14.5q-174 0-293.5 36.5t-204.5 123-124 233-39 363.5z"/><glyph unicode="H" horiz-adv-x="1484" d="M195 0v1427h206v-571h684v571h207v-1427h-207v666h-684v-666h-206z"/><glyph unicode="I" horiz-adv-x="593" d="M195 0v1427h206v-1427h-206z"/><glyph unicode="J" horiz-adv-x="923" d="M20 31l52 188q45-22 111.5-35.5t123.5-13.5q44 0 78.5 10t67 35 50 75 17.5 122v1015h211v-1034q0-100-23-176t-60.5-122-92.5-74.5-110.5-39-122.5-10.5q-153 0-302 60z"/><glyph unicode="K" horiz-adv-x="1308" d="M195 0v1427h206v-1427h-206zm208 754q85 54 256.5 236t360.5 437h262q-199-253-362-428t-234-227q75-46 254.5-251t388.5-521h-264q-218 327-400.5 526.5t-261.5 227.5z"/><glyph unicode="L" horiz-adv-x="1122" d="M195 0v1427h206v-1245h707v-182h-913z"/><glyph unicode="M" horiz-adv-x="1826" d="M195 0v1427h294q252-526 433-993 190 495 434 993h278v-1427h-204v1163q-210-456-443-1020h-160q-247 615-432 1020v-1163h-200z"/><glyph unicode="N" horiz-adv-x="1540" d="M195 0v1427h276q319-486 666-1118v1118h209v-1427h-254q-311 575-693 1178v-1178h-204z"/><glyph unicode="O" horiz-adv-x="1564" d="M119 723q0 174 26.5 300.5t77 211 133 135 184.5 71.5 242 21 242-21 185-71.5 133.5-135 77-211 26.5-300.5q0-176-26.5-304t-77-214.5-132.5-138-185-73.5-243-22q-139 0-241.5 22t-185 73.5-133 138-77 214.5-26.5 304zm225-4q0-118 8.5-202.5t30-148.5 53-103.5 83-64 113.5-33.5 150-9q89 0 151.5 9t114 33.5 83.5 64 54 103.5 31 148.5 9 202.5q0 122-8.5 208t-31 149.5-54 101.5-84 61-114 31-151.5 8-150.5-8-113-31-83-61-52.5-101.5-30.5-149.5-8.5-208z"/><glyph unicode="P" horiz-adv-x="1353" d="M193 0v1427h690q401 0 401-477 0-91-22-169.5t-67-143-123-102-181-37.5h-490v-498h-208zm208 676h443q104 0 157.5 72.5t53.5 203.5q0 145-52 222t-151 77h-451v-575z"/><glyph unicode="Q" horiz-adv-x="1605" d="M139 723q0 174 26.5 300.5t77 211 133.5 135 185 71.5 242 21 242-21 184.5-71.5 133-135 77-211 26.5-300.5q0-349-103-513.5t-327-203.5q148-28 430-399h-254q-116 171-227.5 263.5t-189.5 100.5q-137 1-238.5 23t-183 74-131.5 138.5-76.5 214.5-26.5 302zm223-4q0-118 9-202.5t31-148.5 53.5-103.5 83-64 114-33.5 150.5-9q89 0 151.5 9t114 33.5 83.5 64 53.5 103.5 30.5 148.5 9 202.5q0 122-8.5 208t-31 149.5-53.5 101.5-84 61-114 31-151 8-150.5-8-113.5-31-84-61-53.5-101.5-31-149.5-8.5-208z"/><glyph unicode="R" horiz-adv-x="1415" d="M195 0v1427h690q399 0 399-415 0-79-20-144.5t-63.5-120-122.5-86-187-32.5q74-26 193-180t296-449h-260q-332 582-485 582h-234v-582h-206zm206 758h443q101 0 155 62.5t54 176.5q0 124-52 189t-149 65h-451v-493z"/><glyph unicode="S" horiz-adv-x="1275" d="M115 1020q0 234 150 338t442 104q103 0 216-16.5t197-42.5l-49-182q-55 22-160 36.5t-204 14.5q-189 0-279-52t-90-182q0-66 27.5-106.5t102.5-68 208-38.5q254-23 369.5-122t115.5-297q0-231-150-333t-446-102q-107 0-224 17t-202 45l51 180q67-22 171.5-36.5t199.5-14.5q191 0 285 51.5t94 181.5q0 50-15 87.5t-52 69.5-106 53-171 30q-254 21-367.5 107t-113.5 278z"/><glyph unicode="T" horiz-adv-x="1204" d="M8 1249v178h1188v-178h-487v-1249h-211v1249h-490z"/><glyph unicode="U" horiz-adv-x="1515" d="M170 463v964h211v-944q0-97 21-160t69.5-99 115.5-50 171-14q102 0 169 13.5t116.5 49 71.5 99 22 161.5v944h209v-964q0-119-26-205.5t-72.5-141.5-122-87.5-162.5-45-205-12.5-204.5 12.5-162 45-122 87.5-73 141.5-26.5 205.5z"/><glyph unicode="V" horiz-adv-x="1318" d="M-14 1427h233q267-641 443-1234 207 496 436 1234h217q-236-739-531-1427h-270q-113 364-256.5 754t-271.5 673z"/><glyph unicode="W" horiz-adv-x="1925" d="M4 1427h229q189-562 334-1183 228 763 312 1183h200q6-22 18-68 214-797 273-1115 200 609 332 1183h213q-188-753-418-1427h-266q-78 409-252 1098-74-376-293-1098h-264q-242 936-418 1427z"/><glyph unicode="X" horiz-adv-x="1353" d="M10 0q228 287 551 723-293 392-541 704h265q182-234 405-526 187 250 379 526h252q-213-305-504-698 283-383 526-729h-258q-252 354-397 553-196-261-426-553h-252z"/><glyph unicode="Y" horiz-adv-x="1273" d="M-45 1427h270q221-276 428-585 237 311 414 585h248q-288-423-567-776v-651h-209v651q-305 440-584 776z"/><glyph unicode="Z" horiz-adv-x="1259" d="M39 0v61q448 582 860 1188h-811v178h1129v-57q-193-296-430.5-625.5t-430.5-566.5h834v-178h-1151z"/><glyph unicode="[" horiz-adv-x="620" d="M180-532v2078h482v-170h-279v-1741h279v-167h-482z"/><glyph unicode="\" horiz-adv-x="915" d="M-80 1427h217l727-1427h-213z"/><glyph unicode="]" horiz-adv-x="620" d="M-41-365h279v1741h-279v170h481v-2078h-481v167z"/><glyph unicode="^" horiz-adv-x="1026" d="M25 606l389 821h192l395-821h-206l-287 619-285-619h-198z"/><glyph unicode="_" horiz-adv-x="888" d="M63-119h762v-182h-762v182z"/><glyph unicode="`" horiz-adv-x="999" d="M199 1427h221l246-264h-183z"/><glyph unicode="a" horiz-adv-x="1128" d="M109 319q0 86 20.5 148.5t54 99.5 88.5 59 111.5 29 134.5 7q125 0 277-31 0 84-11.5 133.5t-45 80.5-85.5 41.5-141 10.5q-182 0-307-49l-41 168q188 51 379 51 118 0 198-19t136-65 81-124 25-195v-611q-90-37-213.5-59.5t-230.5-22.5q-239 0-334.5 74.5t-95.5 273.5zm208 11q0-67 9.5-105t38.5-60.5 70-29 116-6.5q129 0 244 41v317q-95 23-242 23-73 0-112.5-5.5t-70.5-24-42-54-11-96.5z"/><glyph unicode="b" horiz-adv-x="1187" d="M150 51v1428h192v-488q107 76 276 76 94 0 164-16.5t126-54.5 90.5-101 52.5-156 18-219q0-159-28-265.5t-89.5-169-149-88.5-216.5-26q-106 0-229.5 22t-206.5 58zm192 127q101-39 244-39 84 0 133.5 13.5t85 55.5 48.5 115.5 13 196.5q0 113-13.5 183.5t-47 114-84.5 59.5-133 16q-104 0-175-32.5t-71-88.5v-594z"/><glyph unicode="c" horiz-adv-x="958" d="M117 524q0 156 34 263t102 168 158 86.5 214 25.5q72 0 161-14t146-35l-51-172q-106 47-248 47-86 0-139-13t-94.5-52.5-59.5-114-18-193.5q0-113 18-187t59-115 96-57 138-16q122 0 248 52l51-170q-58-25-145.5-40.5t-161.5-15.5q-125 0-215 27t-158 89.5-101.5 171-33.5 265.5z"/><glyph unicode="d" horiz-adv-x="1187" d="M117 518q0 156 29 263.5t89.5 170 143 89 199.5 26.5q158 0 268-70v482h192v-1428q-83-36-206.5-58t-229.5-22q-129 0-216.5 25.5t-149.5 88-90.5 168.5-28.5 265zm205 4q0-97 9.5-162t28-109 53.5-67 78.5-32 110.5-9q143 0 244 37v594q0 57-71 90t-175 33q-108 0-166-32t-85-112.5-27-230.5z"/><glyph unicode="e" horiz-adv-x="1124" d="M117 524q0 152 30.5 258t93 168 148 89.5 203.5 27.5q122 0 202-25.5t136-91.5 80-180q20-98 21-241 0-24-1-50h-706q1-104 19-170.5t58-103.5 94-50.5 138-13.5q58 0 146.5 14t148.5 35l37-161q-80-25-181-41.5t-174-16.5q-120 0-207.5 27t-153.5 89.5-99 171-33 265.5zm209 113h512q-5 111-30 168.5t-72.5 78.5-135.5 21q-143 0-202.5-57t-71.5-211z"/><glyph unicode="f" horiz-adv-x="749" d="M18 866v172h179v82q0 92 21 158t53.5 104 84.5 60 102 28.5 117 6.5q123 0 238-39l-45-158q-86 27-195 27-91 0-137.5-40.5t-46.5-152.5v-76h354v-172h-354v-866h-192v866h-179z"/><glyph unicode="g" horiz-adv-x="1187" d="M117 520q0 158 28.5 264t90.5 168.5 149.5 88.5 216.5 26q105 0 229-21.5t207-56.5v-911q0-116-25-202.5t-68.5-142-112-89-147-47-181.5-13.5q-78 0-183 18t-167 42l45 166q62-24 149.5-40t153.5-16q176 0 260 64.5t84 232.5q-110-78-275-78-119 0-200.5 26t-140 88.5-86 168.5-27.5 264zm205 0q0-151 26.5-231t84.5-112 167-32q104 0 175 33t71 90v594q-104 37-244 37-67 0-110.5-8.5t-78.5-31-53.5-66-28-109.5-9.5-164z"/><glyph unicode="h" horiz-adv-x="1163" d="M147 0v1479h195v-490q48 32 128.5 55t164.5 23q103 0 171.5-20.5t118.5-73 72.5-145.5 22.5-236v-592h-195v567q0 84-8.5 138t-33 98.5-73 65-124.5 20.5q-101 0-172.5-31.5t-71.5-87.5v-770h-195z"/><glyph unicode="i" horiz-adv-x="489" d="M131 1350q0 65 24 83.5t93 18.5q68 0 91-18.5t23-83.5q0-71-23.5-93t-90.5-22q-69 0-93 22t-24 93zm19-1350v1038h192v-1038h-192z"/><glyph unicode="j" horiz-adv-x="489" d="M-41-250q101 0 146 42.5t45 164.5v1081h192v-1077q0-113-25-188t-77.5-116-118.5-57-162-16v166zm172 1600q0 65 24 83.5t93 18.5q68 0 91-18.5t23-83.5q0-71-23.5-93t-90.5-22q-69 0-93 22t-24 93z"/><glyph unicode="k" horiz-adv-x="1054" d="M150 0v1479h192v-1479h-192zm192 549q111 83 444 489h236q-153-187-269-311t-165-160q46-27 169-174t300-393h-236q-384 511-479 549z"/><glyph unicode="l" horiz-adv-x="501" d="M150 270v1209h192v-1200q0-75 19.5-126t70.5-108l-164-90q-63 64-90.5 134.5t-27.5 180.5z"/><glyph unicode="m" horiz-adv-x="1781" d="M150 0v981q90 38 211 62t229 24q185 0 272-70 196 70 375 70 153 0 237.5-43t124-147.5 39.5-294.5v-582h-192v557q0 104-11 167t-41 101-75 51-121 13q-135 0-244-35 37-109 37-272v-582h-194v557q0 139-21.5 208.5t-72 96.5-150.5 27q-113 0-211-29v-860h-192z"/><glyph unicode="n" horiz-adv-x="1163" d="M150 0v981q89 38 216.5 62t237.5 24q115 0 191-22.5t128-78.5 74.5-149 22.5-235v-582h-193v557q0 105-11.5 167t-42.5 100.5-79 51.5-129 13q-119 0-223-29v-860h-192z"/><glyph unicode="o" horiz-adv-x="1202" d="M117 524q0 158 29 263.5t91 167 149 87 214 25.5q102 0 176.5-16t134.5-53 97-99.5 56-155 19-219.5q0-159-28.5-266t-90-170.5-149-90-215.5-26.5q-127 0-214.5 26.5t-149.5 90-90.5 170.5-28.5 266zm205-4q0-157 26.5-239t84-114 167.5-32q82 0 133 16t85 60 47.5 117.5 13.5 191.5q0 124-13 198t-48 115.5-84.5 55.5-133.5 14q-67 0-110.5-9t-78-32-53-67-27.5-110-9-165z"/><glyph unicode="p" horiz-adv-x="1187" d="M150-393v1382q83 35 207 56.5t229 21.5q129 0 216.5-25.5t149-88 89.5-168 28-263.5q0-126-19.5-220t-56-157-93.5-102-128-55.5-164-16.5q-160 0-266 74v-438h-192zm192 659q0-58 70-91.5t174-33.5q109 0 167.5 32.5t85.5 113 27 231.5q0 97-9.5 162t-28 108.5-53.5 66-78.5 31.5-110.5 9q-146 0-244-37v-592z"/><glyph unicode="q" horiz-adv-x="1187" d="M117 520q0 158 28.5 264t90.5 168.5 149.5 88.5 216.5 26q105 0 229-21.5t207-56.5v-1382h-192v442q-116-78-279-78-118 0-199.5 26.5t-139.5 89-84.5 169-26.5 264.5zm205 0q0-151 26.5-231t84.5-112 167-32q104 0 175 33t71 90v594q-104 37-244 37-67 0-110.5-8.5t-78.5-31-53.5-66-28-109.5-9.5-164z"/><glyph unicode="r" horiz-adv-x="739" d="M150 0v1038h192v-75q32 44 104 74t175 30q53 0 106-6v-189q-64 11-121 11-112 0-188-33t-76-94v-756h-192z"/><glyph unicode="s" horiz-adv-x="1017" d="M106 733q0 184 108 259t321 75q168 0 346-53l-50-164q-144 53-301 53-49 0-81.5-3t-62-12-46-26-26-44.5-9.5-67.5q0-65 51.5-95.5t184.5-42.5q198-17 285-86.5t87-216.5q0-187-104-262.5t-317-75.5q-84 0-192.5 15.5t-180.5 40.5l47 163q55-23 148-39t173-16q124 0 177 31.5t53 128.5q0 71-51 105t-189 46q-191 16-281 79t-90 208z"/><glyph unicode="t" horiz-adv-x="827" d="M23 866v172h178v197l194 80v-277h365v-172h-365v-506q0-117 38.5-166t137.5-49q102 0 187 29l37-160q-114-43-256-43-92 0-152 16t-103.5 57.5-63 115.5-19.5 188v518h-178z"/><glyph unicode="u" horiz-adv-x="1163" d="M145 457v581h193v-557q0-139 23.5-208.5t76.5-96 160-26.5q131 0 225 30v858h193v-981q-90-38-218.5-62t-236.5-24q-115 0-191 23t-128 79.5-74.5 149.5-22.5 234z"/><glyph unicode="v" horiz-adv-x="1044" d="M25 1038h206q153-370 289-848 202 511 293 848h201q-128-429-379-1038h-252q-189 655-358 1038z"/><glyph unicode="w" horiz-adv-x="1681" d="M27 1038h211q140-366 260-843 60 172 136.5 434.5t108.5 408.5h209q111-327 230-843 187 515 264 843h205q-149-541-355-1038h-252q-39 191-97.5 426t-100.5 365q-91-386-234-791h-252q-163 601-333 1038z"/><glyph unicode="x" horiz-adv-x="1067" d="M37 0q155 177 412 518-209 287-410 520h244q128-158 274-362 90 120 248 362h221q-181-272-360-512 186-254 362-526h-225q-89 144-250 373-136-181-293-373h-223z"/><glyph unicode="y" horiz-adv-x="1044" d="M25 1038h206q151-355 289-854 195 486 293 854h201q-135-456-389-1058-84-204-174-373h-220q77 142 168 344-182 658-374 1087z"/><glyph unicode="z" horiz-adv-x="1015" d="M55 0v53q162 201 333 435.5t261 377.5h-559v172h860v-51q-127-198-303.5-444t-281.5-371h577v-172h-887z"/><glyph unicode="{" horiz-adv-x="612" d="M47 428v160q38 0 69.5 11t61 39.5 49 74 31.5 118 12 168.5q0 126 26 225.5t72 165.5 101.5 107 122.5 64l92-152q-73-22-118.5-64.5t-74-138-28.5-248.5q0-95-12.5-172t-31-124-44-81-47.5-49-45-22q23-7 45-22.5t47.5-50 44-82.5 31-125 12.5-173q0-115 14.5-196.5t45-131 68.5-77 93-43.5l-92-150q-68 23-123 63.5t-101 105.5-72 164.5-26 225.5q0 96-12 168.5t-31.5 118.5-49 74.5-61 39.5-69.5 11v-2z"/><glyph unicode="|" horiz-adv-x="698" d="M246-524v2070h207v-2070h-207z"/><glyph unicode="}" horiz-adv-x="612" d="M-72-389q54 17 91 44t67.5 76.5 45.5 131 15 196.5q0 118 18 207t47.5 137.5 57.5 73 58 33.5q-30 9-58 33.5t-57.5 73-47.5 137.5-18 207q0 116-14.5 197.5t-45 131-67.5 77-92 44.5l92 148q53-18 98.5-46.5t87-75 71-107 46.5-145.5 17-186q0-96 12-168.5t31.5-118 49-74 61-39.5 69.5-11v-158q-38 0-69.5-11t-61-39.5-49-74.5-31.5-118.5-12-168.5q0-125-25.5-224t-71.5-164-101-105.5-122-63.5z"/><glyph unicode="~" horiz-adv-x="1232" d="M111 729q57 97 116.5 144t143.5 47q52 0 124-27.5t131-60 122.5-60 101.5-27.5q48 0 82.5 33t64.5 113l129-100q-38-102-113-162t-175-60q-48 0-118 28t-129 61.5-124.5 61.5-104.5 28q-83 0-135-127z"/><glyph unicode="¡" horiz-adv-x="679" d="M205 934q0 83 28.5 108t108.5 25q77 0 105-25t28-108q0-76-28-99.5t-105-23.5q-80 0-108.5 23t-28.5 100zm10-1299l55 998h144l55-998h-254z"/><glyph unicode="¢" horiz-adv-x="946" d="M117 793q0 138 26.5 237.5t79 161.5 123.5 94 168 43v215h164v-211q134-7 244-47l-52-162q-75 34-192 41v-755q107 7 192 45l52-160q-94-41-244-53v-248h-164v250q-98 12-169 46.5t-123.5 98-78.5 164.5-26 240zm194-5q0-177 48.5-258t154.5-102v721q-72-13-114.5-48.5t-65.5-111.5-23-201z"/><glyph unicode="£" horiz-adv-x="1236" d="M84 629v168h131v194q0 235 134 352t413 117q103 0 216.5-16.5t197.5-42.5l-50-182q-55 23-159.5 38t-204.5 15q-179 0-258.5-65.5t-79.5-207.5v-202h397v-168h-397v-451h715v-178h-924v629h-131z"/><glyph unicode="¤" horiz-adv-x="1353" d="M106 125l177 221q-76 128-76 379 0 242 72 365l-170 223 174 114 155-206q89 47 250 47 155 0 244-41l139 200 174-112-151-215q80-127 80-375 0-251-80-381l161-219-170-125-155 213q-89-41-242-41-161 0-252 47l-174-219zm300 596q0-119 13.5-191.5t49-114.5 86-56.5 133.5-14.5q84 0 135 14.5t86.5 56.5 49.5 114.5 14 191.5q0 99-10 164.5t-28.5 108-55 64.5-79.5 30-112 8q-56 0-94.5-5t-72-20-54-40.5-35-67.5-20.5-101-6-141z"/><glyph unicode="¥" horiz-adv-x="1273" d="M-45 1427h270q221-276 428-585 237 311 414 585h248q-262-379-484-665h299v-158h-382v-176h382v-158h-382v-270h-209v270h-389v158h389v176h-389v158h311q-273 378-506 665z"/><glyph unicode="¦" horiz-adv-x="698" d="M246 227h207v-751h-207v751zm0 568v751h207v-751h-207z"/><glyph unicode="§" horiz-adv-x="1275" d="M113 567q0 131 84 246-76 82-76 223 0 216 153 321t435 105q219 0 403-59l-47-176q-53 23-155.5 37t-200.5 14q-183 0-273-52t-90-173q0-91 70-136t262-59q255-22 378.5-111t123.5-268q0-127-88-243 77-80 77-226 0-216-152-321t-433-105q-223 0-404 58l47 178q53-23 156.5-38t200.5-15q183 0 272.5 53t89.5 174q0 91-70 135.5t-262 58.5q-255 22-378 110.5t-123 268.5zm213 8q0-65 31.5-104.5t110.5-63.5 220-34q163-13 244-49 35 72 35 147 0 64-31.5 103.5t-111.5 64.5-220 35q-157 9-244 45-34-52-34-144z"/><glyph unicode="¨" horiz-adv-x="890" d="M131 1274q0 61 21 78.5t84 17.5q61 0 81.5-17.5t20.5-78.5q0-67-20.5-87t-81.5-20q-62 0-83.5 20t-21.5 87zm412 0q0 61 21 78.5t83 17.5q61 0 82-17.5t21-78.5q0-67-21-87t-82-20q-62 0-83 20t-21 87z"/><glyph unicode="©" horiz-adv-x="1751" d="M139 723q0 145 19.5 256.5t61 193.5 100.5 137.5 143.5 89 183.5 48 227 14.5q155 0 268-21t205-71.5 148.5-135 86.5-211 30-300.5q0-176-29.5-304t-86-214.5-148-138-205.5-73.5-269-22q-128 0-227 15t-183.5 49.5-143.5 91-100.5 140-61 196.5-19.5 260zm187-2q0-184 28-298.5t96.5-181 166.5-90.5 255-24q106 0 182.5 10t141.5 36 106.5 68.5 70.5 109 41.5 157 12.5 213.5q0 95-7 169t-23 133.5-38.5 103-57 76-75 52.5-97 32.5-117 17-140.5 4.5q-106 0-179.5-8.5t-138.5-32.5-105-65-69.5-107-41.5-157.5-12-217.5zm147 4q0 109 17.5 187.5t50.5 131 87 83 120.5 43 158.5 12.5q66 0 145-12t130-29l-43-156q-80 35-224 35-59 0-97-6.5t-69-24-47.5-51.5-25-86.5-8.5-130.5q0-123 24.5-187.5t75.5-89 147-24.5q122 0 224 41l43-152q-54-20-131.5-33.5t-143.5-13.5q-115 0-192.5 21t-133.5 73.5-82 142.5-26 226z"/><glyph unicode="ª" horiz-adv-x="862" d="M123 936q0 61 14.5 104.5t38.5 69.5 62.5 41 78 20 93.5 5q93 0 192-21 0 114-39.5 150t-156.5 36q-136 0-216-34l-28 118q153 37 266 37 83 0 139-12.5t96-44.5 58-86.5 18-136.5v-432q-62-27-150-42.5t-165-15.5q-169 0-235 50.5t-66 193.5zm147 8q0-79 34.5-110t129.5-31q86 0 168 28v224q-53 14-168 14-87 0-125.5-23.5t-38.5-101.5z"/><glyph unicode="«" horiz-adv-x="1294" d="M61 625l551 561 115-119-403-436 403-447-111-121zm506 0l551 561 113-119-404-436 404-447-109-121z"/><glyph unicode="¬" horiz-adv-x="1038" d="M63 670v180h900v-850h-209v670h-691z"/><glyph unicode="­" horiz-adv-x="593" d="M63 479v183h467v-183h-467z"/><glyph unicode="®" horiz-adv-x="1163" d="M113 969q0 115 19 199t54.5 140 93.5 90 130 48 170 14q125 0 209-22.5t145-78 89-151.5 28-239q0-142-27.5-237t-88-152-145.5-81-210-24q-124 0-208.5 24t-144 81-87 152-27.5 237zm145 0q0-146 33-225.5t100-109.5 189-30q95 0 154 15.5t99.5 57 57 111.5 16.5 181q0 79-7 135.5t-24.5 97.5-41 66-62.5 39.5-83.5 20-108.5 5.5q-94 0-150-13t-97.5-52.5-58-110.5-16.5-188zm107-267v537h319q71 0 107-49.5t36-128.5q0-89-34.5-127.5t-102.5-38.5q79-39 133-193h-157q-16 55-52 111.5t-61 56.5h-49v-168h-139zm139 281h129q51 0 51 74 0 67-51 67h-129v-141z"/><glyph unicode="¯" horiz-adv-x="1079" d="M264 1190v151h543v-151h-543z"/><glyph unicode="°" horiz-adv-x="862" d="M86 1014q0 133 20.5 220.5t65 137.5 106 70 152.5 20q92 0 154-20t107-70.5 65-137.5 20-220q0-177-38.5-279.5t-111.5-143-196-40.5q-121 0-194 40.5t-111.5 143-38.5 279.5zm174-2q0-185 37.5-251.5t132.5-66.5q98 0 134 65.5t36 252.5q0 130-16.5 195t-51 87.5-102.5 22.5q-66 0-100-22.5t-52-88.5-18-194z"/><glyph unicode="±" horiz-adv-x="1232" d="M121 59v183h989v-183h-989zm0 738v182h401v403h185v-403h403v-182h-403v-404h-185v404h-401z"/><glyph unicode="²" horiz-adv-x="829" d="M72 573q12 138 52 226t100 134 161 85q89 32 128.5 74t39.5 102q0 61-44.5 85t-148.5 24q-56 0-124.5-10t-100.5-23l-29 155q133 37 263 37 190 0 275-60.5t85-199.5q0-209-207-287-56-20-82.5-30.5t-63-29-53-35-31-42-18.5-57.5h457v-148h-659z"/><glyph unicode="³" horiz-adv-x="817" d="M82 590l27 139q104-33 235-33 112 0 152.5 27t40.5 106q0 77-40 102t-153 25h-82v140h80q103 0 139.5 24t36.5 94q0 63-36 84t-142 21q-125 0-223-31l-27 137q133 37 268 37 182 0 262-52t80-165q0-100-39-151.5t-149-61.5q118-6 164.5-62t46.5-163q0-138-88.5-196t-276.5-58q-132 0-276 37z"/><glyph unicode="´" horiz-adv-x="999" d="M199 1163l247 264h220l-283-264h-184z"/><glyph unicode="µ" horiz-adv-x="1163" d="M139-393l6 811v620h193v-557q0-68 5-115t20.5-91.5 44-70.5 76-41.5 114.5-15.5q120 0 223 33v858h195v-983q-91-37-219.5-60.5t-235.5-23.5q-155 0-233 45l4-409h-193z"/><glyph unicode="¶" horiz-adv-x="1353" d="M70 950q0 477 399 477h690v-1427h-192v498h-187v-498h-194v498h-123q-84 0-151 25t-111.5 67-74.5 100.5-43 123-13 136.5z"/><glyph unicode="·" horiz-adv-x="575" d="M143 618q0 83 29.5 107.5t112.5 24.5q88 0 117.5-24t29.5-108q0-90-30-117.5t-117-27.5q-83 0-112.5 28t-29.5 117z"/><glyph unicode="¸" horiz-adv-x="1327" d="M516-379l41 98q61-28 162-28 59 0 80.5 12t21.5 49q0 41-46.5 53.5t-174.5 4.5l74 190h86v-90q131 0 182-33.5t51-124.5q0-95-60-131.5t-208-36.5q-139 0-209 37z"/><glyph unicode="¹" horiz-adv-x="729" d="M86 1317l410 170v-901h-174v669l-191-88z"/><glyph unicode="º" horiz-adv-x="923" d="M119 1075q0 111 21 186.5t65.5 119.5 106 62.5 149.5 18.5q89 0 151-18.5t106.5-62.5 65.5-119.5 21-186.5q0-219-82-306t-262-87q-119 0-191.5 35t-111.5 122.5-39 235.5zm160-4q0-153 37-204.5t145-51.5q107 0 144.5 52t37.5 204q0 110-17 164.5t-53.5 73-111.5 18.5q-76 0-112.5-18.5t-53-72.5-16.5-165z"/><glyph unicode="»" horiz-adv-x="1294" d="M63 184l404 437-404 446 111 121 553-563-551-559zm506 0l402 437-402 446 109 121 555-563-551-559z"/><glyph unicode="¼" horiz-adv-x="1679" d="M72 1317l407 170v-901h-172v669l-192-88zm159-1317l846 1427h197l-844-1427h-199zm592 215v64q169 283 406 591h229v-505h121v-150h-121v-215h-168v215h-467zm207 150h260v372q-154-192-260-372z"/><glyph unicode="½" horiz-adv-x="1679" d="M59 1317l408 170v-901h-172v669l-193-88zm160-1317l846 1427h197l-844-1427h-199zm729 0q9 105 32 178t64 123.5 90.5 82 125.5 60.5q88 32 127.5 74t39.5 103-43 84.5-149 23.5q-56 0-124-10t-101-23l-29 156q137 37 262 37 190 0 276.5-61t86.5-199q0-210-209-287-54-19-82-30.5t-63-29.5-52-35-31-42.5-18-57.5h457v-147h-660z"/><glyph unicode="¾" horiz-adv-x="1679" d="M68 590l26 139q104-33 234-33 113 0 153.5 27t40.5 106q0 77-40 102t-154 25h-80v140h80q102 0 139 24t37 94q0 63-36.5 84t-141.5 21q-126 0-224-31l-28 137q137 37 270 37 180 0 260-52t80-165q0-100-39-151.5t-147-61.5q117-6 164-62t47-163q0-138-89-196t-276-58q-135 0-276 37zm288-590l844 1427h199l-844-1427h-199zm484 215v64q167 284 403 591h232v-505h118v-150h-118v-215h-170v215h-465zm204 150h261v372q-158-196-261-372z"/><glyph unicode="¿" horiz-adv-x="980" d="M72 2q0 176 81 320.5t261 318.5h215q-173-170-249.5-318.5t-76.5-320.5q0-109 58.5-160t211.5-51q178 0 287 45l49-184q-61-21-165.5-36t-180.5-15q-261 0-376 100.5t-115 300.5zm315 932q0 83 28 108t109 25q77 0 104-25t27-108q0-77-27-100t-104-23q-81 0-109 23t-28 100z"/><glyph unicode="À" horiz-adv-x="1382" d="M2 0q247 743 528 1427h338q273-834 527-1427h-234q-118 298-153 397h-662q-61-182-129-397h-215zm338 1794h235l289-264h-198zm66-1219h540q-99 272-227 680h-57q-125-312-256-680z"/><glyph unicode="Á" horiz-adv-x="1382" d="M2 0q247 743 528 1427h338q273-834 527-1427h-234q-118 298-153 397h-662q-61-182-129-397h-215zm404 575h540q-99 272-227 680h-57q-125-312-256-680zm124 955l271 264h233l-323-264h-181z"/><glyph unicode="Â" horiz-adv-x="1382" d="M2 0q247 743 528 1427h338q273-834 527-1427h-234q-118 298-153 397h-662q-61-182-129-397h-215zm340 1530q42 44 125 132t125 132h199l258-264h-201l-160 172-153-172h-193zm64-955h540q-99 272-227 680h-57q-125-312-256-680z"/><glyph unicode="Ã" horiz-adv-x="1382" d="M2 0q247 743 528 1427h338q273-834 527-1427h-234q-118 298-153 397h-662q-61-182-129-397h-215zm322 1618q46 82 95 122t118 40q42 0 86-18.5t74.5-40 68.5-40 70-18.5q38 0 66 28t52 97l105-84q-32-87-92.5-137.5t-143.5-50.5q-48 0-101.5 31t-103.5 62-90 31q-64 0-112-112zm82-1043h540q-99 272-227 680h-57q-125-312-256-680z"/><glyph unicode="Ä" horiz-adv-x="1382" d="M2 0q247 743 528 1427h338q273-834 527-1427h-234q-118 298-153 397h-662q-61-182-129-397h-215zm375 1655q0 61 21 78.5t83 17.5q61 0 82-17.5t21-78.5q0-67-21-87t-82-20q-62 0-83 20t-21 87zm29-1080h540q-99 272-227 680h-57q-125-312-256-680zm382 1080q0 61 21 78.5t84 17.5q61 0 81.5-17.5t20.5-78.5q0-67-20.5-87t-81.5-20q-62 0-83.5 20t-21.5 87z"/><glyph unicode="Å" horiz-adv-x="1382" d="M2 0q247 743 528 1427h338q273-834 527-1427h-234q-118 298-153 397h-662q-61-182-129-397h-215zm404 575h540q-99 272-227 680h-57q-125-312-256-680zm55 1035q0 104 53.5 150t179.5 46q117 0 175.5-47.5t58.5-148.5q0-103-58-150t-176-47-175.5 47-57.5 150zm123-4q0-49 24.5-74t85.5-25q63 0 88 25t25 74q0 50-25 73t-88 23q-62 0-86-23t-24-73z"/><glyph unicode="Æ" horiz-adv-x="1976" d="M-268 0q498 746 1009 1427h1176v-178h-799v-405h481v-174h-481v-492h799v-178h-1006v397h-669q-153-225-260-397h-250zm628 575h551v680h-63q-267-361-488-680z"/><glyph unicode="Ç" horiz-adv-x="1222" d="M119 727q0 175 26.5 301t76.5 210 132 133.5 184 70 242 20.5q96 0 209-15t195-38l-51-186q-59 22-152.5 35.5t-175.5 13.5q-91 0-151.5-7t-116.5-28-89-58-58.5-98.5-35.5-148-10-207.5 10.5-208 35-150 58.5-102 89-62 117-31 151-8q81 0 174.5 13t153.5 34l51-186q-82-24-194-39t-210-15q-174 0-293.5 36.5t-204.5 123-124 233-39 363.5zm418-1106l41 98q61-28 161-28 59 0 81 12t22 49q0 41-46.5 53.5t-174.5 4.5l73 190h86v-90q131 0 182.5-33.5t51.5-124.5q0-95-60-131.5t-209-36.5q-138 0-208 37z"/><glyph unicode="È" horiz-adv-x="1259" d="M195 0v1427h1005v-178h-799v-405h568v-176h-568v-490h799v-178h-1005zm231 1794h236l288-264h-198z"/><glyph unicode="É" horiz-adv-x="1259" d="M195 0v1427h1005v-178h-799v-405h568v-176h-568v-490h799v-178h-1005zm331 1530l271 264h233l-323-264h-181z"/><glyph unicode="Ê" horiz-adv-x="1259" d="M195 0v1427h1005v-178h-799v-405h568v-176h-568v-490h799v-178h-1005zm167 1530q42 44 125 132t125 132h199l258-264h-201l-159 172-154-172h-193z"/><glyph unicode="Ë" horiz-adv-x="1259" d="M195 0v1427h1005v-178h-799v-405h568v-176h-568v-490h799v-178h-1005zm208 1655q0 61 21 78.5t84 17.5q61 0 81.5-17.5t20.5-78.5q0-67-20.5-87t-81.5-20q-62 0-83.5 20t-21.5 87zm412 0q0 61 21 78.5t84 17.5q61 0 81.5-17.5t20.5-78.5q0-67-20.5-87t-81.5-20q-62 0-83.5 20t-21.5 87z"/><glyph unicode="Ì" horiz-adv-x="593" d="M-66 1794h236l289-264h-199zm261-1794v1427h206v-1427h-206z"/><glyph unicode="Í" horiz-adv-x="593" d="M145 1530l271 264h233l-323-264h-181zm50-1530v1427h206v-1427h-206z"/><glyph unicode="Î" horiz-adv-x="593" d="M-53 1530q42 44 125 132t125 132h198l258-264h-200l-160 172-154-172h-192zm248-1530v1427h206v-1427h-206z"/><glyph unicode="Ï" horiz-adv-x="593" d="M-8 1655q0 61 21 78.5t83 17.5q61 0 82-17.5t21-78.5q0-67-21-87t-82-20q-62 0-83 20t-21 87zm203-1655v1427h206v-1427h-206zm208 1655q0 61 21 78.5t84 17.5q61 0 81.5-17.5t20.5-78.5q0-67-20.5-87t-81.5-20q-62 0-83.5 20t-21.5 87z"/><glyph unicode="Ð" horiz-adv-x="1474" d="M84 662v149h111v616h491q140 0 242.5-20.5t186-69.5 134.5-130 78-202 27-286-26.5-287-78-205-134-133.5-186.5-72-243-21.5h-491v662h-111zm317-484h273q133 0 216 22.5t140 83.5 80 164.5 23 268.5q0 87-5.5 154.5t-18.5 121.5-31 93-47 67-62 46-80 28-97 14-118 4h-273v-434h330v-149h-330v-484z"/><glyph unicode="Ñ" horiz-adv-x="1540" d="M195 0v1427h276q319-486 666-1118v1118h209v-1427h-254q-311 575-693 1178v-1178h-204zm225 1618q46 82 95 122t118 40q42 0 86-18.5t74.5-40 68.5-40 70-18.5q39 0 67 28t52 97l104-84q-32-87-92.5-137.5t-142.5-50.5q-48 0-101.5 31t-103.5 62-90 31q-65 0-113-112z"/><glyph unicode="Ò" horiz-adv-x="1564" d="M119 723q0 174 26.5 300.5t77 211 133 135 184.5 71.5 242 21 242-21 185-71.5 133.5-135 77-211 26.5-300.5q0-176-26.5-304t-77-214.5-132.5-138-185-73.5-243-22q-139 0-241.5 22t-185 73.5-133 138-77 214.5-26.5 304zm225-4q0-118 8.5-202.5t30-148.5 53-103.5 83-64 113.5-33.5 150-9q89 0 151.5 9t114 33.5 83.5 64 54 103.5 31 148.5 9 202.5q0 122-8.5 208t-31 149.5-54 101.5-84 61-114 31-151.5 8-150.5-8-113-31-83-61-52.5-101.5-30.5-149.5-8.5-208zm102 1075h236l289-264h-199z"/><glyph unicode="Ó" horiz-adv-x="1564" d="M119 723q0 174 26.5 300.5t77 211 133 135 184.5 71.5 242 21 242-21 185-71.5 133.5-135 77-211 26.5-300.5q0-176-26.5-304t-77-214.5-132.5-138-185-73.5-243-22q-139 0-241.5 22t-185 73.5-133 138-77 214.5-26.5 304zm225-4q0-118 8.5-202.5t30-148.5 53-103.5 83-64 113.5-33.5 150-9q89 0 151.5 9t114 33.5 83.5 64 54 103.5 31 148.5 9 202.5q0 122-8.5 208t-31 149.5-54 101.5-84 61-114 31-151.5 8-150.5-8-113-31-83-61-52.5-101.5-30.5-149.5-8.5-208zm182 811l271 264h233l-323-264h-181z"/><glyph unicode="Ô" horiz-adv-x="1564" d="M119 723q0 174 26.5 300.5t77 211 133 135 184.5 71.5 242 21 242-21 185-71.5 133.5-135 77-211 26.5-300.5q0-176-26.5-304t-77-214.5-132.5-138-185-73.5-243-22q-139 0-241.5 22t-185 73.5-133 138-77 214.5-26.5 304zm225-4q0-118 8.5-202.5t30-148.5 53-103.5 83-64 113.5-33.5 150-9q89 0 151.5 9t114 33.5 83.5 64 54 103.5 31 148.5 9 202.5q0 122-8.5 208t-31 149.5-54 101.5-84 61-114 31-151.5 8-150.5-8-113-31-83-61-52.5-101.5-30.5-149.5-8.5-208zm82 811q42 44 125 132t125 132h198l259-264h-201l-160 172-154-172h-192z"/><glyph unicode="Õ" horiz-adv-x="1564" d="M119 723q0 174 26.5 300.5t77 211 133 135 184.5 71.5 242 21 242-21 185-71.5 133.5-135 77-211 26.5-300.5q0-176-26.5-304t-77-214.5-132.5-138-185-73.5-243-22q-139 0-241.5 22t-185 73.5-133 138-77 214.5-26.5 304zm225-4q0-118 8.5-202.5t30-148.5 53-103.5 83-64 113.5-33.5 150-9q89 0 151.5 9t114 33.5 83.5 64 54 103.5 31 148.5 9 202.5q0 122-8.5 208t-31 149.5-54 101.5-84 61-114 31-151.5 8-150.5-8-113-31-83-61-52.5-101.5-30.5-149.5-8.5-208zm66 899q46 82 95 122t118 40q42 0 86-18.5t74.5-40 68.5-40 70-18.5q38 0 66 28t52 97l105-84q-32-87-92.5-137.5t-143.5-50.5q-48 0-101.5 31t-103.5 62-90 31q-64 0-112-112z"/><glyph unicode="Ö" horiz-adv-x="1564" d="M119 723q0 174 26.5 300.5t77 211 133 135 184.5 71.5 242 21 242-21 185-71.5 133.5-135 77-211 26.5-300.5q0-176-26.5-304t-77-214.5-132.5-138-185-73.5-243-22q-139 0-241.5 22t-185 73.5-133 138-77 214.5-26.5 304zm225-4q0-118 8.5-202.5t30-148.5 53-103.5 83-64 113.5-33.5 150-9q89 0 151.5 9t114 33.5 83.5 64 54 103.5 31 148.5 9 202.5q0 122-8.5 208t-31 149.5-54 101.5-84 61-114 31-151.5 8-150.5-8-113-31-83-61-52.5-101.5-30.5-149.5-8.5-208zm127 936q0 61 21 78.5t83 17.5q61 0 82-17.5t21-78.5q0-67-21-87t-82-20q-62 0-83 20t-21 87zm412 0q0 61 21 78.5t83 17.5q61 0 82-17.5t21-78.5q0-67-21-87t-82-20q-62 0-83 20t-21 87z"/><glyph unicode="×" horiz-adv-x="1232" d="M201 455l282 284-282 285 129 127 282-283 285 287 133-131-287-287 285-282-129-131-285 284-282-284z"/><glyph unicode="Ø" horiz-adv-x="1564" d="M63 0l166 190q-110 169-110 533 0 174 26.5 300.5t77 211 133 135 184.5 71.5 242 21q296 0 443-108 20 22 61 73h217q-114-131-164-190 107-171 107-514 0-147-17.5-260.5t-55-197-90.5-140-129.5-90.5-166-49-205.5-15q-294 0-440 105-26-33-66-76h-213zm281 756q0-113 4-166 9-133 39-215 105 122 223.5 260.5t260.5 305.5 223 261q-49 42-123.5 59t-188.5 17q-87 0-147-7.5t-111.5-29-83-57.5-54.5-95.5-32-139.5-10-193zm135-523q87-75 303-75 104 0 173 13.5t123.5 47 84.5 94.5 45.5 150 16.5 221q0 62-4 164-9 127-39 207-201-231-703-822z"/><glyph unicode="Ù" horiz-adv-x="1515" d="M170 463v964h211v-944q0-97 21-160t69.5-99 115.5-50 171-14q102 0 169 13.5t116.5 49 71.5 99 22 161.5v944h209v-964q0-119-26-205.5t-72.5-141.5-122-87.5-162.5-45-205-12.5-204.5 12.5-162 45-122 87.5-73 141.5-26.5 205.5zm289 1331h235l289-264h-199z"/><glyph unicode="Ú" horiz-adv-x="1515" d="M170 463v964h211v-944q0-97 21-160t69.5-99 115.5-50 171-14q102 0 169 13.5t116.5 49 71.5 99 22 161.5v944h209v-964q0-119-26-205.5t-72.5-141.5-122-87.5-162.5-45-205-12.5-204.5 12.5-162 45-122 87.5-73 141.5-26.5 205.5zm387 1067l270 264h234l-324-264h-180z"/><glyph unicode="Û" horiz-adv-x="1515" d="M170 463v964h211v-944q0-97 21-160t69.5-99 115.5-50 171-14q102 0 169 13.5t116.5 49 71.5 99 22 161.5v944h209v-964q0-119-26-205.5t-72.5-141.5-122-87.5-162.5-45-205-12.5-204.5 12.5-162 45-122 87.5-73 141.5-26.5 205.5zm231 1067q42 44 125 132t125 132h199l258-264h-201l-159 172-154-172h-193z"/><glyph unicode="Ü" horiz-adv-x="1515" d="M170 463v964h211v-944q0-97 21-160t69.5-99 115.5-50 171-14q102 0 169 13.5t116.5 49 71.5 99 22 161.5v944h209v-964q0-119-26-205.5t-72.5-141.5-122-87.5-162.5-45-205-12.5-204.5 12.5-162 45-122 87.5-73 141.5-26.5 205.5zm272 1192q0 61 21 78.5t84 17.5q61 0 81.5-17.5t20.5-78.5q0-67-20.5-87t-81.5-20q-62 0-83.5 20t-21.5 87zm412 0q0 61 21 78.5t83 17.5q61 0 82-17.5t21-78.5q0-67-21-87t-82-20q-62 0-83 20t-21 87z"/><glyph unicode="Ý" horiz-adv-x="1273" d="M-45 1427h270q221-276 428-585 237 311 414 585h248q-288-423-567-776v-651h-209v651q-305 440-584 776zm532 103l271 264h233l-323-264h-181z"/><glyph unicode="Þ" horiz-adv-x="1353" d="M195 0v1427h206v-225h484q399 0 399-475 0-92-21.5-171t-66.5-144-123-102.5-182-37.5h-490v-272h-206zm206 451h443q104 0 157.5 73t53.5 203q0 145-51.5 221t-151.5 76h-451v-573z"/><glyph unicode="ß" horiz-adv-x="1300" d="M150 0v1090q0 127 64.5 212t173.5 122.5 259 37.5q253 0 378.5-87.5t125.5-268.5q0-58-6.5-102.5t-25-88.5-51-74-86.5-51-128-28q98-4 165-33.5t102.5-81.5 50-113.5 14.5-144.5q0-230-132-324t-433-94q-71 0-123 6l20 173q101-7 109-7 135 0 209 27t102.5 81.5 28.5 151.5q0 151-69.5 211t-244.5 60h-61v166h59q160 0 223.5 55t63.5 180q0 116-66 163.5t-227 47.5q-148 0-224.5-55t-76.5-160v-1071h-194z"/><glyph unicode="à" horiz-adv-x="1128" d="M109 319q0 86 20.5 148.5t54 99.5 88.5 59 111.5 29 134.5 7q125 0 277-31 0 84-11.5 133.5t-45 80.5-85.5 41.5-141 10.5q-182 0-307-49l-41 168q188 51 379 51 118 0 198-19t136-65 81-124 25-195v-611q-90-37-213.5-59.5t-230.5-22.5q-239 0-334.5 74.5t-95.5 273.5zm157 1108h221l246-264h-182zm51-1097q0-67 9.5-105t38.5-60.5 70-29 116-6.5q129 0 244 41v317q-95 23-242 23-73 0-112.5-5.5t-70.5-24-42-54-11-96.5z"/><glyph unicode="á" horiz-adv-x="1128" d="M109 319q0 86 20.5 148.5t54 99.5 88.5 59 111.5 29 134.5 7q125 0 277-31 0 84-11.5 133.5t-45 80.5-85.5 41.5-141 10.5q-182 0-307-49l-41 168q188 51 379 51 118 0 198-19t136-65 81-124 25-195v-611q-90-37-213.5-59.5t-230.5-22.5q-239 0-334.5 74.5t-95.5 273.5zm208 11q0-67 9.5-105t38.5-60.5 70-29 116-6.5q129 0 244 41v317q-95 23-242 23-73 0-112.5-5.5t-70.5-24-42-54-11-96.5zm78 833l248 264h219l-282-264h-185z"/><glyph unicode="â" horiz-adv-x="1128" d="M109 319q0 86 20.5 148.5t54 99.5 88.5 59 111.5 29 134.5 7q125 0 277-31 0 84-11.5 133.5t-45 80.5-85.5 41.5-141 10.5q-182 0-307-49l-41 168q188 51 379 51 118 0 198-19t136-65 81-124 25-195v-611q-90-37-213.5-59.5t-230.5-22.5q-239 0-334.5 74.5t-95.5 273.5zm110 844q42 44 125 132t125 132h199l258-264h-205q-26 28-78 83t-78 83q-37-43-151-166h-195zm98-833q0-67 9.5-105t38.5-60.5 70-29 116-6.5q129 0 244 41v317q-95 23-242 23-73 0-112.5-5.5t-70.5-24-42-54-11-96.5z"/><glyph unicode="ã" horiz-adv-x="1128" d="M109 319q0 86 20.5 148.5t54 99.5 88.5 59 111.5 29 134.5 7q125 0 277-31 0 84-11.5 133.5t-45 80.5-85.5 41.5-141 10.5q-182 0-307-49l-41 168q188 51 379 51 118 0 198-19t136-65 81-124 25-195v-611q-90-37-213.5-59.5t-230.5-22.5q-239 0-334.5 74.5t-95.5 273.5zm86 932q47 83 97.5 124.5t119.5 41.5q43 0 84.5-19t69-41.5 62-41.5 66.5-19q39 0 65 28t52 99l107-84q-70-188-230-188-39 0-79.5 19t-69.5 42.5-66.5 42.5-69.5 19q-33 0-60.5-27t-53.5-88zm122-921q0-67 9.5-105t38.5-60.5 70-29 116-6.5q129 0 244 41v317q-95 23-242 23-73 0-112.5-5.5t-70.5-24-42-54-11-96.5z"/><glyph unicode="ä" horiz-adv-x="1128" d="M109 319q0 86 20.5 148.5t54 99.5 88.5 59 111.5 29 134.5 7q125 0 277-31 0 84-11.5 133.5t-45 80.5-85.5 41.5-141 10.5q-182 0-307-49l-41 168q188 51 379 51 118 0 198-19t136-65 81-124 25-195v-611q-90-37-213.5-59.5t-230.5-22.5q-239 0-334.5 74.5t-95.5 273.5zm133 955q0 61 21 78.5t83 17.5q61 0 82-17.5t21-78.5q0-67-21-87t-82-20q-62 0-83 20t-21 87zm75-944q0-67 9.5-105t38.5-60.5 70-29 116-6.5q129 0 244 41v317q-95 23-242 23-73 0-112.5-5.5t-70.5-24-42-54-11-96.5zm336 944q0 61 21 78.5t84 17.5q61 0 81.5-17.5t20.5-78.5q0-67-20.5-87t-81.5-20q-62 0-83.5 20t-21.5 87z"/><glyph unicode="å" horiz-adv-x="1128" d="M109 319q0 86 20.5 148.5t54 99.5 88.5 59 111.5 29 134.5 7q125 0 277-31 0 84-11.5 133.5t-45 80.5-85.5 41.5-141 10.5q-182 0-307-49l-41 168q188 51 379 51 118 0 198-19t136-65 81-124 25-195v-611q-90-37-213.5-59.5t-230.5-22.5q-239 0-334.5 74.5t-95.5 273.5zm208 11q0-67 9.5-105t38.5-60.5 70-29 116-6.5q129 0 244 41v317q-95 23-242 23-73 0-112.5-5.5t-70.5-24-42-54-11-96.5zm23 987q0 105 53 150.5t180 45.5q118 0 176-47t58-149q0-101-58.5-149t-175.5-48-175 48-58 149zm123-2q0-49 24.5-73.5t85.5-24.5q63 0 88 24.5t25 73.5q0 50-25 73t-88 23q-62 0-86-23t-24-73z"/><glyph unicode="æ" horiz-adv-x="1789" d="M109 319q0 86 20.5 148.5t54.5 99.5 88.5 59 111.5 29 134 7q125 0 277-31 0 85-10.5 133.5t-43 79.5-85 41-144.5 10q-187 0-307-47l-41 168q188 51 379 51 153 0 237.5-33.5t124.5-118.5q46 83 129.5 117.5t220.5 34.5q97 0 166.5-16t125-55 87.5-106 47.5-168 12.5-243h-707q1-104 19.5-170.5t59-103.5 94-50.5 136.5-13.5q60 0 147 14t148 35l37-161q-80-25-180-41.5t-172-16.5q-217 0-324 86-61-41-182.5-63.5t-230.5-22.5q-239 0-334.5 74.5t-95.5 273.5zm208 11q0-63 8-98.5t34-60.5 70.5-33.5 121.5-8.5q70 0 155.5 16.5t135.5 42.5q-31 72-40 139t-9 160q-98 23-240 23-59 0-93-3t-65.5-13-46-30-23-52-8.5-82zm672 307h512q-4 111-29 168.5t-72.5 78.5-135.5 21q-141 0-201.5-54.5t-73.5-213.5z"/><glyph unicode="ç" horiz-adv-x="958" d="M117 524q0 156 34 263t102 168 158 86.5 214 25.5q72 0 161-14t146-35l-51-172q-106 47-248 47-86 0-139-13t-94.5-52.5-59.5-114-18-193.5q0-113 18-187t59-115 96-57 138-16q122 0 248 52l51-170q-58-25-145.5-40.5t-161.5-15.5q-125 0-215 27t-158 89.5-101.5 171-33.5 265.5zm250-903l41 98q61-28 161-28 59 0 81 12t22 49q0 41-46.5 53.5t-174.5 4.5l73 190h86v-90q131 0 182.5-33.5t51.5-124.5q0-95-60-131.5t-209-36.5q-138 0-208 37z"/><glyph unicode="è" horiz-adv-x="1124" d="M117 524q0 152 30.5 258t93 168 148 89.5 203.5 27.5q122 0 202-25.5t136.5-91 80-180 19.5-291.5h-706q1-104 19-170.5t58-103.5 94-50.5 138-13.5q58 0 146.5 14t148.5 35l37-161q-80-25-181-41.5t-174-16.5q-120 0-207.5 27t-153.5 89.5-99 171-33 265.5zm200 903h222l245-264h-182zm9-790h512q-5 111-30 168.5t-72.5 78.5-135.5 21q-143 0-202.5-57t-71.5-211z"/><glyph unicode="é" horiz-adv-x="1124" d="M117 524q0 152 30.5 258t93 168 148 89.5 203.5 27.5q122 0 202-25.5t136.5-91 80-180 19.5-291.5h-706q1-104 19-170.5t58-103.5 94-50.5 138-13.5q58 0 146.5 14t148.5 35l37-161q-80-25-181-41.5t-174-16.5q-120 0-207.5 27t-153.5 89.5-99 171-33 265.5zm209 113h512q-5 111-30 168.5t-72.5 78.5-135.5 21q-143 0-202.5-57t-71.5-211zm94 526l248 264h219l-283-264h-184z"/><glyph unicode="ê" horiz-adv-x="1124" d="M117 524q0 152 30.5 258t93 168 148 89.5 203.5 27.5q122 0 202-25.5t136.5-91 80-180 19.5-291.5h-706q1-104 19-170.5t58-103.5 94-50.5 138-13.5q58 0 146.5 14t148.5 35l37-161q-80-25-181-41.5t-174-16.5q-120 0-207.5 27t-153.5 89.5-99 171-33 265.5zm133 639q42 44 125 132t125 132h198l258-264h-204q-26 28-78 83t-78 83q-25-28-152-166h-194zm76-526h512q-5 111-30 168.5t-72.5 78.5-135.5 21q-143 0-202.5-57t-71.5-211z"/><glyph unicode="ë" horiz-adv-x="1124" d="M117 524q0 152 30.5 258t93 168 148 89.5 203.5 27.5q122 0 202-25.5t136.5-91 80-180 19.5-291.5h-706q1-104 19-170.5t58-103.5 94-50.5 138-13.5q58 0 146.5 14t148.5 35l37-161q-80-25-181-41.5t-174-16.5q-120 0-207.5 27t-153.5 89.5-99 171-33 265.5zm170 750q0 61 21 78.5t83 17.5q61 0 82-17.5t21-78.5q0-67-21-87t-82-20q-62 0-83 20t-21 87zm39-637h512q-5 111-30 168.5t-72.5 78.5-135.5 21q-143 0-202.5-57t-71.5-211zm372 637q0 61 21 78.5t84 17.5q61 0 81.5-17.5t20.5-78.5q0-67-20.5-87t-81.5-20q-62 0-83.5 20t-21.5 87z"/><glyph unicode="ì" horiz-adv-x="489" d="M-84 1427h221l246-264h-182zm234-1427v1038h192v-1038h-192z"/><glyph unicode="í" horiz-adv-x="489" d="M96 1163l248 264h219l-282-264h-185zm54-1163v1038h192v-1038h-192z"/><glyph unicode="î" horiz-adv-x="489" d="M-106 1163q42 44 124.5 132t124.5 132h199l258-264h-205q-27 29-79 84.5t-76 81.5q-25-28-152-166h-194zm256-1163v1038h192v-1038h-192z"/><glyph unicode="ï" horiz-adv-x="489" d="M-63 1274q0 61 21 78.5t83 17.5q61 0 81.5-17.5t20.5-78.5q0-67-20.5-87t-81.5-20q-62 0-83 20t-21 87zm213-1274v1038h192v-1038h-192zm198 1274q0 61 21 78.5t84 17.5q61 0 81.5-17.5t20.5-78.5q0-67-20.5-87t-81.5-20q-62 0-83.5 20t-21.5 87z"/><glyph unicode="ð" d="M113 442q0 237 115 329.5t411 92.5q107 0 225-16-56 118-170 248l-157-103-84 117 147 94q-82 89-231 223h270q72-65 127-120l139 92 82-117-125-82q307-354 307-739 0-151-24.5-244t-88.5-151-162-79.5-257-21.5q-283 0-403.5 108t-120.5 369zm219-14q0-75 12.5-124t45.5-86.5 93.5-54 153.5-16.5q62 0 102.5 4t79 16 60.5 34.5 39.5 60.5 24.5 93 7 132q0 101-22 179-120 20-275 20-102 0-161.5-10t-97-40.5-50-78-12.5-129.5z"/><glyph unicode="ñ" horiz-adv-x="1163" d="M150 0v981q89 38 216.5 62t237.5 24q115 0 191-22.5t128-78.5 74.5-149 22.5-235v-582h-193v557q0 105-11.5 167t-42.5 100.5-79 51.5-129 13q-119 0-223-29v-860h-192zm67 1251q47 83 97.5 124.5t119.5 41.5q43 0 85-19t69-41.5 62-41.5 67-19q39 0 65 28t52 99l106-84q-70-188-229-188-39 0-79.5 19t-69.5 42.5-66.5 42.5-69.5 19q-67 0-115-115z"/><glyph unicode="ò" horiz-adv-x="1202" d="M117 524q0 158 29 263.5t91 167 149 87 214 25.5q102 0 176.5-16t134.5-53 97-99.5 56-155 19-219.5q0-159-28.5-266t-90-170.5-149-90-215.5-26.5q-127 0-214.5 26.5t-149.5 90-90.5 170.5-28.5 266zm205-4q0-157 26.5-239t84-114 167.5-32q82 0 133 16t85 60 47.5 117.5 13.5 191.5q0 124-13 198t-48 115.5-84.5 55.5-133.5 14q-67 0-110.5-9t-78-32-53-67-27.5-110-9-165zm10 907h221l246-264h-183z"/><glyph unicode="ó" horiz-adv-x="1202" d="M117 524q0 158 29 263.5t91 167 149 87 214 25.5q102 0 176.5-16t134.5-53 97-99.5 56-155 19-219.5q0-159-28.5-266t-90-170.5-149-90-215.5-26.5q-127 0-214.5 26.5t-149.5 90-90.5 170.5-28.5 266zm205-4q0-157 26.5-239t84-114 167.5-32q82 0 133 16t85 60 47.5 117.5 13.5 191.5q0 124-13 198t-48 115.5-84.5 55.5-133.5 14q-67 0-110.5-9t-78-32-53-67-27.5-110-9-165zm102 643l248 264h219l-283-264h-184z"/><glyph unicode="ô" horiz-adv-x="1202" d="M117 524q0 158 29 263.5t91 167 149 87 214 25.5q102 0 176.5-16t134.5-53 97-99.5 56-155 19-219.5q0-159-28.5-266t-90-170.5-149-90-215.5-26.5q-127 0-214.5 26.5t-149.5 90-90.5 170.5-28.5 266zm127 639q42 44 125 132t125 132h198l258-264h-205q-27 29-79 84.5t-76 81.5q-25-28-152-166h-194zm78-643q0-157 26.5-239t84-114 167.5-32q82 0 133 16t85 60 47.5 117.5 13.5 191.5q0 124-13 198t-48 115.5-84.5 55.5-133.5 14q-67 0-110.5-9t-78-32-53-67-27.5-110-9-165z"/><glyph unicode="õ" horiz-adv-x="1202" d="M117 524q0 158 29 263.5t91 167 149 87 214 25.5q102 0 176.5-16t134.5-53 97-99.5 56-155 19-219.5q0-159-28.5-266t-90-170.5-149-90-215.5-26.5q-127 0-214.5 26.5t-149.5 90-90.5 170.5-28.5 266zm119 727q47 83 97.5 124.5t119.5 41.5q43 0 84.5-19t69-41.5 62-41.5 66.5-19q39 0 65 28t52 99l106-84q-70-188-229-188-39 0-79.5 19t-69.5 42.5-66.5 42.5-69.5 19q-33 0-60.5-27t-53.5-88zm86-731q0-157 26.5-239t84-114 167.5-32q82 0 133 16t85 60 47.5 117.5 13.5 191.5q0 124-13 198t-48 115.5-84.5 55.5-133.5 14q-67 0-110.5-9t-78-32-53-67-27.5-110-9-165z"/><glyph unicode="ö" horiz-adv-x="1202" d="M117 524q0 158 29 263.5t91 167 149 87 214 25.5q102 0 176.5-16t134.5-53 97-99.5 56-155 19-219.5q0-159-28.5-266t-90-170.5-149-90-215.5-26.5q-127 0-214.5 26.5t-149.5 90-90.5 170.5-28.5 266zm172 750q0 61 21 78.5t83 17.5q61 0 82-17.5t21-78.5q0-67-21-87t-82-20q-62 0-83 20t-21 87zm33-754q0-157 26.5-239t84-114 167.5-32q82 0 133 16t85 60 47.5 117.5 13.5 191.5q0 124-13 198t-48 115.5-84.5 55.5-133.5 14q-67 0-110.5-9t-78-32-53-67-27.5-110-9-165zm378 754q0 61 21 78.5t84 17.5q61 0 81.5-17.5t20.5-78.5q0-67-20.5-87t-81.5-20q-62 0-83.5 20t-21.5 87z"/><glyph unicode="÷" horiz-adv-x="1232" d="M121 645v182h989v-182h-989zm364-326q0 76 27 98.5t104 22.5q81 0 108.5-22t27.5-99q0-84-27.5-109.5t-108.5-25.5q-76 0-103.5 26t-27.5 109zm0 842q0 78 26.5 100.5t104.5 22.5q82 0 109-22t27-101q0-84-27.5-108.5t-108.5-24.5q-77 0-104 25t-27 108z"/><glyph unicode="ø" horiz-adv-x="1202" d="M61 0l127 150q-71 122-71 374 0 158 29 263.5t91 167 148.5 87 212.5 25.5q205 0 309-70l37 41h197l-129-149q71-122 71-365 0-159-28.5-266t-91-170.5-150-90-215.5-26.5q-194 0-307 70l-37-41h-193zm261 545q0-151 12-219l465 532q-59 45-201 45-82 0-130.5-13t-83-52.5-48-108.5-14.5-184zm81-363q55-47 195-47 164 0 222.5 81.5t58.5 299.5q0 122-11 195z"/><glyph unicode="ù" horiz-adv-x="1163" d="M145 457v581h193v-557q0-139 23.5-208.5t76.5-96 160-26.5q131 0 225 30v858h193v-981q-90-38-218.5-62t-236.5-24q-115 0-191 23t-128 79.5-74.5 149.5-22.5 234zm162 970h221l246-264h-182z"/><glyph unicode="ú" horiz-adv-x="1163" d="M145 457v581h193v-557q0-139 23.5-208.5t76.5-96 160-26.5q131 0 225 30v858h193v-981q-90-38-218.5-62t-236.5-24q-115 0-191 23t-128 79.5-74.5 149.5-22.5 234zm271 706l248 264h219l-283-264h-184z"/><glyph unicode="û" horiz-adv-x="1163" d="M145 457v581h193v-557q0-139 23.5-208.5t76.5-96 160-26.5q131 0 225 30v858h193v-981q-90-38-218.5-62t-236.5-24q-115 0-191 23t-128 79.5-74.5 149.5-22.5 234zm103 706q42 44 125 132t125 132h198l258-264h-204q-26 28-78 83t-78 83q-24-28-152-166h-194z"/><glyph unicode="ü" horiz-adv-x="1163" d="M145 457v581h193v-557q0-139 23.5-208.5t76.5-96 160-26.5q131 0 225 30v858h193v-981q-90-38-218.5-62t-236.5-24q-115 0-191 23t-128 79.5-74.5 149.5-22.5 234zm142 817q0 61 21 78.5t83 17.5q61 0 82-17.5t21-78.5q0-67-21-87t-82-20q-62 0-83 20t-21 87zm411 0q0 61 21 78.5t84 17.5q61 0 81.5-17.5t20.5-78.5q0-67-20.5-87t-81.5-20q-62 0-83.5 20t-21.5 87z"/><glyph unicode="ý" horiz-adv-x="1044" d="M25 1038h206q151-355 289-854 195 486 293 854h201q-135-456-389-1058-84-204-174-373h-220q77 142 168 344-182 658-374 1087zm358 125l248 264h219l-283-264h-184z"/><glyph unicode="þ" horiz-adv-x="1187" d="M150-393v1859h192v-428q129 29 244 29 129 0 216.5-25.5t149-88 89.5-168 28-263.5q0-126-19.5-220t-56-157-93.5-102-128-55.5-164-16.5q-160 0-266 74v-438h-192zm192 659q0-58 70-91.5t174-33.5q109 0 167.5 32.5t85.5 113 27 231.5q0 97-9.5 162t-28 108.5-53.5 66-78.5 31.5-110.5 9q-146 0-244-37v-592z"/><glyph unicode="ÿ" horiz-adv-x="1044" d="M25 1038h206q151-355 289-854 195 486 293 854h201q-135-456-389-1058-84-204-174-373h-220q77 142 168 344-182 658-374 1087zm192 236q0 61 21 78.5t84 17.5q61 0 81.5-17.5t20.5-78.5q0-67-20.5-87t-81.5-20q-62 0-83.5 20t-21.5 87zm412 0q0 61 21 78.5t83 17.5q61 0 82-17.5t21-78.5q0-67-21-87t-82-20q-62 0-83 20t-21 87z"/><glyph unicode="Œ" horiz-adv-x="2260" d="M119 723q0 174 26.5 300.5t77 211 133 135 184.5 71.5 242 21q177 0 295-35h1125v-178h-879q104-131 119-405h442v-174h-440q-6-349-131-492h889v-178h-1149q-113-29-271-29-139 0-241.5 22t-185 73.5-133 138-77 214.5-26.5 304zm225-4q0-118 8.5-202.5t30-148.5 53-103.5 83-64 113.5-33.5 150-9q89 0 151.5 9t114 33.5 83.5 64 54 103.5 31 148.5 9 202.5q0 122-8.5 208t-31 149.5-54 101.5-84 61-114 31-151.5 8-150.5-8-113-31-83-61-52.5-101.5-30.5-149.5-8.5-208z"/><glyph unicode="œ" horiz-adv-x="1882" d="M117 524q0 158 29 263.5t91 167 149 87 214 25.5q144 0 236-36t143-120q106 156 371 156 97 0 166-16t124-55 87-106 47.5-168 13.5-243h-707q1-104 19-170.5t58.5-103.5 94.5-50.5 138-13.5q58 0 145.5 14t149.5 35l34-161q-78-25-179-41.5t-173-16.5q-145 0-238 37.5t-147 128.5q-51-90-143.5-128t-239.5-38q-127 0-214.5 26.5t-149.5 90-90.5 170.5-28.5 266zm205-4q0-157 26.5-239t84-114 167.5-32q82 0 133 16t85 60 47.5 117.5 13.5 191.5q0 124-13 198t-48 115.5-84.5 55.5-133.5 14q-67 0-110.5-9t-78-32-53-67-27.5-110-9-165zm761 117h512q-5 111-30.5 168.5t-73 78.5-135.5 21q-70 0-115.5-11t-80.5-40.5-53-82-24-134.5z"/><glyph unicode="Ÿ" horiz-adv-x="1273" d="M-45 1427h270q221-276 428-585 237 311 414 585h248q-288-423-567-776v-651h-209v651q-305 440-584 776zm387 228q0 61 21 78.5t83 17.5q61 0 82-17.5t21-78.5q0-67-21-87t-82-20q-62 0-83 20t-21 87zm412 0q0 61 21 78.5t83 17.5q61 0 82-17.5t21-78.5q0-67-21-87t-82-20q-62 0-83 20t-21 87z"/><glyph unicode="ˆ" horiz-adv-x="1372" d="M354 1163q42 44 125 132t125 132h199l258-264h-205q-26 28-78 83t-78 83q-37-43-151-166h-195z"/><glyph unicode="˜" horiz-adv-x="1478" d="M293 1251q47 83 97.5 124.5t119.5 41.5q43 0 85-19t69-41.5 62-41.5 67-19q39 0 64.5 28t51.5 99l107-84q-70-188-230-188-39 0-79.5 19t-69 42.5-66 42.5-69.5 19q-67 0-115-115z"/><glyph horiz-adv-x="903"/><glyph horiz-adv-x="1806"/><glyph horiz-adv-x="903"/><glyph horiz-adv-x="1806"/><glyph horiz-adv-x="602"/><glyph horiz-adv-x="451"/><glyph horiz-adv-x="301"/><glyph horiz-adv-x="301"/><glyph horiz-adv-x="225"/><glyph horiz-adv-x="361"/><glyph horiz-adv-x="100"/><glyph unicode="‐" horiz-adv-x="593" d="M63 479v183h467v-183h-467z"/><glyph unicode="‑" horiz-adv-x="593" d="M63 479v183h467v-183h-467z"/><glyph unicode="‒" horiz-adv-x="593" d="M63 479v183h467v-183h-467z"/><glyph unicode="–" horiz-adv-x="1148" d="M104 479v183h940v-183h-940z"/><glyph unicode="—" horiz-adv-x="1742" d="M104 479v183h1534v-183h-1534z"/><glyph unicode="‘" horiz-adv-x="483" d="M49 1034l223 531h164l-160-531h-227z"/><glyph unicode="’" horiz-adv-x="481" d="M47 1028l160 533h227l-223-533h-164z"/><glyph unicode="‚" horiz-adv-x="471" d="M41-326l160 531h227l-223-531h-164z"/><glyph unicode="“" horiz-adv-x="845" d="M49 1034l223 531h164l-160-531h-227zm365 0l223 531h164l-160-531h-227z"/><glyph unicode="”" horiz-adv-x="845" d="M47 1030l160 531h227l-223-531h-164zm365 0l159 531h228l-224-531h-163z"/><glyph unicode="„" horiz-adv-x="845" d="M47-332l160 533h227l-223-533h-164zm365 0l159 533h228l-224-533h-163z"/><glyph unicode="•" horiz-adv-x="1202" d="M117 668q0 127 19.5 219.5t56.5 154.5 97 99.5 134.5 53 175.5 15.5q128 0 214.5-25t149-86.5 91-167 28.5-263.5q0-159-28.5-266t-90-170.5-149-90-215.5-26.5q-127 0-214.5 26.5t-149.5 90-90.5 170.5-28.5 266z"/><glyph unicode="…" horiz-adv-x="2408" d="M350 129q0 76 28 99.5t105 23.5q80 0 107.5-23t27.5-100q0-83-27.5-108t-107.5-25q-77 0-105 25t-28 108zm719 0q0 76 28 99.5t105 23.5q80 0 107.5-23t27.5-100q0-83-27.5-108t-107.5-25q-77 0-105 25t-28 108zm721 0q0 76 27.5 99.5t103.5 23.5q81 0 108-23t27-100q0-84-27-108.5t-108-24.5q-76 0-103.5 25t-27.5 108z"/><glyph horiz-adv-x="361"/><glyph unicode="‹" horiz-adv-x="786" d="M61 625l551 561 115-119-403-436 403-447-111-121z"/><glyph unicode="›" horiz-adv-x="786" d="M63 184l404 437-404 446 111 121 553-563-551-559z"/><glyph horiz-adv-x="451"/><glyph unicode="€" horiz-adv-x="1222" d="M119 727q0 175 26.5 301t76.5 210 132 133.5 184 70 242 20.5q96 0 209-15t195-38l-51-186q-59 22-152.5 35.5t-175.5 13.5q-83 0-141-6t-111-24-87.5-49.5-60-82-38.5-123.5h544v-149h-567v-224h567v-147h-544q17-94 49.5-153.5t89-92.5 125.5-45 174-12q81 0 174.5 13t153.5 34l51-186q-82-24-194-39t-210-15q-174 0-293.5 36.5t-204.5 123-124 233-39 363.5z"/><glyph unicode="™" horiz-adv-x="1589" d="M23 1300v127h598v-127h-224v-595h-149v595h-225zm677-595v722h205l189-548 182 548h197v-722h-140v567l-184-553h-133l-178 553v-567h-138z"/><glyph unicode="◼" horiz-adv-x="1034" d="M0 0v1034h1034v-1034h-1034z"/></font>
</defs>
</svg>
