<svg xmlns="http://www.w3.org/2000/svg"><defs><font horiz-adv-x="1204"><font-face units-per-em="2048" ascent="1638" descent="-410"/><glyph unicode="ﬁ" horiz-adv-x="1216" d="M10 821v221h174v62q0 90 24 157t65.5 109 105 67.5 134 35.5 161.5 10q208 0 387-64l-60-198q-133 45-294 45-136 0-202.5-36.5t-66.5-139.5v-48h637v-1042h-254v821h-383v-821h-254v821h-174z"/><glyph unicode="ﬂ" horiz-adv-x="1226" d="M10 821v221h174v62q0 91 23 158t62.5 109 100 67.5 127 35 152.5 9.5q213 0 426-64v-1126q0-152 80-246-38-15-112.5-47t-112.5-47q-109 121-109 330v960q-94 23-176 23-103 0-155-37t-52-139v-48h277v-221h-277v-821h-254v821h-174z"/><glyph unicode="ﬃ" horiz-adv-x="1853" d="M10 821v221h174v62q0 90 22.5 158t60 109.5 92.5 67 113 35 130 9.5q172 0 365-70 116 70 344 70 208 0 387-64l-60-198q-133 45-295 45-136 0-202-36.5t-66-139.5v-48h637v-1042h-254v821h-383v-821h-254v821h-383v-821h-254v821h-174zm428 221h383v62q0 76 21 131-98 31-197 31-107 0-157-37t-50-139v-48z"/><glyph unicode="ﬄ" horiz-adv-x="1865" d="M10 821v221h174v62q0 90 22.5 158t60 109.5 92.5 67 113 35 130 9.5q189 0 361-68 109 68 323 68 213 0 426-64v-1126q0-152 80-246-38-15-112.5-47t-112.5-47q-109 121-109 330v960q-94 23-176 23-102 0-154.5-38t-52.5-138v-48h277v-221h-277v-821h-254v821h-383v-821h-254v821h-174zm428 221h383v62q0 78 21 131-109 31-197 31-115 0-161-43t-46-154v-27z"/><glyph horiz-adv-x="0"/><glyph horiz-adv-x="682"/><glyph horiz-adv-x="544"/><glyph horiz-adv-x="544"/><glyph horiz-adv-x="544"/><glyph unicode="!" horiz-adv-x="679" d="M180 150q0 90 33 116.5t127 26.5q97 0 130.5-26.5t33.5-116.5q0-98-34-129t-130-31q-93 0-126.5 31t-33.5 129zm2 1277h314l-64-970h-186z"/><glyph unicode=""" horiz-adv-x="757" d="M92 1427h230l-39-491h-168zm350 0h224l-39-491h-166z"/><glyph unicode="#" horiz-adv-x="1458" d="M51 362l15 203h260l20 326h-264l14 205h264l21 331h237l-22-331h283l22 331h236l-21-331h281l-15-205h-280l-21-326h285l-14-203h-283l-25-362h-235l22 362h-282l-23-362h-237l24 362h-262zm510 203h283l22 326h-282z"/><glyph unicode="$" horiz-adv-x="1273" d="M127 971q0 196 104 298.5t314 127.5v293h180v-283q231-3 387-55l-59-226q-48 20-141.5 33t-186.5 15v-351q212-30 315-124t103-269q0-197-102-294.5t-316-119.5v-297h-180v291q-247 4-400 53l60 228q117-41 340-49v368q-209 24-313.5 108.5t-104.5 252.5zm252 28q0-70 35-103t131-48v317q-84-14-125-53.5t-41-112.5zm346-749q83 14 124.5 53t41.5 113q0 73-35 111.5t-131 56.5v-334z"/><glyph unicode="%" horiz-adv-x="1964" d="M72 1006q0 109 13.5 186.5t41 130 73 83 104 43.5 140.5 13q103 0 170.5-20.5t114.5-72 67.5-139.5 20.5-224q0-137-20.5-228t-67.5-146-115-77.5-170-22.5q-136 0-215 42.5t-118 146-39 285.5zm223-2q0-120 14.5-181.5t45-84.5 89.5-23q60 0 90.5 23t44 84 13.5 182-14 179.5-43.5 78.5-90.5 20q-60 0-90-19.5t-44.5-79-14.5-179.5zm125-1004l876 1427h240l-879-1427h-237zm727 444q0 135 20.5 223t67.5 139.5 114.5 72 170.5 20.5 170-20.5 114-72 67.5-139.5 20.5-223q0-183-39-286.5t-117.5-145-215.5-41.5-215.5 41.5-118 145-39.5 286.5zm223-2q0-121 14.5-183t45.5-84.5 90-22.5q60 0 90 23t43.5 84 13.5 183q0 121-13.5 179.5t-43 78-90.5 19.5-90.5-19-44.5-78.5-15-179.5z"/><glyph unicode="&" horiz-adv-x="1630" d="M102 373q0 351 383 368-75 6-128 26t-84 47.5-48.5 72-22.5 88-5 106.5q0 97 23.5 165t79.5 118 152.5 74 239.5 24q186 0 295-38t155-115 46-205q0-153-73.5-239.5t-254.5-100.5q144-13 342-258 84 139 84 305h273q0-131-51-259t-144-237q59-75 221-315h-307q-64 102-100 154-130-96-251.5-139.5t-285.5-43.5q-296 0-417.5 88t-121.5 314zm287 39q0-124 53-171.5t199-47.5q128 0 215.5 31.5t181.5 111.5q-114 155-206 231t-179 76q-138 0-201-54t-63-177zm80 643q0-109 48-155t163-46q118 0 176.5 46.5t58.5 152.5q0 104-50.5 144t-172.5 40q-124 0-173.5-39t-49.5-143z"/><glyph unicode="'" horiz-adv-x="413" d="M92 1427h230l-39-491h-168z"/><glyph unicode="(" horiz-adv-x="620" d="M139 510q0 190 23 348t63 273 98 203 123.5 144 143.5 91l117-191q-67-32-117.5-89.5t-93.5-156-65.5-255.5-22.5-367q0-168 15.5-303t41.5-228 65-162 81.5-109.5 95.5-65.5l-117-191q-78 35-143.5 91t-123.5 144-98 203-63 273-23 348z"/><glyph unicode=")" horiz-adv-x="620" d="M-88-358q67 32 117.5 89.5t93.5 156 65.5 255.5 22.5 367q0 168-15.5 303t-41.5 228-65 162-81.5 109.5-95.5 65.5l119 191q450-202 450-1059t-450-1059z"/><glyph unicode="*" horiz-adv-x="1011" d="M61 981v205h265l-133 231 182 103 131-230 131 230 182-103-135-231h266v-205h-266l133-231-180-101-131 225-131-225-182 103 133 229h-265z"/><glyph unicode="+" horiz-adv-x="1191" d="M98 621v241h375v377h244v-377h377v-241h-377v-377h-244v377h-375z"/><glyph unicode="," horiz-adv-x="583" d="M20-326l160 537h303l-235-537h-228z"/><glyph unicode="-" horiz-adv-x="622" d="M59 455v241h504v-241h-504z"/><glyph unicode="." horiz-adv-x="583" d="M131 150q0 90 32.5 116.5t125.5 26.5q98 0 131-26t33-117q0-99-33.5-129.5t-130.5-30.5q-92 0-125 31t-33 129z"/><glyph unicode="/" horiz-adv-x="956" d="M31 0l729 1427h274l-729-1427h-274z"/><glyph unicode="0" horiz-adv-x="1282" d="M104 733q0 172 22.5 297.5t64 208.5 109 132.5 149 70 192.5 20.5 192.5-20.5 149-70 109-132.5 64-208.5 22.5-297.5q0-175-22-304.5t-64-217-108.5-141-149.5-76.5-193-23q-138 0-234.5 37t-166 124-103 235-33.5 366zm271 0q0-132 8-219.5t25-148 49.5-92.5 75-45 108.5-13q110 0 165 41t79 149.5 24 327.5q0 111-5 187t-18 132-31.5 88.5-51 51.5-69 25-93.5 6q-56 0-92.5-6t-69-25-50.5-51.5-31-88.5-18-132.5-5-186.5z"/><glyph unicode="1" horiz-adv-x="1282" d="M180 1223l660 264v-1487h-265v1139l-319-138z"/><glyph unicode="2" horiz-adv-x="1282" d="M96 0v217q145 111 236.5 181.5t179 142 135 113 90.5 88.5 60.5 74 31.5 65 16.5 66.5 2.5 72.5q0 115-58 157t-206 42q-95 0-203.5-16.5t-171.5-39.5l-57 234q209 65 454 65 138 0 232.5-19.5t163.5-66.5 101-129 32-205q0-77-9-133t-37-117-71.5-113-123-122.5-179.5-144.5-252-179h670v-233h-1037z"/><glyph unicode="3" horiz-adv-x="1282" d="M102 23l52 233q67-19 170.5-30t193.5-11q137 0 209 20.5t98.5 63 26.5 123.5q0 120-57 166.5t-197 46.5h-203v229h197q132 0 185.5 40t53.5 143q0 68-24.5 103.5t-90.5 53-192 17.5q-86 0-191-12.5t-167-32.5l-53 233q241 53 462 53 205 0 323-38t168-116 50-210q0-76-12.5-130.5t-44.5-101.5-93.5-74.5-154.5-35.5q79-4 138-23t96.5-50.5 60-78 31-99 8.5-120.5q0-229-132.5-321.5t-441.5-92.5q-238 0-469 52z"/><glyph unicode="4" horiz-adv-x="1273" d="M35 367v84q133 237 304 514.5t306 461.5h361v-837h190v-223h-190v-367h-258v367h-713zm327 223h386v604q-93-122-204-299t-182-305z"/><glyph unicode="5" horiz-adv-x="1282" d="M131 23l53 233q134-41 351-41 134 0 201 19t92.5 62 25.5 130q0 47-4.5 79t-17 59-33.5 43.5-56 27.5-82 15.5-114 4.5q-201 0-350-28v800h884v-233h-628v-317q106 8 170 8 201 0 315-46t161.5-140.5 47.5-258.5q0-137-29.5-226t-98.5-144-172.5-77-260.5-22q-102 0-233.5 15t-221.5 37z"/><glyph unicode="6" horiz-adv-x="1282" d="M111 725q0 147 15 257.5t49.5 193 84 137 124 88 163.5 47.5 209 14q210 0 395-55l-59-238q-126 48-336 48-71 0-121-8t-96-30.5-74.5-61.5-46-102.5-19.5-152.5q135 23 271 23 201 0 316-46t163.5-140.5 48.5-258.5q0-137-28-226t-94-144-164.5-77-249.5-22q-104 0-182 15t-141 51-105 92-70 141-40.5 196-12.5 259zm284-90q2-106 13.5-180.5t31.5-121.5 53.5-73 72.5-35.5 96-9.5q105 0 159.5 21.5t74 64.5 19.5 125q0 64-10 104.5t-38 70-78 42-130 12.5q-128 0-264-20z"/><glyph unicode="7" horiz-adv-x="1282" d="M137 1194v233h1096v-81q-142-227-331-637.5t-288-708.5h-305q121 331 280.5 673.5t284.5 520.5h-737z"/><glyph unicode="8" horiz-adv-x="1282" d="M104 385q0 68 8.5 120.5t31 99.5 59.5 78 96 50 139 23q-75 7-129.5 27t-88 48.5-52.5 72-26 88.5-7 106q0 97 23.5 162.5t80.5 112.5 155.5 68 246.5 21 246.5-21 155.5-68 80.5-112.5 23.5-162.5q0-61-7-106t-26-88.5-52.5-72-88-48.5-129.5-27q80-4 139-23t96-50 59.5-78 31-99.5 8.5-120.5q0-228-121.5-321t-415.5-93q-293 0-415 93t-122 321zm283 27q0-124 54-171.5t200-47.5q147 0 201.5 47.5t54.5 171.5q0 126-57.5 178.5t-198.5 52.5-197.5-52.5-56.5-178.5zm21 643q0-108 54.5-154.5t178.5-46.5 177.5 46.5 53.5 154.5q0 104-51 143t-180 39q-131 0-182-39t-51-143z"/><glyph unicode="9" horiz-adv-x="1282" d="M104 979q0 270 120 376.5t417 106.5q166 0 267.5-22t165.5-80.5 88-150 24-240.5q0-119-27-233t-71-209-111-191.5-135.5-173.5-155.5-162h-336q342 324 461 559-82-10-178-10-153 0-252.5 22t-162 74-88.5 132-26 202zm283 12q0-69 10-108t42-64 83-33 140-8q119 0 221 15 18 71 18 147 0 63-5 107t-19 76-32 50.5-49.5 29.5-66.5 14.5-88 3.5q-104 0-160-25.5t-75-72.5-19-132z"/><glyph unicode=":" horiz-adv-x="583" d="M131 150q0 90 32.5 116.5t125.5 26.5q98 0 131-26t33-117q0-99-33.5-129.5t-130.5-30.5q-92 0-125 31t-33 129zm0 759q0 92 32.5 119t125.5 27q98 0 131-27t33-119q0-98-33.5-127.5t-130.5-29.5q-93 0-125.5 29.5t-32.5 127.5z"/><glyph unicode=";" horiz-adv-x="583" d="M20-326l160 537h303l-235-537h-228zm111 1235q0 92 32.5 119t125.5 27q98 0 131-27t33-119q0-98-33.5-127.5t-130.5-29.5q-93 0-125.5 29.5t-32.5 127.5z"/><glyph unicode="<" horiz-adv-x="1191" d="M172 676v125l746 581 137-180-549-461 549-465-133-184z"/><glyph unicode="=" horiz-adv-x="1191" d="M98 344v242h996v-242h-996zm0 547v242h996v-242h-996z"/><glyph unicode=">" horiz-adv-x="1191" d="M174 274l549 461-549 467 133 182 748-583v-125l-746-582z"/><glyph unicode="?" horiz-adv-x="1009" d="M55 1411q68 21 177 36t194 15q281 0 405.5-101.5t124.5-311.5q0-163-85-305t-257-304h-266q161 172 232 305.5t71 292.5q0 90-55 134.5t-193 44.5q-184 0-292-43zm269-1261q0 90 32 116.5t125 26.5q98 0 131-26t33-117q0-98-33.5-128t-130.5-30q-93 0-125 30t-32 128z"/><glyph unicode="@" horiz-adv-x="1923" d="M111 545q0 177 34 307t94.5 214 157 135 209.5 71 264 20q100 0 169.5-8.5t132-31 101-62 67.5-103.5 41-153 12-211q0-116-9-198t-32-142-54.5-95.5-86.5-57-117.5-28.5-155.5-7q-98 0-165 10t-117.5 32.5-79.5 63.5-42.5 98.5-13.5 141.5q0 87 14 146.5t41 98 75 59.5 106 28.5 145 7.5q156 0 256-21-1 88-26 134.5t-83.5 66.5-168.5 20q-81 0-140.5-4t-114.5-15-92.5-29-70.5-47-53-68-34-93.5-20-121.5-6-154q0-117 11-200t40.5-147 72.5-102.5 115-63 160-33.5 214-9q188 0 303 26.5t189 99 102 189 28 307.5q0 265-45 383h231q41-137 41-391 0-192-32-331t-95-235-167-153.5-237-82.5-316-25q-186 0-319 22t-238 73.5-168 139.5-95 218-32 311zm657 4q0-96 40-128t159-32q108 0 149 41t41 160v96q-74 14-192 14t-157.5-27.5-39.5-123.5z"/><glyph unicode="A" horiz-adv-x="1396" d="M-18 0q99 316 241.5 709.5t274.5 717.5h424q112-354 254.5-751t259.5-676h-299q-96 238-138 356h-624q-52-160-111-356h-282zm464 588h476q-113 322-199 610h-55q-100-256-222-610z"/><glyph unicode="B" horiz-adv-x="1458" d="M180 0v1427h768q104 0 174.5-23t108-70.5 52.5-106 15-142.5q0-61-6-104.5t-24.5-85-51-68.5-86.5-45.5-129-25.5q99-4 165.5-31t101-77.5 48-110.5 13.5-146q0-204-94.5-297.5t-273.5-93.5h-781zm271 227h450q137 0 137 201 0 211-145 211h-442v-412zm0 631h438q123 0 123 172 0 88-27.5 128t-95.5 40h-438v-340z"/><glyph unicode="C" horiz-adv-x="1212" d="M109 727q0 174 27 300.5t77.5 210.5 134 133.5 186.5 70 244 20.5q98 0 212-15t198-38l-60-238q-55 20-142.5 33t-160.5 13q-85 0-140.5-6t-108-24.5-83-51.5-54-88-33-133.5-9.5-188.5 9.5-189.5 33-136 54.5-91.5 82.5-55 108.5-27 140-7q74 0 161.5 12.5t141.5 32.5l60-241q-83-23-197-37.5t-213-14.5q-140 0-244 23t-186.5 75.5-134 140-78 215.5-26.5 302z"/><glyph unicode="D" horiz-adv-x="1507" d="M180 0v1427h545q141 0 244.5-20.5t187.5-69 136-129.5 79-202 27-287q0-165-27-287t-79-205-135.5-133.5-188-72-244.5-21.5h-545zm271 233h247q99 0 164.5 12t116 42 77.5 86 40.5 138.5 13.5 205.5q0 107-8 181.5t-29.5 128.5-50 86-78.5 50.5-105.5 24.5-140.5 6h-247v-961z"/><glyph unicode="E" horiz-adv-x="1269" d="M180 0v1427h1037v-233h-766v-330h546v-231h-546v-400h766v-233h-1037z"/><glyph unicode="F" horiz-adv-x="1196" d="M180 0v1427h1016v-233h-745v-403h546v-232h-546v-559h-271z"/><glyph unicode="G" horiz-adv-x="1433" d="M109 727q0 145 19.5 257t61 193 98.5 136.5 139 88 175.5 46.5 214.5 14q99 0 223.5-15t206.5-38l-55-235q-53 19-163 31t-191 12q-88 0-146-6t-112-24.5-85-51.5-55-88-33.5-133.5-9.5-188.5 9.5-189.5 33-136.5 54.5-92 82.5-55.5 108.5-27.5 140-7q95 0 185 21v368h-312v228h588v-801q-86-27-233-44.5t-275-17.5q-140 0-244 23t-186.5 75.5-134 140-78 215.5-26.5 302z"/><glyph unicode="H" horiz-adv-x="1507" d="M180 0v1427h271v-544h610v544h266v-1427h-266v633h-610v-633h-271z"/><glyph unicode="I" horiz-adv-x="630" d="M180 0v1427h271v-1427h-271z"/><glyph unicode="J" horiz-adv-x="944" d="M12 27l54 241q108-43 243-43 86 0 136.5 45t50.5 158v999h272l2-1034q0-99-25-174.5t-65-121.5-98-75-117-40-129-11q-171 0-324 56z"/><glyph unicode="K" horiz-adv-x="1355" d="M180 0v1427h271v-1427h-271zm273 754q75 54 229.5 235.5t327.5 437.5h327q-179-252-326.5-427t-211.5-228q68-45 230-250t353-522h-331q-198 327-362.5 526.5t-235.5 227.5z"/><glyph unicode="L" horiz-adv-x="1128" d="M180 0v1427h271v-1191h673v-236h-944z"/><glyph unicode="M" horiz-adv-x="1875" d="M180 0v1427h369q205-423 401-913 166 439 396 913h350v-1427h-264v1063q-173-382-398-932h-211q-272 689-383 932v-1063h-260z"/><glyph unicode="N" horiz-adv-x="1585" d="M180 0v1427h355q313-492 600-1030v1030h268v-1427h-330q-298 549-629 1075v-1075h-264z"/><glyph unicode="O" horiz-adv-x="1576" d="M109 727q0 173 28 299t80 210 137 134 189 71 245 21 245-21 188.5-71 137-134 80-210 27.5-299q0-219-41-366.5t-129-233-209.5-121-298.5-35.5q-141 0-246 22t-189 74-136.5 139-80 216-27.5 305zm288-4q0-111 7-187.5t25.5-135 45.5-93 73-56 102-29 138-7.5 138 7.5 102.5 29 73.5 56 45.5 93 25.5 135 7 187.5-7 187-26 133.5-45.5 90-73.5 52.5-101.5 26.5-138.5 6.5-138.5-6.5-101.5-26.5-73.5-52.5-45.5-90-25.5-133.5-6.5-187z"/><glyph unicode="P" horiz-adv-x="1378" d="M180 0v1427h744q397 0 397-489 0-95-23-177t-69-148-123-104-176-38h-479v-471h-271zm271 696h397q85 0 130.5 61.5t45.5 182.5q0 258-170 258h-403v-502z"/><glyph unicode="Q" horiz-adv-x="1603" d="M123 727q0 173 27.5 299t80 210 137 134 188.5 71 245 21 245-21 189-71 137.5-134 80.5-210 28-299q0-331-98-494t-302-202q145-40 424-424h-315q-113 173-216 264.5t-177 99.5q-140 0-244 22.5t-187.5 75-135.5 139.5-79.5 215.5-27.5 303.5zm289-4q0-111 6.5-187.5t25-135 45-93 73-56 102-29 137.5-7.5q83 0 139 7.5t102.5 29 73.5 56 45.5 93 25.5 135 7 187.5q0 83-3.5 145.5t-13.5 114-24 87.5-37.5 63-51 43-69 26-86.5 13.5-108 3.5q-84 0-138.5-6.5t-101-26.5-72.5-52.5-45-90-25.5-133.5-6.5-187z"/><glyph unicode="R" horiz-adv-x="1445" d="M180 0v1427h744q109 0 188.5-32t123.5-90.5 64.5-130.5 20.5-162q0-81-19-147t-61-121-117-87-178-36q73-26 181-166.5t296-454.5h-333q-164 288-271.5 416.5t-177.5 128.5h-190v-545h-271zm271 768h403q79 0 122.5 53t43.5 156q0 110-41.5 165.5t-118.5 55.5h-409v-430z"/><glyph unicode="S" horiz-adv-x="1273" d="M100 997q0 246 151 355.5t458 109.5q244 0 436-63l-60-234q-61 22-166 37t-210 15q-173 0-247.5-42t-74.5-145q0-58 24-91t92-56 197-35q251-26 365.5-126.5t114.5-301.5q0-245-149-347t-468-102q-255 0-444 64l59 233q69-22 174-36.5t207-14.5q176 0 253 41t77 148q0 34-7.5 59t-28.5 49-57 40.5-94 29.5-139 20q-244 24-353.5 112t-109.5 281z"/><glyph unicode="T" horiz-adv-x="1247" d="M6 1194v233h1235v-233h-481v-1194h-273v1194h-481z"/><glyph unicode="U" horiz-adv-x="1519" d="M160 432v995h272v-954q0-142 72.5-198t255.5-56q179 0 254.5 54t75.5 200v954h268l2-995q0-111-27.5-192t-75.5-132.5-125-82-165.5-42.5-206.5-12-206.5 12-165.5 42.5-125 82-75.5 132.5-27.5 192z"/><glyph unicode="V" horiz-adv-x="1327" d="M-39 1427h299q100-242 216-568t192-585q199 491 393 1153h285q-97-316-241.5-709.5t-281.5-717.5h-346q-110 358-252.5 755.5t-263.5 671.5z"/><glyph unicode="W" horiz-adv-x="1996" d="M-4 1427h295q168-504 307-1091 211 701 287 1091h250q218-777 280-1091 169 526 297 1091h279q-78-319-192.5-713t-221.5-714h-344q-79 423-223 979-76-373-262-979h-342q-227 912-410 1427z"/><glyph unicode="X" horiz-adv-x="1380" d="M-8 0q202 252 545 721-329 442-537 706h346q175-224 359-471 186 259 327 471h332q-183-269-494-700 385-535 516-727h-335q-187 269-349 494-279-369-378-494h-332z"/><glyph unicode="Y" horiz-adv-x="1306" d="M-78 1427h352q196-246 398-544 243 328 377 544h327q-278-416-575-811v-616h-271v614q-363 515-608 813z"/><glyph unicode="Z" horiz-adv-x="1271" d="M35 0v66q367 498 782 1128h-737v233h1157v-61q-165-266-395.5-602t-386.5-531h768v-233h-1188z"/><glyph unicode="[" horiz-adv-x="698" d="M184-532v2078h553v-221h-288v-1638h288v-219h-553z"/><glyph unicode="\" horiz-adv-x="956" d="M-59 1427h274l729-1427h-274z"/><glyph unicode="]" horiz-adv-x="698" d="M-39-313h289v1638h-289v221h553v-2078h-553v219z"/><glyph unicode="^" horiz-adv-x="1087" d="M27 606l393 821h244l397-821h-275l-247 545-244-545h-268z"/><glyph unicode="_" horiz-adv-x="962" d="M59-98h844v-242h-844v242z"/><glyph unicode="`" horiz-adv-x="985" d="M190 1427h271l250-264h-226z"/><glyph unicode="a" horiz-adv-x="1146" d="M100 319q0 87 20 149t53.5 99.5 87.5 59 111.5 28.5 137.5 7q116 0 258-29 0 72-9.5 113t-39.5 68-78.5 36.5-132.5 9.5q-174 0-315-51l-48 209q207 55 416 55 120 0 201.5-19.5t139-66 84-125 26.5-194.5v-615q-96-37-227.5-59.5t-243.5-22.5q-251 0-346 73t-95 275zm267 11q0-104 37-134t155-30q106 0 209 35v260q-85 18-207 18-59 0-91.5-4.5t-58-20-35-45-9.5-79.5z"/><glyph unicode="b" d="M141 47v1432h254v-475q112 69 271 69 112 0 190-26t134-88 82-168 26-263q0-160-29-267.5t-92.5-171.5-154.5-91-224-27q-115 0-244 21.5t-213 54.5zm254 166q85-33 203-33 58 0 94.5 7.5t67 28 46.5 59.5 24 99 8 150q0 130-22.5 200t-72 98-141.5 28q-88 0-147.5-27t-59.5-71v-539z"/><glyph unicode="c" horiz-adv-x="962" d="M104 526q0 156 35.5 264.5t106 169.5 161 87 214.5 26q77 0 168.5-14t148.5-35l-57-217q-119 45-242 45-76 0-121.5-11t-82.5-45-52.5-100.5-15.5-173.5q0-82 11-140t31-95 55-58 75.5-28.5 99.5-7.5q122 0 242 49l57-217q-60-24-150.5-39t-166.5-15q-124 0-215.5 27t-161 89.5-105 172-35.5 266.5z"/><glyph unicode="d" d="M104 522q0 125 20.5 219.5t58 157 94.5 102 125 56 155 16.5q145 0 250-59v465h254v-1432q-84-33-212.5-54.5t-242.5-21.5q-134 0-224.5 26t-154.5 89-93.5 169.5-29.5 266.5zm263 4q0-143 23.5-215.5t72-97.5 143.5-25q110 0 201 31v539q0 45-58.5 72.5t-146.5 27.5q-135 0-185-69.5t-50-262.5z"/><glyph unicode="e" horiz-adv-x="1130" d="M104 526q0 154 32.5 261.5t97.5 169.5 151.5 89 204.5 27q104 0 176.5-16t130.5-56 90.5-110 46.5-177q11-80 11-184 0-36-1-75h-673q1-83 17-136t51.5-82 82-40 119.5-11q58 0 146 12.5t147 30.5l41-200q-76-26-180-42t-185-16q-118 0-207 27t-158 89-105 172-36 267zm269 123h438q-6 134-50 178.5t-157 44.5q-120 0-169.5-47t-61.5-176z"/><glyph unicode="f" horiz-adv-x="770" d="M10 821v221h174v70q0 88 20 154.5t53.5 107 84 65.5 103 34.5 118.5 9.5q154 0 287-45l-57-201q-89 29-189 29-82 0-124-37t-42-131v-56h338v-221h-338v-821h-254v821h-174z"/><glyph unicode="g" d="M104 518q0 128 19.5 221.5t57.5 158 100 103 140.5 55.5 184.5 17q114 0 243-21.5t212-56.5v-915q0-120-27-208.5t-73.5-143.5-119-88-152.5-45.5-185-12.5q-89 0-194 18t-173 44l51 204q158-51 314-51 154 0 229.5 54t75.5 192q-111-68-264-68-112 0-190.5 25.5t-136 86.5-85 167.5-27.5 263.5zm263 2q0-132 22-201t70.5-96.5 140.5-27.5q88 0 147.5 26t59.5 72v536q-90 35-201 35-72 0-114-12t-72.5-49-41.5-104-11-179z"/><glyph unicode="h" horiz-adv-x="1193" d="M141 0v1479h254v-478q57 30 135 51t152 21q97 0 162.5-19.5t116.5-70.5 74.5-145.5 23.5-237.5v-600h-254v580q0 136-45.5 200t-163.5 64q-83 0-142-24.5t-59-67.5v-752h-254z"/><glyph unicode="i" horiz-adv-x="536" d="M123 1352q0 79 29.5 102t117.5 23q87 0 116.5-23t29.5-102q0-88-30-115t-116-27q-87 0-117 27t-30 115zm18-1352v1042h254v-1042h-254z"/><glyph unicode="j" horiz-adv-x="536" d="M-33-205q91 0 132.5 38t41.5 138v1071h254v-1065q0-115-26-191.5t-82-121-132-62.5-188-18v211zm156 1557q0 79 29.5 102t117.5 23q87 0 116.5-23t29.5-102q0-88-30-115t-116-27q-87 0-117 27t-30 115z"/><glyph unicode="k" horiz-adv-x="1128" d="M141 0v1479h254v-1479h-254zm254 551q101 84 404 491h301q-140-188-247-312.5t-153-160.5q44-28 159.5-177.5t270.5-391.5h-299q-356 516-436 551z"/><glyph unicode="l" horiz-adv-x="548" d="M141 283v1196h254v-1186q0-75 18.5-132t61.5-114l-223-96q-111 126-111 332z"/><glyph unicode="m" horiz-adv-x="1804" d="M141 0v983q101 39 232 64.5t250 25.5q176 0 266-69 190 69 371 69 151 0 238-44.5t129-151.5 42-295v-582h-254v555q0 174-41.5 231.5t-167.5 57.5q-103 0-202-29 28-95 28-233v-582h-254v555q0 174-41.5 231.5t-167.5 57.5q-83 0-174-25v-819h-254z"/><glyph unicode="n" horiz-adv-x="1193" d="M141 0v983q99 38 236.5 64t257.5 26q151 0 241.5-44.5t136.5-152.5 46-294v-582h-254v555q0 174-44 231.5t-179 57.5q-92 0-187-25v-819h-254z"/><glyph unicode="o" d="M104 526q0 127 20.5 220.5t59 156 100 100.5 138 54 178.5 16q104 0 181-16t139-54 100.5-100.5 59-156 20.5-220.5q0-159-30-267t-94.5-171.5-154.5-90-221-26.5q-129 0-218.5 26.5t-153.5 90-94 171.5-30 267zm263-4q0-110 11-176t39.5-105 70.5-52 112-13q72 0 114.5 13t72 52 40.5 105 11 176q0 91-8 151t-23 99.5-45 60-67 28-95 7.5q-57 0-93-7.5t-65.5-28-44.5-60-22.5-99.5-7.5-151z"/><glyph unicode="p" d="M141-393v1388q83 35 212 56.5t245 21.5q133 0 224-26.5t154.5-89.5 92.5-169.5 29-265.5q0-125-20.5-220t-58-157.5-95-101.5-125-55.5-154.5-16.5q-132 0-250 60v-424h-254zm254 680q0-45 59-73t146-28q92 0 142 29t73 100 23 201q0 87-8 145.5t-24 97-46 59-67.5 28.5-94.5 8q-121 0-203-31v-536z"/><glyph unicode="q" d="M104 518q0 128 19.5 221.5t57.5 158 100 103 140.5 55.5 184.5 17q114 0 243-21.5t212-56.5v-1388h-254v434q-114-70-270-70-113 0-190.5 26t-133.5 88-82.5 168.5-26.5 264.5zm263 2q0-132 22-201t70.5-96.5 140.5-27.5q88 0 147.5 26t59.5 72v536q-90 35-201 35-72 0-114-12t-72.5-49-41.5-104-11-179z"/><glyph unicode="r" horiz-adv-x="776" d="M141 0v1042h254v-77q70 108 267 108 50 0 106-6v-242q-69 15-133 15-101 0-170.5-31t-69.5-86v-723h-254z"/><glyph unicode="s" horiz-adv-x="1005" d="M92 727q0 99 32 167.5t93.5 107 139.5 55 182 16.5q181 0 350-57l-55-199q-149 49-304 49-104 0-146-22.5t-42-98.5q0-54 44-77t171-35q194-21 278.5-91t84.5-223q0-99-31.5-168t-93-107.5-139.5-55.5-183-17q-88 0-195 15.5t-178 40.5l54 200q58-21 145.5-35t163.5-14q112 0 158.5 25t46.5 102q0 58-46 85.5t-178 39.5q-183 14-267.5 78.5t-84.5 218.5z"/><glyph unicode="t" horiz-adv-x="849" d="M20 821v221h175v177l254 104v-281h346v-221h-346v-448q0-100 33.5-141.5t123.5-41.5q86 0 178 29l45-201q-129-47-286-47-92 0-153.5 16t-107 57.5-66.5 116-21 189.5v471h-175z"/><glyph unicode="u" horiz-adv-x="1193" d="M135 461v581h254v-555q0-90 9-143t35-87 67-46 110-12q101 0 189 26v817h254v-983q-101-38-237.5-64t-256.5-26q-151 0-241.5 44.5t-136.5 153-46 294.5z"/><glyph unicode="v" horiz-adv-x="1046" d="M0 1042h264q136-345 258-786 171 454 258 786h258q-140-472-374-1042h-314q-172 609-350 1042z"/><glyph unicode="w" horiz-adv-x="1699" d="M0 1042h268q132-351 238-782 53 153 122.5 395.5t102.5 386.5h248q49-147 111-377t100-405q167 461 242 782h258q-147-529-357-1042h-315q-31 157-81 365.5t-87 332.5q-36-158-93-355t-108-343h-313q-159 575-336 1042z"/><glyph unicode="x" horiz-adv-x="1067" d="M12 0q167 194 406 520-226 315-404 522h303q112-137 240-319 91 125 215 319h283q-149-223-359-514 218-306 361-528h-287q-74 124-219 330-136-184-256-330h-283z"/><glyph unicode="y" horiz-adv-x="1046" d="M0 1042h264q138-344 258-790 174 462 258 790h258q-148-506-395-1085-83-197-162-350h-282q80 142 170 342-166 603-369 1093z"/><glyph unicode="z" horiz-adv-x="1017" d="M37 0v51q143 181 304 409t241 361h-510v221h899v-51q-106-172-267.5-402.5t-269.5-367.5h522v-221h-919z"/><glyph unicode="{" horiz-adv-x="692" d="M63 403v211q226 0 226 412 0 432 336 545l120-191q-54-19-89.5-45.5t-64.5-74.5-42.5-125.5-13.5-190.5q0-93-12.5-167.5t-31.5-120-44.5-78-47.5-47-45-21.5q30-9 58-33t57.5-71 47.5-133.5 18-200.5q0-113 13-190t41.5-125.5 64.5-75 91-46.5l-120-188q-336 113-336 547 0 412-226 412v-3z"/><glyph unicode="|" horiz-adv-x="759" d="M246-524v2070h268v-2070h-268z"/><glyph unicode="}" horiz-adv-x="692" d="M-53-360q43 15 73.5 34t58 51.5 44 78 26 113.5 9.5 159q0 92 12.5 166.5t31 120 44 78.5 47.5 47.5 45 21.5q-23 7-45 22t-47.5 48-44 79-31 121-12.5 168q0 148-25.5 238t-68.5 130-117 66q21 32 60.5 95t60.5 94q335-112 335-545 0-412 226-412v-208q-226 0-226-412 0-433-335-545-21 31-60.5 95t-60.5 96z"/><glyph unicode="~" horiz-adv-x="1191" d="M78 741q57 97 123 148t157 51q59 0 128.5-26.5t121.5-58.5 110-58.5 97-26.5q47 0 79 31t60 110l164-129q-39-104-120.5-169.5t-192.5-65.5q-52 0-118 27.5t-118 60.5-112 60.5-101 27.5q-39 0-70.5-27.5t-60.5-95.5z"/><glyph unicode="¡" horiz-adv-x="679" d="M178 913q0 99 33.5 129.5t128.5 30.5q93 0 126.5-31t33.5-129q0-90-33-116.5t-127-26.5q-96 0-129 26.5t-33 116.5zm6-1278l66 971h184l66-971h-316z"/><glyph unicode="¢" horiz-adv-x="937" d="M104 784q0 136 27.5 235.5t80.5 161.5 123.5 95.5 164.5 44.5v217h200v-213q128-11 220-43l-58-201q-66 30-162 33v-672q94 7 162 37l58-196q-85-39-220-50v-247h-200v247q-194 26-295 154t-101 397zm244-6q0-144 36.5-214.5t115.5-92.5v616q-80-21-116-90t-36-219z"/><glyph unicode="£" horiz-adv-x="1249" d="M74 600v215h121v162q0 244 137.5 363.5t433.5 119.5q253 0 436-63l-59-232q-62 21-167 35t-210 14q-167 0-234-51.5t-67-169.5v-178h403v-215h-403v-367h694v-233h-964v600h-121z"/><glyph unicode="¤" horiz-adv-x="1380" d="M111 154l163 211q-69 123-69 362 0 221 63 344l-157 209 233 147 143-190q80 35 213 35 132 0 209-31l125 186 234-145-140-199q72-126 72-356 0-233-72-362l152-211-229-154-144 201q-88-31-207-31-133 0-213 35l-163-205zm346 567q0-87 8.5-145.5t25-96 47.5-57.5 68-27.5 94-7.5q58 0 96 7.5t69.5 27.5 48 57.5 25.5 96 9 145.5q0 76-5.5 129.5t-19 91-31 59.5-48 34-62.5 16-82 4q-49 0-80.5-4t-61.5-16-47-34-30.5-59.5-18.5-91-5-129.5z"/><glyph unicode="¥" horiz-adv-x="1306" d="M-78 1427h352q196-246 398-544 243 328 377 544h327q-211-318-471-669h246v-189h-350v-159h350v-189h-350v-221h-271v221h-364v189h364v159h-364v189h262q-285 399-506 669z"/><glyph unicode="¦" horiz-adv-x="759" d="M246 227h268v-751h-268v751zm0 568v751h268v-751h-268z"/><glyph unicode="§" horiz-adv-x="1273" d="M92 553q0 138 88 250-67 79-67 215 0 444 602 444 238 0 413-61l-55-221q-59 21-159.5 35t-200.5 14q-164 0-238-42t-74-138q0-53 24-83.5t89.5-51 190.5-31.5q246-26 367.5-117.5t121.5-273.5q0-128-94-244 74-80 74-221 0-443-603-443-109 0-222 17t-193 45l55 221q57-22 157-35.5t203-13.5q165 0 238.5 41.5t73.5 136.5q0 53-23 84t-88.5 52-189.5 32q-245 24-367.5 116t-122.5 273zm270 14q0-55 27-87t102-53.5 216-33.5q97-5 178-33 37 47 37 117 0 56-27 88t-101.5 53.5-215.5 32.5q-119 10-179 33-37-47-37-117z"/><glyph unicode="¨" horiz-adv-x="946" d="M123 1282q0 71 24.5 92t96.5 21 97.5-21 25.5-92q0-79-25.5-103t-97.5-24-96.5 24-24.5 103zm436 0q0 71 25 92t98 21q71 0 96-21t25-92q0-79-25-103t-96-24q-73 0-98 24t-25 103z"/><glyph unicode="©" horiz-adv-x="1714" d="M123 727q0 124 15.5 223.5t45 176 76 133.5 105 95.5 135.5 62 163 34 193 10.5q126 0 223.5-14t182-47.5 144-88.5 102-136.5 63-193 20.5-255.5q0-176-30.5-305.5t-88-215.5-149-138.5-204-74.5-263.5-22-263 22-203.5 74.5-148.5 138.5-87.5 215.5-30.5 305.5zm225-2q0-121 11-208t37.5-150.5 63.5-103 97-63 130-32 169-8.5q100 0 170 8.5t130 32 97.5 63 64 103 37.5 150.5 11 208q0 90-6 160t-20.5 126-34.5 96.5-52 70-68.5 48-89 29.5-108.5 15-131 4q-86 0-147.5-5.5t-118-20-93.5-41-67.5-66.5-47-99.5-25.5-136.5-9-180zm127-2q0 133 25 219.5t81 135 131.5 67 190.5 18.5q151 0 266-39l-47-184q-87 33-207 33-62 0-98-8.5t-63-35.5-37-76-10-132q0-105 21-159.5t63.5-74.5 123.5-20q122 0 207 37l47-182q-123-46-266-46-114 0-190.5 19.5t-132 69.5-80.5 137.5-25 220.5z"/><glyph unicode="ª" horiz-adv-x="890" d="M123 930q0 76 20 125.5t61 74 88 33 118 8.5q93 0 180-20 0 96-35.5 127t-146.5 31q-121 0-222-33l-30 147q160 39 290 39 168 0 245-61.5t77-218.5v-441q-67-26-162.5-41.5t-175.5-15.5q-176 0-241.5 51t-65.5 195zm188 8q0-67 27.5-92t105.5-25q73 0 146 25v182q-55 14-144 14-72 0-103.5-20t-31.5-84z"/><glyph unicode="«" horiz-adv-x="1368" d="M55 639l553 571 146-149-361-418 361-426-144-154zm559 0l553 571 146-149-361-418 361-426-144-154z"/><glyph unicode="¬" horiz-adv-x="1062" d="M59 637v240h936v-877h-268v637h-668z"/><glyph unicode="­" horiz-adv-x="622" d="M59 455v241h504v-241h-504z"/><glyph unicode="®" horiz-adv-x="1169" d="M96 954q0 148 29 246.5t92 155.5 150.5 80.5 216.5 23.5q130 0 217.5-23.5t150.5-80.5 92-155.5 29-246.5q0-146-29-244.5t-91-157-151-83.5-218-25-217.5 25-151 83.5-91 157-28.5 244.5zm170 0q0-109 16-177.5t56-108.5 97.5-55 148.5-15q94 0 152 15t98 55 55.5 108 15.5 178q0 116-15.5 185.5t-56 108-97 51-152.5 12.5q-75 0-123.5-8t-88.5-29-61.5-61.5-33-103-11.5-155.5zm96-270v545h334q73 0 109.5-50.5t36.5-129.5q0-90-35-127t-105-37q90-44 125-201h-174q-11 56-40 106t-52 50h-39v-156h-160zm160 295h111q43 0 43 61 0 58-43 58h-111v-119z"/><glyph unicode="¯" horiz-adv-x="1064" d="M252 1180v184h569v-184h-569z"/><glyph unicode="°" horiz-adv-x="888" d="M72 1006q0 109 13.5 186.5t41 130 73 83 104 43.5 140.5 13q103 0 170.5-20.5t114.5-72 67.5-139.5 20.5-224q0-137-20.5-228t-67.5-146-115-77.5-170-22.5q-136 0-215 42.5t-118 146-39 285.5zm223-2q0-120 14.5-181.5t45-84.5 89.5-23q60 0 90.5 23t44 84 13.5 182-14 179.5-43.5 78.5-90.5 20q-60 0-90-19.5t-44.5-79-14.5-179.5z"/><glyph unicode="±" horiz-adv-x="1191" d="M98 39v242h996v-242h-996zm0 739v242h375v377h244v-377h377v-242h-377v-377h-244v377h-375z"/><glyph unicode="²" horiz-adv-x="878" d="M74 561q10 135 45.5 222t93 137.5 154.5 91.5q92 36 135 71t43 88-37.5 74-132.5 21q-56 0-127.5-10.5t-110.5-24.5l-35 190q122 39 289 39 194 0 284.5-62.5t90.5-209.5q0-213-186-279-144-51-181-72-63-36-71-94h440v-182h-694z"/><glyph unicode="³" horiz-adv-x="866" d="M86 571l33 174q100-28 227-28 109 0 146.5 22t37.5 84q0 65-32 86t-123 21h-107v170h103q84 0 112.5 20t28.5 76q0 52-32.5 69t-135.5 17q-130 0-219-29l-33 174q143 33 287 33 192 0 279-52.5t87-172.5q0-101-42-152.5t-154-60.5q119-6 168-62.5t49-166.5q0-138-95.5-197t-291.5-59q-154 0-293 34z"/><glyph unicode="´" horiz-adv-x="985" d="M190 1163l248 264h273l-297-264h-224z"/><glyph unicode="µ" horiz-adv-x="1193" d="M123-393l12 829v606h254v-555q0-60 4.5-100.5t18-79 37.5-60.5 64-35 97-13q98 0 189 26v817h254v-983q-100-38-236.5-63t-257.5-25q-127 0-194 33l6-397h-248z"/><glyph unicode="¶" horiz-adv-x="1378" d="M57 938q0 489 396 489h743v-1427h-238v471h-176v-471h-239v471h-94q-100 0-177 38t-123 104-69 148-23 177z"/><glyph unicode="·" horiz-adv-x="608" d="M131 621q0 96 35.5 125.5t134.5 29.5q105 0 140.5-29t35.5-126q0-106-36-139t-140-33q-99 0-134.5 33.5t-35.5 138.5z"/><glyph unicode="¸" horiz-adv-x="1312" d="M520-383l45 111q52-25 146-25 48 0 66 11.5t18 41.5q0 38-41 49t-152 5l74 190h100v-86q122 0 173.5-35.5t51.5-124.5q0-96-62.5-133t-217.5-37q-128 0-201 33z"/><glyph unicode="¹" horiz-adv-x="772" d="M76 1292l463 193v-916h-213v627l-195-84z"/><glyph unicode="º" horiz-adv-x="942" d="M113 1065q0 112 23 189.5t69.5 123 110.5 65 153 19.5q185 0 272.5-89t87.5-308-88-310-272-91q-120 0-196 37t-118 126.5-42 237.5zm198-2q0-144 32.5-191t125.5-47q64 0 97.5 19t49 70 15.5 149q0 102-16 152.5t-48.5 67.5-97.5 17q-64 0-96-17t-47-67.5-15-152.5z"/><glyph unicode="»" horiz-adv-x="1368" d="M55 215l363 418-363 428 144 151 557-573-553-573zm559 0l363 418-363 428 144 151 557-573-553-573z"/><glyph unicode="¼" horiz-adv-x="1761" d="M45 1292l465 193v-916h-215v627l-193-84zm178-1292l881 1427h250l-881-1427h-250zm654 201v88q170 293 397 596h280v-498h117v-186h-117v-201h-211v201h-466zm241 186h225v330q-138-173-225-330z"/><glyph unicode="½" horiz-adv-x="1761" d="M37 1292l465 193v-916h-215v627l-193-84zm178-1292l881 1427h250l-881-1427h-250zm793 0q14 198 80.5 294t211.5 157q92 36 135.5 71t43.5 88-37.5 74-132.5 21q-56 0-127.5-10.5t-110.5-24.5l-35 190q122 39 289 39 194 0 284.5-62.5t90.5-209.5q0-213-187-279-144-51-181-72-62-36-70-94h440v-182h-694z"/><glyph unicode="¾" horiz-adv-x="1761" d="M49 571l33 174q100-28 227-28 109 0 147 22t38 84q0 65-32.5 86t-123.5 21h-107v170h103q84 0 112.5 20t28.5 76q0 52-32.5 69t-135.5 17q-130 0-219-29l-33 174q143 33 287 33 192 0 279.5-52.5t87.5-172.5q0-101-42.5-152.5t-154.5-60.5q119-6 168-62.5t49-166.5q0-138-95.5-197t-291.5-59q-154 0-293 34zm303-571l883 1427h250l-883-1427h-250zm553 201v88q186 315 400 596h278v-498h119v-186h-119v-201h-211v201h-467zm242 186h225v330q-135-174-225-330z"/><glyph unicode="¿" horiz-adv-x="1009" d="M55 16q0 163 85 305t257 304h267q-161-172-232.5-306t-71.5-292q0-90 55-134.5t193-44.5q185 0 293 43l55-237q-68-21-176.5-36t-193.5-15q-282 0-406.5 101.5t-124.5 311.5zm312 899q0 98 33 128t130 30q93 0 125.5-30t32.5-128q0-90-32.5-116.5t-125.5-26.5q-98 0-130.5 26t-32.5 117z"/><glyph unicode="À" horiz-adv-x="1396" d="M-18 0q99 316 241.5 709.5t274.5 717.5h424q112-354 254.5-751t259.5-676h-299q-96 238-138 356h-624q-52-160-111-356h-282zm354 1794h280l277-264h-234zm110-1206h476q-113 322-199 610h-55q-100-256-222-610z"/><glyph unicode="Á" horiz-adv-x="1396" d="M-18 0q99 316 241.5 709.5t274.5 717.5h424q112-354 254.5-751t259.5-676h-299q-96 238-138 356h-624q-52-160-111-356h-282zm464 588h476q-113 322-199 610h-55q-100-256-222-610zm62 942l264 264h281l-324-264h-221z"/><glyph unicode="Â" horiz-adv-x="1396" d="M-18 0q99 316 241.5 709.5t274.5 717.5h424q112-354 254.5-751t259.5-676h-299q-96 238-138 356h-624q-52-160-111-356h-282zm342 1530l249 264h250l258-264h-237l-148 160-143-160h-229zm122-942h476q-113 322-199 610h-55q-100-256-222-610z"/><glyph unicode="Ã" horiz-adv-x="1396" d="M-18 0q99 316 241.5 709.5t274.5 717.5h424q112-354 254.5-751t259.5-676h-299q-96 238-138 356h-624q-52-160-111-356h-282zm331 1628q45 79 96.5 120.5t122.5 41.5q47 0 93-16.5t76-37 67-37 68-16.5q36 0 61 25.5t49 91.5l125-102q-31-84-95-137.5t-151-53.5q-41 0-83.5 17.5t-72.5 38-67.5 38-69.5 17.5-57-23-47-79zm133-1040h476q-113 322-199 610h-55q-100-256-222-610z"/><glyph unicode="Ä" horiz-adv-x="1396" d="M-18 0q99 316 241.5 709.5t274.5 717.5h424q112-354 254.5-751t259.5-676h-299q-96 238-138 356h-624q-52-160-111-356h-282zm372 1655q0 71 25.5 92.5t97.5 21.5 96.5-21.5 24.5-92.5q0-77-25-101t-96-24q-72 0-97.5 24t-25.5 101zm92-1067h476q-113 322-199 610h-55q-100-256-222-610zm345 1067q0 71 24.5 92.5t97.5 21.5q72 0 96.5-21.5t24.5-92.5q0-77-25-101t-96-24q-73 0-97.5 23.5t-24.5 101.5z"/><glyph unicode="Å" horiz-adv-x="1396" d="M-18 0q99 316 241.5 709.5t274.5 717.5h424q112-354 254.5-751t259.5-676h-299q-96 238-138 356h-624q-52-160-111-356h-282zm464 588h476q-113 322-199 610h-55q-100-256-222-610zm15 1034q0 109 57 155t189 46q126 0 184.5-46.5t58.5-154.5-58.5-154.5-184.5-46.5-186 46.5-60 154.5zm143-2q0-47 21.5-67.5t81.5-20.5 81 20.5 21 67.5q0 48-21 68t-81 20-81.5-20.5-21.5-67.5z"/><glyph unicode="Æ" horiz-adv-x="1984" d="M-295 0q216 330 491.5 723t510.5 704h1222v-233h-766v-330h455v-229h-455v-402h766v-233h-1034v356h-637q-122-184-229-356h-324zm705 588h485v610h-57q-248-343-428-610z"/><glyph unicode="Ç" horiz-adv-x="1212" d="M109 727q0 174 27 300.5t77.5 210.5 134 133.5 186.5 70 244 20.5q98 0 212-15t198-38l-60-238q-55 20-142.5 33t-160.5 13q-85 0-140.5-6t-108-24.5-83-51.5-54-88-33-133.5-9.5-188.5 9.5-189.5 33-136 54.5-91.5 82.5-55 108.5-27 140-7q74 0 161.5 12.5t141.5 32.5l60-241q-83-23-197-37.5t-213-14.5q-140 0-244 23t-186.5 75.5-134 140-78 215.5-26.5 302zm426-1110l45 111q52-25 145-25 48 0 66 11.5t18 41.5q0 38-41 49t-152 5l74 190h101v-86q122 0 173.5-35.5t51.5-124.5q0-96-63-133t-218-37q-127 0-200 33z"/><glyph unicode="È" horiz-adv-x="1269" d="M180 0v1427h1037v-233h-766v-330h546v-231h-546v-400h766v-233h-1037zm232 1794h280l277-264h-234z"/><glyph unicode="É" horiz-adv-x="1269" d="M180 0v1427h1037v-233h-766v-330h546v-231h-546v-400h766v-233h-1037zm336 1530l264 264h281l-324-264h-221z"/><glyph unicode="Ê" horiz-adv-x="1269" d="M180 0v1427h1037v-233h-766v-330h546v-231h-546v-400h766v-233h-1037zm158 1530l250 264h250l258-264h-238l-147 160-144-160h-229z"/><glyph unicode="Ë" horiz-adv-x="1269" d="M180 0v1427h1037v-233h-766v-330h546v-231h-546v-400h766v-233h-1037zm191 1655q0 71 25.5 92.5t97.5 21.5q71 0 95.5-21.5t24.5-92.5q0-77-24.5-101t-95.5-24q-72 0-97.5 24t-25.5 101zm436 0q0 71 25 92.5t98 21.5q72 0 96.5-21.5t24.5-92.5q0-77-25-101t-96-24q-73 0-98 24t-25 101z"/><glyph unicode="Ì" horiz-adv-x="630" d="M-61 1794h280l277-264h-234zm241-1794v1427h271v-1427h-271z"/><glyph unicode="Í" horiz-adv-x="630" d="M143 1530l265 264h280l-323-264h-222zm37-1530v1427h271v-1427h-271z"/><glyph unicode="Î" horiz-adv-x="630" d="M-61 1530l249 264h250l258-264h-237l-148 160-143-160h-229zm241-1530v1427h271v-1427h-271z"/><glyph unicode="Ï" horiz-adv-x="630" d="M-23 1655q0 71 25.5 92.5t97.5 21.5 96.5-21.5 24.5-92.5q0-77-25-101t-96-24q-72 0-97.5 24t-25.5 101zm203-1655v1427h271v-1427h-271zm234 1655q0 71 25 92.5t98 21.5q71 0 95.5-21.5t24.5-92.5q0-77-24.5-101t-95.5-24q-73 0-98 24t-25 101z"/><glyph unicode="Ð" horiz-adv-x="1507" d="M74 637v188h106v602h545q141 0 244.5-20.5t187.5-69 136-129.5 79-202 27-287q0-165-27-287t-79-205-135.5-133.5-188-72-244.5-21.5h-545v637h-106zm377-404h247q99 0 164.5 12t116 42 77.5 86 40.5 138.5 13.5 205.5q0 107-8 181.5t-29.5 128.5-50 85.5-78.5 49.5-105.5 24-140.5 6h-247v-367h325v-188h-325v-404z"/><glyph unicode="Ñ" horiz-adv-x="1585" d="M180 0v1427h355q313-492 600-1030v1030h268v-1427h-330q-298 549-629 1075v-1075h-264zm242 1628q45 79 96.5 120.5t122.5 41.5q47 0 92.5-16.5t76-37 67-37 67.5-16.5q36 0 61.5 25.5t49.5 91.5l125-102q-31-84-95-137.5t-151-53.5q-41 0-83.5 17.5t-72.5 38-67.5 38-69.5 17.5-57-23-47-79z"/><glyph unicode="Ò" horiz-adv-x="1576" d="M109 727q0 173 28 299t80 210 137 134 189 71 245 21 245-21 188.5-71 137-134 80-210 27.5-299q0-219-41-366.5t-129-233-209.5-121-298.5-35.5q-141 0-246 22t-189 74-136.5 139-80 216-27.5 305zm288-4q0-111 7-187.5t25.5-135 45.5-93 73-56 102-29 138-7.5 138 7.5 102.5 29 73.5 56 45.5 93 25.5 135 7 187.5-7 187-26 133.5-45.5 90-73.5 52.5-101.5 26.5-138.5 6.5-138.5-6.5-101.5-26.5-73.5-52.5-45.5-90-25.5-133.5-6.5-187zm37 1071h281l276-264h-233z"/><glyph unicode="Ó" horiz-adv-x="1576" d="M109 727q0 173 28 299t80 210 137 134 189 71 245 21 245-21 188.5-71 137-134 80-210 27.5-299q0-219-41-366.5t-129-233-209.5-121-298.5-35.5q-141 0-246 22t-189 74-136.5 139-80 216-27.5 305zm288-4q0-111 7-187.5t25.5-135 45.5-93 73-56 102-29 138-7.5 138 7.5 102.5 29 73.5 56 45.5 93 25.5 135 7 187.5-7 187-26 133.5-45.5 90-73.5 52.5-101.5 26.5-138.5 6.5-138.5-6.5-101.5-26.5-73.5-52.5-45.5-90-25.5-133.5-6.5-187zm119 807l264 264h281l-324-264h-221z"/><glyph unicode="Ô" horiz-adv-x="1576" d="M109 727q0 173 28 299t80 210 137 134 189 71 245 21 245-21 188.5-71 137-134 80-210 27.5-299q0-219-41-366.5t-129-233-209.5-121-298.5-35.5q-141 0-246 22t-189 74-136.5 139-80 216-27.5 305zm288-4q0-111 7-187.5t25.5-135 45.5-93 73-56 102-29 138-7.5 138 7.5 102.5 29 73.5 56 45.5 93 25.5 135 7 187.5-7 187-26 133.5-45.5 90-73.5 52.5-101.5 26.5-138.5 6.5-138.5-6.5-101.5-26.5-73.5-52.5-45.5-90-25.5-133.5-6.5-187zm11 807l249 264h250l258-264h-237l-148 160-143-160h-229z"/><glyph unicode="Õ" horiz-adv-x="1576" d="M109 727q0 173 28 299t80 210 137 134 189 71 245 21 245-21 188.5-71 137-134 80-210 27.5-299q0-219-41-366.5t-129-233-209.5-121-298.5-35.5q-141 0-246 22t-189 74-136.5 139-80 216-27.5 305zm288-4q0-111 7-187.5t25.5-135 45.5-93 73-56 102-29 138-7.5 138 7.5 102.5 29 73.5 56 45.5 93 25.5 135 7 187.5-7 187-26 133.5-45.5 90-73.5 52.5-101.5 26.5-138.5 6.5-138.5-6.5-101.5-26.5-73.5-52.5-45.5-90-25.5-133.5-6.5-187zm9 905q45 79 96.5 120.5t122.5 41.5q47 0 92.5-16.5t76-37 67-37 67.5-16.5q36 0 61 25.5t49 91.5l125-102q-31-85-94.5-138t-150.5-53q-41 0-83.5 17.5t-72.5 38-67.5 38-69.5 17.5-57.5-23-47.5-79z"/><glyph unicode="Ö" horiz-adv-x="1576" d="M109 727q0 173 28 299t80 210 137 134 189 71 245 21 245-21 188.5-71 137-134 80-210 27.5-299q0-219-41-366.5t-129-233-209.5-121-298.5-35.5q-141 0-246 22t-189 74-136.5 139-80 216-27.5 305zm288-4q0-111 7-187.5t25.5-135 45.5-93 73-56 102-29 138-7.5 138 7.5 102.5 29 73.5 56 45.5 93 25.5 135 7 187.5-7 187-26 133.5-45.5 90-73.5 52.5-101.5 26.5-138.5 6.5-138.5-6.5-101.5-26.5-73.5-52.5-45.5-90-25.5-133.5-6.5-187zm47 932q0 71 25.5 92.5t97.5 21.5 96.5-21.5 24.5-92.5q0-77-25-101t-96-24q-72 0-97.5 24t-25.5 101zm437 0q0 71 25 92.5t98 21.5q71 0 95.5-21.5t24.5-92.5q0-77-24.5-101t-95.5-24q-73 0-98 24t-25 101z"/><glyph unicode="×" horiz-adv-x="1191" d="M156 1008l172 172 266-267 266 269 172-174-266-267 266-266-172-170-266 266-264-266-172 172 264 266z"/><glyph unicode="Ø" horiz-adv-x="1576" d="M35 0l180 207q-106 172-106 520 0 173 28 299t80 210 137 134 189 71 245 21q286 0 431-96l51 61h276l-180-206q100-166 100-494 0-219-41-366.5t-129-233-209.5-121-298.5-35.5q-278 0-423 92l-56-63h-274zm362 791q0-217 29-345l616 719q-75 54-254 54-78 0-131.5-6t-100-23.5-74.5-47.5-48.5-78-28.5-114.5-8-158.5zm146-523q71-53 245-53 93 0 155 11t110.5 38 75 78 40 126 13.5 187q0 197-29 322z"/><glyph unicode="Ù" horiz-adv-x="1519" d="M160 432v995h272v-954q0-142 72.5-198t255.5-56q179 0 254.5 54t75.5 200v954h268l2-995q0-111-27.5-192t-75.5-132.5-125-82-165.5-42.5-206.5-12-206.5 12-165.5 42.5-125 82-75.5 132.5-27.5 192zm278 1362h281l276-264h-233z"/><glyph unicode="Ú" horiz-adv-x="1519" d="M160 432v995h272v-954q0-142 72.5-198t255.5-56q179 0 254.5 54t75.5 200v954h268l2-995q0-111-27.5-192t-75.5-132.5-125-82-165.5-42.5-206.5-12-206.5 12-165.5 42.5-125 82-75.5 132.5-27.5 192zm381 1098l264 264h280l-323-264h-221z"/><glyph unicode="Û" horiz-adv-x="1519" d="M160 432v995h272v-954q0-142 72.5-198t255.5-56q179 0 254.5 54t75.5 200v954h268l2-995q0-111-27.5-192t-75.5-132.5-125-82-165.5-42.5-206.5-12-206.5 12-165.5 42.5-125 82-75.5 132.5-27.5 192zm217 1098l250 264h250l258-264h-238l-147 160-144-160h-229z"/><glyph unicode="Ü" horiz-adv-x="1519" d="M160 432v995h272v-954q0-142 72.5-198t255.5-56q179 0 254.5 54t75.5 200v954h268l2-995q0-111-27.5-192t-75.5-132.5-125-82-165.5-42.5-206.5-12-206.5 12-165.5 42.5-125 82-75.5 132.5-27.5 192zm254 1223q0 71 25.5 92.5t97.5 21.5q71 0 95.5-21.5t24.5-92.5q0-77-24.5-101t-95.5-24q-72 0-97.5 24t-25.5 101zm436 0q0 71 25 92.5t98 21.5q72 0 96.5-21.5t24.5-92.5q0-77-25-101t-96-24q-73 0-98 24t-25 101z"/><glyph unicode="Ý" horiz-adv-x="1306" d="M-78 1427h352q196-246 398-544 243 328 377 544h327q-278-416-575-811v-616h-271v614q-363 515-608 813zm541 103l264 264h281l-324-264h-221z"/><glyph unicode="Þ" horiz-adv-x="1378" d="M180 0v1427h271v-210h473q397 0 397-490 0-95-23-177t-69-148-123-104-176-38h-479v-260h-271zm271 485h397q85 0 130.5 61.5t45.5 182.5q0 256-170 256h-403v-500z"/><glyph unicode="ß" horiz-adv-x="1339" d="M141 0v1079q0 383 523 383 281 0 409.5-86t128.5-278q0-61-7-106t-26-88.5-52-72-87-48.5-129-27q79-4 138-23t96.5-50.5 60-78 31-99 8.5-120.5q0-229-132-321.5t-441-92.5q-74 0-142 6l29 222q74-9 123-9 112 0 173 23t84 69 23 130q0 129-58.5 180t-201.5 51h-78v211h72q136 0 190 48.5t54 152.5q0 101-58.5 140.5t-207.5 39.5q-133 0-200-50t-67-141v-1044h-256z"/><glyph unicode="à" horiz-adv-x="1146" d="M100 319q0 87 20 149t53.5 99.5 87.5 59 111.5 28.5 137.5 7q116 0 258-29 0 72-9.5 113t-39.5 68-78.5 36.5-132.5 9.5q-174 0-315-51l-48 209q207 55 416 55 120 0 201.5-19.5t139-66 84-125 26.5-194.5v-615q-96-37-227.5-59.5t-243.5-22.5q-251 0-346 73t-95 275zm136 1108h270l250-264h-226zm131-1097q0-104 37-134t155-30q106 0 209 35v260q-85 18-207 18-59 0-91.5-4.5t-58-20-35-45-9.5-79.5z"/><glyph unicode="á" horiz-adv-x="1146" d="M100 319q0 87 20 149t53.5 99.5 87.5 59 111.5 28.5 137.5 7q116 0 258-29 0 72-9.5 113t-39.5 68-78.5 36.5-132.5 9.5q-174 0-315-51l-48 209q207 55 416 55 120 0 201.5-19.5t139-66 84-125 26.5-194.5v-615q-96-37-227.5-59.5t-243.5-22.5q-251 0-346 73t-95 275zm267 11q0-104 37-134t155-30q106 0 209 35v260q-85 18-207 18-59 0-91.5-4.5t-58-20-35-45-9.5-79.5zm20 833l248 264h272l-297-264h-223z"/><glyph unicode="â" horiz-adv-x="1146" d="M100 319q0 87 20 149t53.5 99.5 87.5 59 111.5 28.5 137.5 7q116 0 258-29 0 72-9.5 113t-39.5 68-78.5 36.5-132.5 9.5q-174 0-315-51l-48 209q207 55 416 55 120 0 201.5-19.5t139-66 84-125 26.5-194.5v-615q-96-37-227.5-59.5t-243.5-22.5q-251 0-346 73t-95 275zm99 844l250 264h249l258-264h-239l-146 156-141-156h-231zm168-833q0-104 37-134t155-30q106 0 209 35v260q-85 18-207 18-59 0-91.5-4.5t-58-20-35-45-9.5-79.5z"/><glyph unicode="ã" horiz-adv-x="1146" d="M100 319q0 87 20 149t53.5 99.5 87.5 59 111.5 28.5 137.5 7q116 0 258-29 0 72-9.5 113t-39.5 68-78.5 36.5-132.5 9.5q-174 0-315-51l-48 209q207 55 416 55 120 0 201.5-19.5t139-66 84-125 26.5-194.5v-615q-96-37-227.5-59.5t-243.5-22.5q-251 0-346 73t-95 275zm84 943q46 81 99 123t125 42q47 0 90.5-17t71-37 62-37 66.5-17q37 0 61 25.5t48 93.5l127-103q-31-88-91.5-139t-148.5-51q-41 0-82.5 17t-70 37-65.5 37-70 17q-32 0-57.5-23t-49.5-81zm183-932q0-104 37-134t155-30q106 0 209 35v260q-85 18-207 18-59 0-91.5-4.5t-58-20-35-45-9.5-79.5z"/><glyph unicode="ä" horiz-adv-x="1146" d="M100 319q0 87 20 149t53.5 99.5 87.5 59 111.5 28.5 137.5 7q116 0 258-29 0 72-9.5 113t-39.5 68-78.5 36.5-132.5 9.5q-174 0-315-51l-48 209q207 55 416 55 120 0 201.5-19.5t139-66 84-125 26.5-194.5v-615q-96-37-227.5-59.5t-243.5-22.5q-251 0-346 73t-95 275zm119 963q0 71 24.5 92t96.5 21 97.5-21 25.5-92q0-79-25.5-103t-97.5-24-96.5 24-24.5 103zm148-952q0-104 37-134t155-30q106 0 209 35v260q-85 18-207 18-59 0-91.5-4.5t-58-20-35-45-9.5-79.5zm288 952q0 71 25 92t98 21q71 0 96-21t25-92q0-79-25-103t-96-24q-73 0-98 24t-25 103z"/><glyph unicode="å" horiz-adv-x="1146" d="M100 319q0 87 20 149t53.5 99.5 87.5 59 111.5 28.5 137.5 7q116 0 258-29 0 72-9.5 113t-39.5 68-78.5 36.5-132.5 9.5q-174 0-315-51l-48 209q207 55 416 55 120 0 201.5-19.5t139-66 84-125 26.5-194.5v-615q-96-37-227.5-59.5t-243.5-22.5q-251 0-346 73t-95 275zm230 998q0 109 56.5 155t188.5 46q126 0 185-46.5t59-154.5q0-110-58.5-155.5t-185.5-45.5-186 45.5-59 155.5zm37-987q0-104 37-134t155-30q106 0 209 35v260q-85 18-207 18-59 0-91.5-4.5t-58-20-35-45-9.5-79.5zm106 983q0-47 21-67.5t81-20.5 81.5 21 21.5 67q0 48-21 68t-82 20q-60 0-81-20t-21-68z"/><glyph unicode="æ" horiz-adv-x="1777" d="M100 319q0 62 10.5 111.5t28.5 85.5 46.5 62 61 42 76.5 25.5 87.5 13 99.5 3.5q116 0 258-29 0 72-9 112t-38.5 67-78 35.5-134.5 8.5q-185 0-315-47l-48 209q207 55 416 55 135 0 218-29t128-96q49 66 129 95.5t201 29.5q104 0 176.5-16t131-56 91-110 47-177 9.5-259h-674q1-83 17-136t51.5-82 82-40 119.5-11q58 0 146 12.5t147 30.5l41-200q-76-26-180-42t-185-16q-196 0-303 74-72-35-190-54.5t-223-19.5q-251 0-346 73t-95 275zm269 11q0-101 35-132.5t157-31.5q59 0 132.5 14t111.5 35q-41 98-41 246-82 18-201 18-59 0-91.5-4.5t-58-20-35-45-9.5-79.5zm651 319h438q-6 134-50 178.5t-157 44.5q-118 0-168.5-46t-62.5-177z"/><glyph unicode="ç" horiz-adv-x="962" d="M104 526q0 156 35.5 264.5t106 169.5 161 87 214.5 26q77 0 168.5-14t148.5-35l-57-217q-119 45-242 45-76 0-121.5-11t-82.5-45-52.5-100.5-15.5-173.5q0-82 11-140t31-95 55-58 75.5-28.5 99.5-7.5q122 0 242 49l57-217q-60-24-150.5-39t-166.5-15q-124 0-215.5 27t-161 89.5-105 172-35.5 266.5zm273-909l45 111q52-25 145-25 48 0 66 11.5t18 41.5q0 38-40.5 49t-151.5 5l73 190h101v-86q122 0 173.5-35.5t51.5-124.5q0-96-62.5-133t-217.5-37q-128 0-201 33z"/><glyph unicode="è" horiz-adv-x="1130" d="M104 526q0 154 32.5 261.5t97.5 169.5 151.5 89 204.5 27q104 0 176.5-16t130.5-56 90.5-110 47-177 9.5-259h-673q1-83 17-136t51.5-82 82-40 119.5-11q58 0 146 12.5t147 30.5l41-200q-76-26-180-42t-185-16q-118 0-207 27t-158 89-105 172-36 267zm175 901h270l250-264h-226zm94-778h438q-6 134-50 178.5t-157 44.5q-120 0-169.5-47t-61.5-176z"/><glyph unicode="é" horiz-adv-x="1130" d="M104 526q0 154 32.5 261.5t97.5 169.5 151.5 89 204.5 27q104 0 176.5-16t130.5-56 90.5-110 47-177 9.5-259h-673q1-83 17-136t51.5-82 82-40 119.5-11q58 0 146 12.5t147 30.5l41-200q-76-26-180-42t-185-16q-118 0-207 27t-158 89-105 172-36 267zm269 123h438q-6 134-50 178.5t-157 44.5q-120 0-169.5-47t-61.5-176zm39 514l247 264h273l-297-264h-223z"/><glyph unicode="ê" horiz-adv-x="1130" d="M104 526q0 154 32.5 261.5t97.5 169.5 151.5 89 204.5 27q104 0 176.5-16t130.5-56 90.5-110 47-177 9.5-259h-673q1-83 17-136t51.5-82 82-40 119.5-11q58 0 146 12.5t147 30.5l41-200q-76-26-180-42t-185-16q-118 0-207 27t-158 89-105 172-36 267zm123 637l250 264h250l258-264h-240l-145 156-141-156h-232zm146-514h438q-6 134-50 178.5t-157 44.5q-120 0-169.5-47t-61.5-176z"/><glyph unicode="ë" horiz-adv-x="1130" d="M104 526q0 154 32.5 261.5t97.5 169.5 151.5 89 204.5 27q104 0 176.5-16t130.5-56 90.5-110 47-177 9.5-259h-673q1-83 17-136t51.5-82 82-40 119.5-11q58 0 146 12.5t147 30.5l41-200q-76-26-180-42t-185-16q-118 0-207 27t-158 89-105 172-36 267zm156 756q0 71 24.5 92t96.5 21 97.5-21 25.5-92q0-79-25.5-103t-97.5-24-96.5 24-24.5 103zm113-633h438q-6 134-50 178.5t-157 44.5q-120 0-169.5-47t-61.5-176zm323 633q0 71 25 92t98 21q71 0 96-21t25-92q0-79-25-103t-96-24q-73 0-98 24t-25 103z"/><glyph unicode="ì" horiz-adv-x="536" d="M-82 1427h270l250-264h-225zm223-1427v1042h254v-1042h-254z"/><glyph unicode="í" horiz-adv-x="536" d="M90 1163l248 264h272l-297-264h-223zm51-1163v1042h254v-1042h-254z"/><glyph unicode="î" horiz-adv-x="536" d="M-109 1163l250 264h250l258-264h-239l-146 156-141-156h-232zm250-1163v1042h254v-1042h-254z"/><glyph unicode="ï" horiz-adv-x="536" d="M-70 1282q0 71 24.5 92t96.5 21 97.5-21 25.5-92q0-79-25.5-103t-97.5-24-96.5 24-24.5 103zm211-1282v1042h254v-1042h-254zm226 1282q0 71 24.5 92t97.5 21q71 0 96-21t25-92q0-79-25-103t-96-24q-73 0-97.5 24t-24.5 103z"/><glyph unicode="ð" horiz-adv-x="1282" d="M104 446q0 163 49.5 255t163 134 316.5 42q88 0 178-11-54 105-141 209l-148-92-100 133 143 90q-51 57-215 221h336q62-58 96-92l125 78 99-133-113-72q293-359 293-749 0-99-10-170.5t-36-128.5-65-93-101.5-59.5-142.5-33-190-9.5q-297 0-417 106.5t-120 374.5zm283-12q0-64 10-104t38-69 77.5-41.5 128.5-12.5q54 0 88.5 3.5t66 14 49.5 29 32 50 19 76 5 107.5q0 77-18 148-95 14-221 14-89 0-140-8.5t-83-33.5-42-64.5-10-108.5z"/><glyph unicode="ñ" horiz-adv-x="1193" d="M141 0v983q99 38 236.5 64t257.5 26q151 0 241.5-44.5t136.5-152.5 46-294v-582h-254v555q0 174-44 231.5t-179 57.5q-92 0-187-25v-819h-254zm78 1262q46 81 98.5 123t124.5 42q47 0 90.5-17t71-37 62.5-37 67-17q37 0 61 25.5t48 93.5l127-103q-31-88-91.5-139t-148.5-51q-52 0-103 27t-98 54-88 27q-32 0-57-23t-49-81z"/><glyph unicode="ò" d="M104 526q0 127 20.5 220.5t59 156 100 100.5 138 54 178.5 16q104 0 181-16t139-54 100.5-100.5 59-156 20.5-220.5q0-159-30-267t-94.5-171.5-154.5-90-221-26.5q-129 0-218.5 26.5t-153.5 90-94 171.5-30 267zm189 901h270l250-264h-225zm74-905q0-110 11-176t39.5-105 70.5-52 112-13q72 0 114.5 13t72 52 40.5 105 11 176q0 91-8 151t-23 99.5-45 60-67 28-95 7.5q-57 0-93-7.5t-65.5-28-44.5-60-22.5-99.5-7.5-151z"/><glyph unicode="ó" d="M104 526q0 127 20.5 220.5t59 156 100 100.5 138 54 178.5 16q104 0 181-16t139-54 100.5-100.5 59-156 20.5-220.5q0-159-30-267t-94.5-171.5-154.5-90-221-26.5q-129 0-218.5 26.5t-153.5 90-94 171.5-30 267zm263-4q0-110 11-176t39.5-105 70.5-52 112-13q72 0 114.5 13t72 52 40.5 105 11 176q0 91-8 151t-23 99.5-45 60-67 28-95 7.5q-57 0-93-7.5t-65.5-28-44.5-60-22.5-99.5-7.5-151zm39 641l247 264h273l-297-264h-223z"/><glyph unicode="ô" d="M104 526q0 127 20.5 220.5t59 156 100 100.5 138 54 178.5 16q104 0 181-16t139-54 100.5-100.5 59-156 20.5-220.5q0-159-30-267t-94.5-171.5-154.5-90-221-26.5q-129 0-218.5 26.5t-153.5 90-94 171.5-30 267zm115 637l250 264h250l258-264h-240l-145 156-141-156h-232zm148-641q0-110 11-176t39.5-105 70.5-52 112-13q72 0 114.5 13t72 52 40.5 105 11 176q0 91-8 151t-23 99.5-45 60-67 28-95 7.5q-57 0-93-7.5t-65.5-28-44.5-60-22.5-99.5-7.5-151z"/><glyph unicode="õ" d="M104 526q0 127 20.5 220.5t59 156 100 100.5 138 54 178.5 16q104 0 181-16t139-54 100.5-100.5 59-156 20.5-220.5q0-159-30-267t-94.5-171.5-154.5-90-221-26.5q-129 0-218.5 26.5t-153.5 90-94 171.5-30 267zm119 736q46 81 98.5 123t124.5 42q47 0 90.5-17t71-37 62.5-37 67-17q37 0 61 25.5t48 93.5l127-103q-31-88-91.5-139t-148.5-51q-52 0-103 27t-98 54-88 27q-32 0-57-23t-49-81zm144-740q0-110 11-176t39.5-105 70.5-52 112-13q72 0 114.5 13t72 52 40.5 105 11 176q0 91-8 151t-23 99.5-45 60-67 28-95 7.5q-57 0-93-7.5t-65.5-28-44.5-60-22.5-99.5-7.5-151z"/><glyph unicode="ö" d="M104 526q0 127 20.5 220.5t59 156 100 100.5 138 54 178.5 16q104 0 181-16t139-54 100.5-100.5 59-156 20.5-220.5q0-159-30-267t-94.5-171.5-154.5-90-221-26.5q-129 0-218.5 26.5t-153.5 90-94 171.5-30 267zm156 756q0 71 24.5 92t96.5 21 97.5-21 25.5-92q0-79-25.5-103t-97.5-24-96.5 24-24.5 103zm107-760q0-110 11-176t39.5-105 70.5-52 112-13q72 0 114.5 13t72 52 40.5 105 11 176q0 91-8 151t-23 99.5-45 60-67 28-95 7.5q-57 0-93-7.5t-65.5-28-44.5-60-22.5-99.5-7.5-151zm329 760q0 71 25 92t98 21q71 0 96-21t25-92q0-79-25-103t-96-24q-73 0-98 24t-25 103z"/><glyph unicode="÷" horiz-adv-x="1191" d="M98 621v241h996v-241h-996zm336-308q0 91 32.5 118.5t125.5 27.5q97 0 130.5-27.5t33.5-118.5q0-98-33.5-127.5t-130.5-29.5q-93 0-125.5 29.5t-32.5 127.5zm0 865q0 90 32.5 116.5t125.5 26.5q98 0 131-26t33-117q0-98-33.5-128t-130.5-30q-93 0-125.5 30t-32.5 128z"/><glyph unicode="ø" d="M33 0l141 162q-70 125-70 364 0 127 20.5 220.5t59 156 100 100.5 138 54 178.5 16q199 0 305-63l31 32h238l-142-161q68-127 68-355 0-159-30-267t-94.5-171.5-154.5-90-221-26.5q-188 0-301 64l-31-35h-235zm334 571q0-107 14-176l373 439q-47 32-154 32-55 0-90-6.5t-64-24-44.5-51-24.5-85-10-128.5zm86-362q41-31 147-31 138 0 186 69t48 247q0 84-11 149z"/><glyph unicode="ù" horiz-adv-x="1193" d="M135 461v581h254v-555q0-90 9-143t35-87 67-46 110-12q101 0 189 26v817h254v-983q-101-38-237.5-64t-256.5-26q-151 0-241.5 44.5t-136.5 153-46 294.5zm144 966h270l250-264h-226z"/><glyph unicode="ú" horiz-adv-x="1193" d="M135 461v581h254v-555q0-90 9-143t35-87 67-46 110-12q101 0 189 26v817h254v-983q-101-38-237.5-64t-256.5-26q-151 0-241.5 44.5t-136.5 153-46 294.5zm275 702l247 264h273l-297-264h-223z"/><glyph unicode="û" horiz-adv-x="1193" d="M135 461v581h254v-555q0-90 9-143t35-87 67-46 110-12q101 0 189 26v817h254v-983q-101-38-237.5-64t-256.5-26q-151 0-241.5 44.5t-136.5 153-46 294.5zm94 702l250 264h250l258-264h-239l-146 156-141-156h-232z"/><glyph unicode="ü" horiz-adv-x="1193" d="M135 461v581h254v-555q0-90 9-143t35-87 67-46 110-12q101 0 189 26v817h254v-983q-101-38-237.5-64t-256.5-26q-151 0-241.5 44.5t-136.5 153-46 294.5zm127 821q0 71 24.5 92t96.5 21 97.5-21 25.5-92q0-79-25.5-103t-97.5-24-96.5 24-24.5 103zm436 0q0 71 25 92t98 21q71 0 96-21t25-92q0-79-25-103t-96-24q-73 0-98 24t-25 103z"/><glyph unicode="ý" horiz-adv-x="1046" d="M0 1042h264q138-344 258-790 174 462 258 790h258q-148-506-395-1085-83-197-162-350h-282q80 142 170 342-166 603-369 1093zm367 121l247 264h273l-297-264h-223z"/><glyph unicode="þ" d="M141-393v1845h254v-399q113 20 203 20 133 0 224-26.5t154.5-89.5 92.5-169.5 29-265.5q0-125-20.5-220t-58-157.5-95-101.5-125-55.5-154.5-16.5q-132 0-250 60v-424h-254zm254 680q0-45 59-73t146-28q92 0 142 29t73 100 23 201q0 87-8 145.5t-24 97-46 59-67.5 28.5-94.5 8q-121 0-203-31v-536z"/><glyph unicode="ÿ" horiz-adv-x="1046" d="M0 1042h264q138-344 258-790 174 462 258 790h258q-148-506-395-1085-83-197-162-350h-282q80 142 170 342-166 603-369 1093zm190 240q0 71 24.5 92t96.5 21 97.5-21 25.5-92q0-79-25.5-103t-97.5-24-96.5 24-24.5 103zm437 0q0 71 25 92t98 21q71 0 95.5-21t24.5-92q0-79-25-103t-95-24q-73 0-98 24t-25 103z"/><glyph unicode="Œ" horiz-adv-x="2248" d="M109 727q0 173 28 299t80 210 137 134 189 71 245 21q182 0 302-35h1105v-233h-825q77-115 92-330h422v-229h-422q-6-271-102-402h835v-233h-1134q-113-29-273-29-141 0-246 22t-189 74-136.5 139-80 216-27.5 305zm288-4q0-111 7-187.5t25.5-135 45.5-93 73-56 102-29 138-7.5 138 7.5 102.5 29 73.5 56 45.5 93 25.5 135 7 187.5-7 187-26 133.5-45.5 90-73.5 52.5-101.5 26.5-138.5 6.5-138.5-6.5-101.5-26.5-73.5-52.5-45.5-90-25.5-133.5-6.5-187z"/><glyph unicode="œ" horiz-adv-x="1857" d="M104 526q0 127 20.5 220.5t59 156 100 100.5 138 54 178.5 16q135 0 224-31t143-102q104 133 348 133 104 0 176.5-16t131-56 91-110 47-177.5 8.5-258.5h-673q1-83 17.5-136t52-82 82-40 118.5-11q60 0 147.5 12.5t145.5 30.5l43-200q-78-26-181-42t-186-16q-129 0-218 33t-146 109q-53-76-142.5-109t-228.5-33q-129 0-218.5 26.5t-153.5 90-94 171.5-30 267zm263-4q0-110 11-176t39.5-105 70.5-52 112-13q72 0 114.5 13t72 52 40.5 105 11 176q0 91-8 151t-23 99.5-45 60-67 28-95 7.5q-57 0-93-7.5t-65.5-28-44.5-60-22.5-99.5-7.5-151zm731 127h438q-4 134-48 178.5t-157 44.5q-118 0-169-46t-64-177z"/><glyph unicode="Ÿ" horiz-adv-x="1306" d="M-78 1427h352q196-246 398-544 243 328 377 544h327q-278-416-575-811v-616h-271v614q-363 515-608 813zm408 228q0 71 25.5 92.5t97.5 21.5q71 0 95.5-21.5t24.5-92.5q0-77-24.5-101t-95.5-24q-72 0-97.5 24t-25.5 101zm436 0q0 71 25 92.5t98 21.5q72 0 96.5-21.5t24.5-92.5q0-77-25-101t-96-24q-73 0-98 24t-25 101z"/><glyph unicode="ˆ" horiz-adv-x="1351" d="M322 1163l249 264h250l258-264h-239l-146 156-141-156h-231z"/><glyph unicode="˜" horiz-adv-x="1464" d="M291 1262q46 81 98.5 123t124.5 42q47 0 90.5-17t71-37 62.5-37 67-17q37 0 60 25.5t48 93.5l127-103q-31-88-91-139t-148-51q-52 0-103 27t-98 54-88 27q-32 0-57-23t-49-81z"/><glyph horiz-adv-x="911"/><glyph horiz-adv-x="1823"/><glyph horiz-adv-x="911"/><glyph horiz-adv-x="1823"/><glyph horiz-adv-x="607"/><glyph horiz-adv-x="455"/><glyph horiz-adv-x="303"/><glyph horiz-adv-x="303"/><glyph horiz-adv-x="227"/><glyph horiz-adv-x="364"/><glyph horiz-adv-x="101"/><glyph unicode="‐" horiz-adv-x="622" d="M59 455v241h504v-241h-504z"/><glyph unicode="‑" horiz-adv-x="622" d="M59 455v241h504v-241h-504z"/><glyph unicode="‒" horiz-adv-x="622" d="M59 455v241h504v-241h-504z"/><glyph unicode="–" horiz-adv-x="1183" d="M100 455v241h983v-241h-983z"/><glyph unicode="—" horiz-adv-x="1771" d="M100 455v241h1571v-241h-1571z"/><glyph unicode="‘" horiz-adv-x="522" d="M49 1034l223 537h205l-160-537h-268z"/><glyph unicode="’" horiz-adv-x="522" d="M47 1024l160 537h268l-223-537h-205z"/><glyph unicode="‚" horiz-adv-x="501" d="M37-326l160 537h268l-223-537h-205z"/><glyph unicode="“" horiz-adv-x="921" d="M49 1034l223 537h205l-160-537h-268zm397 0l224 537h204l-159-537h-269z"/><glyph unicode="”" horiz-adv-x="921" d="M47 1026l160 537h268l-223-537h-205zm397 0l160 537h268l-223-537h-205z"/><glyph unicode="„" horiz-adv-x="921" d="M47-336l160 537h268l-223-537h-205zm397 0l160 537h268l-223-537h-205z"/><glyph unicode="•" d="M104 670q0 127 20.5 220.5t59 156 100 100.5 138 54 178.5 16q104 0 181-16t139-54 100.5-100.5 59-156 20.5-220.5q0-159-30-267t-94.5-171.5-154.5-90-221-26.5q-129 0-218.5 26.5t-153.5 90-94 171.5-30 267z"/><glyph unicode="…" horiz-adv-x="2336" d="M289 150q0 90 32 116.5t125 26.5q98 0 131-26t33-117q0-99-33.5-129.5t-130.5-30.5q-92 0-124.5 31t-32.5 129zm717 0q0 90 32.5 116.5t126.5 26.5q96 0 129-26.5t33-116.5q0-99-33.5-129.5t-128.5-30.5q-93 0-126 31t-33 129zm720 0q0 90 33 116.5t125 26.5q98 0 131-26t33-117q0-99-33.5-129.5t-130.5-30.5q-91 0-124.5 31t-33.5 129z"/><glyph horiz-adv-x="364"/><glyph unicode="‹" horiz-adv-x="808" d="M55 639l553 571 146-149-361-418 361-426-144-154z"/><glyph unicode="›" horiz-adv-x="808" d="M55 215l363 418-363 428 144 151 557-573-553-573z"/><glyph horiz-adv-x="455"/><glyph unicode="€" horiz-adv-x="1212" d="M109 727q0 174 27 300.5t77.5 210.5 134 133.5 186.5 70 244 20.5q98 0 212-15t198-38l-60-238q-55 20-142.5 33t-160.5 13-124.5-5-98.5-19-79-39-56-65.5-39-97.5h490v-174h-519q-2-23-2-92 0-72 2-92h519v-174h-490q14-60 38-102t55.5-69 79-42.5 99.5-21 125-5.5q74 0 161.5 12.5t141.5 32.5l60-241q-83-23-197-37.5t-213-14.5q-140 0-244 23t-186.5 75.5-134 140-78 215.5-26.5 302z"/><glyph unicode="™" horiz-adv-x="1687" d="M14 1268v159h648v-159h-232v-576h-182v576h-234zm725-576v735h240l186-497 181 497h229v-735h-172v512l-178-483h-142l-172 483v-512h-172z"/><glyph unicode="◼" horiz-adv-x="1044" d="M0 0v1044h1044v-1044h-1044z"/></font>
</defs>
</svg>
