<svg xmlns="http://www.w3.org/2000/svg"><defs><font horiz-adv-x="1228"><font-face units-per-em="2048" ascent="1638" descent="-410"/><glyph horiz-adv-x="0"/><glyph horiz-adv-x="682"/><glyph/><glyph unicode="!" d="M506 111q0 63 22 81.5t84 18.5q65 0 87-18.5t22-81.5q0-68-22.5-89.5t-86.5-21.5q-61 0-83.5 21.5t-22.5 89.5zm10 1316h193l-45-1021h-103z"/><glyph unicode=""" d="M393 1427h158l-39-471h-96zm289 0h152l-39-471h-95z"/><glyph unicode="#" d="M41 424l8 111h262l25 397h-268l8 112h268l23 383h131l-23-383h297l23 383h131l-23-383h283l-8-112h-283l-25-397h289l-8-111h-287l-26-424h-131l26 424h-297l-26-424h-131l26 424h-264zm401 111h297l25 397h-297z"/><glyph unicode="$" d="M137 1012q0 341 414 381v297h123v-289q225 0 373-43l-43-133q-43 23-140 36t-190 13v-494q218-26 318-117.5t100-263.5q0-339-418-383v-297h-123v291q-243 0-387 43l45 133q57-22 158-35.5t184-13.5v525q-220 21-317 100.5t-97 249.5zm150 2q0-107 56.5-155.5t207.5-65.5v475q-129-16-196.5-76t-67.5-178zm387-869q131 16 199.5 74.5t68.5 177.5q0 110-58.5 169t-209.5 81v-502z"/><glyph unicode="%" d="M33 1022q0 130 14.5 216.5t45.5 135 72.5 68.5 102.5 20q82 0 131.5-36t77-134 27.5-270q0-173-27.5-274.5t-77.5-141-131-39.5q-80 0-130 39.5t-77.5 141-27.5 274.5zm114-4q0-194 27-269t94-75q70 0 96.5 73.5t26.5 270.5q0 141-11.5 212.5t-37 97.5-74.5 26q-47 0-71.5-25.5t-37-98.5-12.5-212zm111-1018l604 1427h109l-604-1427h-109zm471 426q0 171 28 269.5t77.5 134.5 130.5 36q61 0 102.5-20t72.5-68.5 45.5-135 14.5-216.5q0-173-27.5-274.5t-77.5-141-130-39.5q-81 0-130.5 39.5t-77.5 141-28 274.5zm113-4q0-194 27.5-269t95.5-75q70 0 95 73t25 271q0 143-10.5 213t-35 96.5-74.5 26.5q-48 0-73-26t-37.5-98.5-12.5-211.5z"/><glyph unicode="&" d="M59 379q0 76 17 140.5t52 118 96 86 143 36.5q-62 7-106 29.5t-68 52-37.5 75.5-17 87-3.5 100q0 358 383 358 195 0 286-86.5t91-261.5q0-56-5.5-100t-22-89.5-44-77-74-54-108.5-29.5q69-10 139.5-80.5t180.5-255.5q96 181 96 393h123q0-261-152-499 49-83 172-322h-141q-60 124-113 213-60-70-102.5-110.5t-97-73-116.5-45.5-147-13q-108 0-183.5 19.5t-131.5 65.5-82.5 126-26.5 197zm142 18q0-168 58.5-234.5t223.5-66.5q101 0 168 22t118 67 120 134q-114 199-201.5 292.5t-185.5 93.5q-160 0-230.5-70.5t-70.5-237.5zm69 699q0-144 54.5-207.5t181.5-63.5q130 0 193 64.5t63 204.5q0 131-54.5 187t-189.5 56q-136 0-192-55.5t-56-185.5z"/><glyph unicode="'" d="M535 1427h157l-39-471h-96z"/><glyph unicode="(" d="M336 510q0 187 30.5 346t78 268 114.5 196.5 131.5 139 136.5 88.5l66-108q-53-19-106.5-60.5t-110-118-99-177.5-69.5-250-27-324q0-174 27-323t69.5-250 99-178 110-118.5 106.5-60.5l-66-108q-72 37-136.5 88.5t-131.5 139-114.5 196.5-78 268-30.5 346z"/><glyph unicode=")" d="M336-420q53 19 106.5 60.5t110 118 99 177.5 69.5 250 27 324q0 174-27 323t-69.5 250-99 178-110 118.5-106.5 60.5l65 108q72-37 136.5-88.5t131.5-139 115-196.5 78.5-268 30.5-346-30.5-346-78.5-268-115-196.5-131.5-139-136.5-88.5z"/><glyph unicode="*" d="M246 1061v110h272l-135 238 96 53 133-235 138 235 98-55-137-236h272v-110h-274l137-238-96-53-136 234-135-234-98 55 135 236h-270z"/><glyph unicode="+" d="M123 672v123h426v430h127v-430h428v-123h-428v-428h-127v428h-426z"/><glyph unicode="," d="M440-326l160 527h186l-223-527h-123z"/><glyph unicode="-" d="M336 502v123h555v-123h-555z"/><glyph unicode="." d="M508 111q0 63 21 81.5t83 18.5q66 0 87.5-18t21.5-82q0-69-22-90t-87-21q-61 0-82.5 21.5t-21.5 89.5z"/><glyph unicode="/" d="M172 0l727 1427h156l-731-1427h-152z"/><glyph unicode="0" d="M109 733q0 173 20.5 298t59 208 101.5 132.5 140.5 70 183.5 20.5q107 0 184.5-20.5t140.5-69.5 101.5-132.5 59-208.5 20.5-298q0-218-30-365.5t-94.5-235-156.5-124.5-225-37q-132 0-223 37t-156 124.5-95.5 235-30.5 365.5zm149 0q0-249 36.5-387t111-193 206.5-55q135 0 210.5 55t112 193 36.5 387q0 132-8 227.5t-27.5 163.5-46 110.5-69.5 67-91 33-117 8.5q-58 0-100-6.5t-81-23-65.5-46-48-74.5-34-110-19-151-6.5-199z"/><glyph unicode="1" d="M141 1180l602 299v-1356h349v-123h-861v123h365v1149l-406-203z"/><glyph unicode="2" d="M123 0v115q153 122 259.5 208t197.5 165.5 147 131.5 100.5 105.5 66.5 88.5 36 79.5 17 79 3 86.5q0 154-82.5 212t-277.5 58q-93 0-200.5-15.5t-156.5-39.5l-36 133q222 55 395 55 266 0 389-92t123-307q0-90-17-158.5t-62.5-147-136.5-168-227.5-201-347.5-265.5h777v-123h-967z"/><glyph unicode="3" d="M109 31l34 114q161-49 402-49 159 0 246.5 31t121 94 33.5 176q0 169-85 238.5t-292 69.5h-163v120h163q187 0 271 64t84 207q0 89-31.5 139.5t-112 76-225.5 25.5q-232 0-393-53l-37 123q253 55 430 55 282 0 401-85t119-263q0-55-7-99.5t-27-89-52.5-75.5-87.5-53-129-29q79-3 138-25t95.5-55.5 59-82 31-99.5 8.5-113q0-232-132-327t-427-95q-198 0-436 60z"/><glyph unicode="4" d="M78 418v31q113 209 292.5 489.5t340.5 488.5h235v-888h203v-121h-203v-418h-145v418h-723zm198 121h525v796q-131-162-283-397.5t-242-398.5z"/><glyph unicode="5" d="M133 31l37 114q158-49 371-49 120 0 196.5 16t121.5 54.5 62 93 17 139.5q0 96-15.5 156.5t-57 101.5-111 57.5-179.5 16.5q-218 0-374-39v735h807v-122h-664v-461q105 12 231 12 194 0 308-46t163.5-140 49.5-252q0-127-32-213t-102-138-171-74-250-22q-166 0-408 60z"/><glyph unicode="6" d="M90 723q0 174 26.5 301t76 211.5 129 135 175.5 71 226 20.5q182 0 369-59l-48-131q-140 57-319 57-84 0-144.5-7.5t-116.5-27-92.5-55-65-92-43.5-137-19-189.5q172 35 370 35 287 0 405-101.5t118-336.5q0-128-29.5-213.5t-94-137.5-158-74-230.5-22q-150 0-248 35t-164.5 122-94.5 230.5-28 364.5zm154-29q1-148 17.5-253t45.5-172 77-105.5 104.5-53 136.5-14.5q109 0 178 16t108 55 53.5 92.5 14.5 139.5q0 96-16 156.5t-57.5 101.5-111.5 57.5-180 16.5q-209 0-370-37z"/><glyph unicode="7" d="M133 1305v122h1010v-53q-164-266-344.5-658t-294.5-716h-168q128 351 297.5 715t312.5 590h-813z"/><glyph unicode="8" d="M106 393q0 79 14.5 140t50 115 103.5 85 166 35q-74 7-128.5 29t-86 53-50 76-24.5 88.5-6 99.5q0 176 111 262t358 86 359-86.5 112-261.5q0-72-10.5-124t-40-102.5-90.5-81-153-38.5q79-3 138-25t95.5-55.5 58.5-82 30.5-99 8.5-113.5q0-230-124-326t-384-96q-259 0-383.5 96t-124.5 326zm158 4q0-166 75.5-233.5t274.5-67.5q198 0 275.5 68t77.5 233q0 167-82 237.5t-271 70.5-269.5-70-80.5-238zm33 699q0-143 75-207t242-64q168 0 243 64t75 207q0 131-70.5 186t-247.5 55-247-55-70-186z"/><glyph unicode="9" d="M98 989q0 253 121.5 363t390.5 110q152 0 246.5-21t158.5-77.5 89.5-151.5 25.5-247q0-123-34.5-243.5t-86-214.5-131-192.5-149-167-160.5-147.5h-204q189 157 323 301t209 297q-163-20-276-20-292 0-407.5 89.5t-115.5 321.5zm158 17q0-95 15-150.5t58-91 110.5-47.5 181.5-12q188 0 327 26 31 102 31 209 0 69-5 122.5t-17 94.5-26.5 70.5-39.5 49.5-50.5 32.5-64.5 19-76 8.5-90 2q-108 0-178.5-20.5t-108.5-65.5-52.5-102.5-14.5-144.5z"/><glyph unicode=":" d="M508 111q0 63 21 81.5t83 18.5q66 0 87.5-18t21.5-82q0-69-22-90t-87-21q-61 0-82.5 21.5t-21.5 89.5zm0 823q0 63 21 81.5t83 18.5q66 0 87.5-18t21.5-82q0-70-22-90.5t-87-20.5q-61 0-82.5 21t-21.5 90z"/><glyph unicode=";" d="M440-326l160 527h186l-223-527h-123zm109 1260q0 63 21 81.5t83 18.5q66 0 87.5-18t21.5-82q0-70-22-90.5t-87-20.5q-61 0-82.5 21t-21.5 90z"/><glyph unicode="<" d="M199 696v70l749 596 80-88-655-541 655-545-76-90z"/><glyph unicode="=" d="M123 453v122h981v-122h-981zm0 421v123h981v-123h-981z"/><glyph unicode=">" d="M199 188l655 541-655 545 75 90 754-598v-70l-749-596z"/><glyph unicode="?" d="M225 1411q55 21 154.5 36t167.5 15q234 0 344-95.5t110-281.5q0-184-78-340.5t-266-338.5h-165q185 175 269.5 333t84.5 334q0 64-13 108.5t-45.5 79-92 51.5-148.5 17q-70 0-150-13t-131-36zm240-1300q0 63 21 81.5t83 18.5q66 0 87.5-18t21.5-82q0-69-22-90t-87-21q-61 0-82.5 21.5t-21.5 89.5z"/><glyph unicode="@" d="M27 543q0 175 21 302.5t60.5 212.5 103.5 136.5 142.5 72.5 184.5 21q81 0 134.5-11t101.5-43.5 74.5-93 42-159 15.5-242.5q0-139-11-233.5t-32-156-58.5-94.5-83-45.5-114.5-12.5q-111 0-175.5 29t-98 105.5-33.5 213.5q0 75 8 130t25.5 92 40 60.5 57.5 36 71 17 87 4.5q104 0 192-25-1 179-49.5 241t-179.5 62q-77 0-131-9.5t-100.5-35.5-75-69.5-49-114-29-166.5-8.5-229q0-152 15-256t45.5-176 86-111.5 128.5-56.5 181-17q95 0 162.5 12.5t120.5 44.5 86 80.5 54 126 29.5 175 8.5 233.5q0 279-43 440h135q41-168 41-444 0-185-23-320t-68-227-118-147.5-166-79-219-23.5-217.5 21.5-164.5 72.5-117 137-67 214-23 305zm411 8q0-144 31-189t141-45q40 0 66.5 5.5t46.5 21.5 31 37 17.5 60.5 8.5 83.5 2 114v109q-76 18-164 18-63 0-95.5-6t-53.5-31-26-63.5-5-114.5z"/><glyph unicode="A" d="M2 0q235 739 498 1427h231q274-880 496-1427h-154q-120 323-160 440h-641q-72-212-137-440h-133zm313 563h557q-87 263-235 750h-55q-178-482-267-750z"/><glyph unicode="B" d="M184 0v1427h584q83 0 144.5-18.5t98.5-48.5 59-75 30-91 8-104q0-57-5-97t-21.5-82.5-47-69-83-46.5-126.5-27q79-4 137-24.5t93-52.5 56-79.5 28.5-96.5 7.5-112q0-198-91.5-300.5t-264.5-102.5h-607zm148 123h456q201 0 201 283 0 136-51.5 217.5t-157.5 81.5h-448v-582zm0 702h436q53 0 91 20t58.5 56 29.5 77.5 9 92.5q0 116-41 175t-147 59h-436v-480z"/><glyph unicode="C" d="M170 727q0 173 27.5 300.5t77.5 210.5 127.5 133.5 168.5 70.5 211 20q174 0 359-55l-47-133q-135 55-310 55-69 0-120-6t-100.5-22-84-44-64.5-73-47.5-108.5-27.5-150-10-198.5q0-155 19.5-265t53.5-179 92.5-108.5 125.5-54 163-14.5q169 0 310 54l47-131q-184-58-359-58-118 0-210 22.5t-169.5 76-127.5 139.5-77.5 216-27.5 302z"/><glyph unicode="D" d="M164 0v1427h338q138 0 240-21t184.5-70 133.5-130.5 78-202.5 27-286-26.5-286.5-78-204-133-133-184.5-72-241-21.5h-338zm147 123h191q143 0 235 26.5t155 94.5 89.5 182 26.5 291q0 125-11.5 216.5t-38.5 157.5-64.5 107-97.5 65-128.5 33-165.5 9h-191v-1182z"/><glyph unicode="E" d="M227 0v1427h875v-122h-727v-480h485v-123h-485v-579h727v-123h-875z"/><glyph unicode="F" d="M236 0v1427h860v-122h-713v-549h485v-123h-485v-633h-147z"/><glyph unicode="G" d="M131 727q0 173 27.5 300.5t77.5 210.5 127.5 133.5 168.5 70.5 211 20q174 0 359-55l-47-129q-62 24-150.5 38.5t-159.5 14.5q-81 0-138.5-8.5t-111.5-31.5-89.5-65.5-62.5-109-39.5-163-12.5-226.5q0-155 19-265.5t54-180 93-109.5 125.5-55 162.5-15q128 0 246 31v514h-352v119h500v-735q-225-60-396-60-118 0-210 22.5t-169.5 76-127.5 139.5-77.5 216-27.5 302z"/><glyph unicode="H" d="M150 0v1427h147v-596h635v596h145v-1427h-145v698h-635v-698h-147z"/><glyph unicode="I" d="M184 0v123h357v1182h-357v122h860v-122h-356v-1182h356v-123h-860z"/><glyph unicode="J" d="M281 33l49 137q43-23 110-38t119-15q37 0 67.5 5.5t63.5 23.5 55.5 47 37 80 14.5 120v912h-510v122h661v-1034q0-102-22-178.5t-57-122.5-87.5-73.5-105-37.5-117.5-10q-135 0-278 62z"/><glyph unicode="K" d="M180 0v1427h148v-1427h-148zm150 754q89 52 262.5 232.5t370.5 440.5h194q-491-575-610-655 71-40 247.5-241t415.5-531h-198q-226 330-412 528t-270 226z"/><glyph unicode="L" d="M274 0v1427h148v-1298h635v-129h-783z"/><glyph unicode="M" d="M125 0v1427h172q192-561 321-1030 151 575 324 1030h162v-1427h-121v1208q-189-587-315-1052h-115q-126 464-309 1052v-1208h-119z"/><glyph unicode="N" d="M135 0v1427h201q203-364 341-629t267-554v1183h150v-1427h-176q-79 177-175.5 370.5t-247.5 485.5-212 412v-1268h-148z"/><glyph unicode="O" d="M88 721q0 173 22.5 300.5t63.5 212 107 135.5 145.5 72 185.5 21q107 0 187-21t146-72 107.5-135.5 64-212 22.5-300.5q0-218-33-365.5t-102.5-231.5-163-118.5-228.5-34.5q-107 0-186.5 21.5t-145 73-107 136.5-63.5 214.5-22 304.5zm164-4q0-151 12.5-255.5t37.5-176.5 69-112 101-56.5 140-16.5q84 0 142 16.5t102.5 56.5 70 112 38 176.5 12.5 255.5q0 159-12.5 266t-37.5 178-70.5 109-102 52.5-142.5 14.5q-85 0-140.5-14.5t-100.5-52.5-69.5-109-37-178-12.5-266z"/><glyph unicode="P" d="M195 0v1427h534q406 0 406-462 0-88-21-163.5t-65.5-139.5-124-101-185.5-37h-397v-524h-147zm147 655h385q121 0 182.5 84.5t61.5 227.5q0 160-60 249t-174 89h-395v-650z"/><glyph unicode="Q" d="M88 721q0 173 22.5 300.5t63.5 212 107 135.5 145.5 72 185.5 21q107 0 187-21t146-72 107.5-135.5 64-212 22.5-300.5q0-174-21.5-302.5t-65-214-104.5-135.5-145-73q79-29 194.5-131t239.5-258h-188q-121 170-241.5 263t-203.5 101q-132 1-224 36t-160 119.5-100 231-32 363.5zm164-4q0-151 12.5-255.5t37.5-176.5 69-112 101-56.5 140-16.5q84 0 142 16.5t102.5 56.5 70 112 38 176.5 12.5 255.5q0 159-12.5 266t-37.5 178-70.5 109-102 52.5-142.5 14.5q-85 0-140.5-14.5t-100.5-52.5-69.5-109-37-178-12.5-266z"/><glyph unicode="R" d="M172 0v1427h514q115 0 196.5-33t126-92.5 64-130 19.5-157.5q0-79-21-144t-67-119-128.5-84-195.5-30q146-50 500-637h-185q-169 297-305.5 457.5t-216.5 160.5h-154v-618h-147zm147 748h357q124 0 188 71t64 197q0 140-62.5 214.5t-179.5 74.5h-367v-557z"/><glyph unicode="S" d="M106 1044q0 418 572 418 208 0 393-55l-41-133q-47 24-152 39.5t-198 15.5q-100 0-173-13t-129.5-44-85-86.5-28.5-136.5q0-75 31-123.5t112-80.5 220-42q257-20 375-118.5t118-295.5q0-418-579-418-97 0-210.5 16t-195.5 42l41 131q64-24 169.5-39t193.5-15q100 0 174 13t132.5 44 89 87 30.5 137q0 56-17 100.5t-56.5 83-112 62.5-175.5 31q-264 19-381 103.5t-117 276.5z"/><glyph unicode="T" d="M45 1305v122h1139v-122h-494v-1305h-149v1305h-496z"/><glyph unicode="U" d="M143 537v890h133v-892q0-168 33.5-262t106-133.5 200.5-39.5q189 0 263.5 95.5t74.5 339.5v892h131v-890q0-131-17.5-226t-52.5-161-92.5-105-132-56.5-176.5-17.5q-101 0-175 17.5t-132 57-93 105-53 161-18 225.5z"/><glyph unicode="V" d="M20 1427h156q252-642 442-1314 239 598 449 1314h137q-243-789-504-1427h-178q-111 372-245.5 755.5t-256.5 671.5z"/><glyph unicode="W" d="M8 1427h135q104-473 211-1140 6 32 43 215.5t50 251.5 40 210 44 250.5 30 212.5h121q20-119 63-351.5t75-425.5 52-363q76 357 117 579.5t94 560.5h125q-139-828-272-1427h-137q-18 149-42 308.5t-42 260.5-49 274.5-45 250.5q-14-120-38.5-261t-45.5-245-60-290.5-61-297.5h-135q-171 997-273 1427z"/><glyph unicode="X" d="M27 0q306 417 520 723-133 189-504 704h164q188-251 424-583 227 328 401 583h158q-242-367-479-696 267-380 499-731h-166q-61 91-130 193t-153.5 226-131.5 193q-192-268-443-612h-159z"/><glyph unicode="Y" d="M20 1427h175q218-283 430-624 214 285 424 624h159q-251-384-524-741v-686h-139v686q-242 375-525 741z"/><glyph unicode="Z" d="M96 0v59q470 652 842 1246h-791v122h983v-53q-418-685-839-1251h807v-123h-1002z"/><glyph unicode="[" d="M410-532v2078h409v-119h-268v-1843h268v-116h-409z"/><glyph unicode="\" d="M172 1427h156l727-1427h-152z"/><glyph unicode="]" d="M410-416h268v1843h-268v119h409v-2078h-409v116z"/><glyph unicode="^" d="M152 606l389 821h141l393-821h-141l-326 692-325-692h-131z"/><glyph unicode="_" d="M274-139h680v-123h-680v123z"/><glyph unicode="`" d="M408 1427h170l243-264h-141z"/><glyph unicode="a" d="M195 319q0 86 21 148.5t55.5 99.5 89.5 59 111 29 132 7q143 0 295-33 0 98-13 155.5t-50 92.5-92.5 47-149.5 12q-182 0-297-49l-39 125q177 51 344 51 117 0 195-18.5t132.5-64.5 78.5-123.5 24-194.5v-609q-83-37-200-59.5t-218-22.5q-228 0-323.5 75.5t-95.5 272.5zm149 11q0-64 8.5-104.5t26-68 52-41.5 77.5-19 113-5q148 0 278 47v377q-114 27-278 27-68 0-109-4t-77-16-54-36-27.5-61.5-9.5-95.5z"/><glyph unicode="b" d="M170 53v1426h133v-500q104 84 285 84 125 0 210-26.5t144.5-89.5 87-169 27.5-264-27.5-263.5-88-167-145-87-208.5-25.5q-98 0-217 22.5t-201 59.5zm133 88q119-43 285-43 77 0 127 10t90 36 61.5 74 32 119.5 10.5 178.5q0 128-15.5 207.5t-55 128-98 66.5-152.5 18q-121 0-203-38.5t-82-106.5v-650z"/><glyph unicode="c" d="M238 522q0 125 21.5 218t61.5 154.5 103 99.5 138.5 53.5 174.5 15.5q66 0 153.5-15t141.5-36l-43-125q-104 49-252 49-77 0-130-9.5t-98-36-70.5-73.5-39.5-120.5-14-178.5q0-125 20.5-207t65.5-129 108-65.5 158-18.5q131 0 252 54l43-123q-57-26-142-42t-153-16q-125 0-214.5 27t-155 89.5-97.5 170-32 264.5z"/><glyph unicode="d" d="M150 514q0 158 27 264t86.5 169 144.5 89.5 210 26.5q181 0 285-84v500h133v-1426q-82-37-201-59.5t-217-22.5q-124 0-208.5 25.5t-144.5 87-87.5 167-27.5 263.5zm147 2q0-107 10.5-178.5t32-119.5 61.5-74 90-36 127-10q166 0 285 43v650q0 68-82 106.5t-203 38.5q-94 0-152.5-18t-98-66.5-55-128-15.5-207.5z"/><glyph unicode="e" d="M184 522q0 151 29 255.5t89 167.5 144.5 90.5 202.5 27.5q114 0 190-25.5t130-89 78-171.5 24-273h-739q1-125 20.5-205t65-125 106.5-61.5 156-16.5q58 0 145.5 16t151.5 40l31-123q-79-25-177-41.5t-163-16.5q-97 0-171 16.5t-134.5 55.5-99 102-59 157-20.5 220zm150 103h586q-5 98-20.5 158t-49 95-80 47.5-121.5 12.5q-165 0-234-66.5t-81-246.5z"/><glyph unicode="f" d="M199 911v123h264v96q0 87 22.5 151t56 100 84.5 57.5 97 28 104 6.5q134 0 246-33l-35-117q-37 11-100.5 19t-110.5 8q-41 0-69.5-3t-61.5-16-53-35.5-33.5-64.5-13.5-101v-96h416v-123h-416v-911h-133v911h-264z"/><glyph unicode="g" d="M170 522q0 157 27.5 262t88 166.5 145 87 208.5 25.5q98 0 217-22.5t201-59.5v-905q0-141-34-238t-102.5-152-159-78.5-216.5-23.5q-69 0-173.5 18t-160.5 42l39 127q51-25 142.5-42.5t152.5-17.5q96 0 162.5 15.5t117 53.5 75 106.5 24.5 170.5q-107-86-285-86-125 0-210 26.5t-144.5 90-87 169.5-27.5 265zm147-4q0-169 31-259t98.5-125.5 192.5-35.5q121 0 203 39.5t82 108.5v647q-119 43-285 43-77 0-127-10t-90-35.5-61.5-73.5-32.5-120-11-179z"/><glyph unicode="h" d="M201 0v1479h133v-500q42 34 125.5 59t175.5 25q109 0 180-21.5t120-76.5 70-147 21-234v-584h-133v557q0 159-26 239.5t-81.5 110-164.5 29.5q-117 0-202-39t-85-106v-791h-133z"/><glyph unicode="i" d="M242 0h856v123h-357v911h-499v-123h366v-788h-366v-123zm350 1348q0 51 17 65t69 14q50 0 67-14.5t17-64.5q0-55-17.5-71.5t-66.5-16.5q-51 0-68.5 16.5t-17.5 71.5z"/><glyph unicode="j" d="M233-371l41 125q38-20 96-33.5t103-13.5q41 0 73.5 8.5t64.5 32 49.5 73 17.5 122.5v968h-367v123h500v-1091q0-88-19.5-153.5t-50-104-76.5-62-91-31.5-101-8q-134 0-240 45zm429 1719q0 51 17 65t69 14q50 0 66.5-14.5t16.5-64.5q0-55-17-71.5t-66-16.5q-51 0-68.5 16.5t-17.5 71.5z"/><glyph unicode="k" d="M250 0v1479h133v-1479h-133zm133 547q107-37 522-547h172q-407 511-510 565 53 34 176.5 155.5t296.5 313.5h-172q-370-410-485-487z"/><glyph unicode="l" d="M242 0v123h366v1233h-366v123h499v-1356h357v-123h-856z"/><glyph unicode="m" d="M53 0v981q171 82 312 82 132 0 217-72 162 72 280 72 154 0 235-86.5t81-290.5v-686h-134v682q0 146-50.5 200t-172.5 54q-82 0-170-43 35-79 35-277v-616h-117v618q0 92-14.5 155.5t-42.5 98.5-63.5 49.5-83.5 14.5q-89 0-179-33v-903h-133z"/><glyph unicode="n" d="M201 0v981q82 37 200.5 59.5t216.5 22.5q116 0 190.5-21.5t125-76.5 71.5-146.5 21-234.5v-584h-133v557q0 121-13 192.5t-49.5 114.5-90.5 57.5-146 14.5q-148 0-260-35v-901h-133z"/><glyph unicode="o" d="M143 522q0 157 27.5 262t88 166.5 145 87 208.5 25.5q100 0 173-16t131.5-53 94-99.5 54-154.5 18.5-218q0-159-27.5-265t-87.5-169.5-145-90-211-26.5q-125 0-210 26.5t-144.5 90-87 169.5-27.5 265zm148-4q0-128 15.5-208.5t54.5-129.5 98-67.5 153-18.5q126 0 194 36.5t99 127 31 260.5q0 134-15.5 215t-56 128-98 63-154.5 16q-76 0-126.5-10.5t-90.5-36.5-61.5-74.5-32-121-10.5-179.5z"/><glyph unicode="p" d="M190-393v1374q82 37 201 59.5t217 22.5q124 0 208.5-25.5t145-87 88-166.5 27.5-262q0-159-27.5-265t-87-169.5-144.5-90-210-26.5q-177 0-284 86v-450h-134zm134 639q0-69 81.5-108.5t202.5-39.5q125 0 192.5 35.5t98.5 125.5 31 259q0 107-11 179t-32.5 120-61.5 73.5-90 35.5-127 10q-165 0-284-43v-647z"/><glyph unicode="q" d="M170 522q0 157 27.5 262t88 166.5 145 87 208.5 25.5q98 0 217-22.5t201-59.5v-1374h-133v450q-107-86-285-86-125 0-210 26.5t-144.5 90-87 169.5-27.5 265zm147-4q0-169 31-259t98.5-125.5 192.5-35.5q121 0 203 39.5t82 108.5v647q-119 43-285 43-77 0-127-10t-90-35.5-61.5-73.5-32.5-120-11-179z"/><glyph unicode="r" d="M203 911v123h381v-215q25 109 129.5 176.5t230.5 67.5q77 0 127-6v-137q-62 8-127 8-165 0-262.5-103t-97.5-268v-557h-133v911h-248z"/><glyph unicode="s" d="M223 741q0 177 100 249.5t310 72.5q152 0 340-53l-45-127q-145 57-295 57-72 0-116.5-6.5t-80.5-25.5-51.5-56.5-15.5-97.5q0-77 59.5-114t198.5-46q202-14 292.5-83.5t90.5-213.5q0-180-94.5-253t-305.5-73q-82 0-190.5 15.5t-181.5 40.5l41 125q54-25 152.5-42.5t178.5-17.5q54 0 91.5 4.5t70 16.5 52 33.5 30 55.5 10.5 83q0 86-54.5 127t-199.5 53q-199 14-293 75t-94 201z"/><glyph unicode="t" d="M184 911v123h244v217l133 56v-273h445v-123h-445v-563q0-143 50-196.5t163-53.5q132 0 217 31l31-119q-45-15-119-27t-129-12q-93 0-154.5 16t-106.5 57-65 114.5-20 187.5v565h-244z"/><glyph unicode="u" d="M201 451v583h133v-557q0-121 13-192.5t49.5-114.5 90-57.5 144.5-14.5q152 0 262 37v899h133v-981q-83-37-202.5-59.5t-215.5-22.5q-154 0-240 42t-126.5 146-40.5 292z"/><glyph unicode="v" d="M143 1034h150q171-397 317-907 228 550 328 907h145q-123-408-385-1034h-188q-201 687-367 1034z"/><glyph unicode="w" d="M10 1034h142q132-445 204-866 49 177 105.5 438.5t83.5 427.5h153q113-414 191-866 42 142 79.5 300t58.5 266.5 56 299.5h138q-128-614-269-1034h-149q-34 206-87 457.5t-93 402.5q-70-371-207-860h-152q-130 628-254 1034z"/><glyph unicode="x" d="M145 0q210 243 416 518-181 245-416 516h185q206-258 311-405 127 172 279 405h161q-182-269-362-510 147-198 364-524h-165q-128 205-281 416-116-155-328-416h-164z"/><glyph unicode="y" d="M143 1034h150q160-360 319-915 219 527 326 915h145q-126-420-385-1034-82-200-186-393h-156q77 142 168 344-200 708-381 1083z"/><glyph unicode="z" d="M186 0v55q186 225 366 463.5t279 392.5h-612v123h821v-51q-137-210-329.5-472.5t-302.5-387.5h634v-123h-856z"/><glyph unicode="{" d="M317 455v108q49 0 86.5 19t69.5 63.5 49 127.5 17 202q0 246 83 386.5t222 186.5l65-108q-55-15-94.5-43t-72-79.5-48.5-137-16-205.5q0-98-12.5-178t-31-129-44-84.5-47.5-51-45-22.5q23-7 45-22.5t47.5-51 44-84.5 31-129 12.5-178q0-120 16-205.5t48.5-137 72-79.5 94.5-43l-65-108q-139 46-222 186.5t-83 386.5q0 119-17 202t-49 127.5-69.5 63.5-86.5 19v-2z"/><glyph unicode="|" d="M541-524v2070h145v-2070h-145z"/><glyph unicode="}" d="M317-420q55 15 94.5 43t72 79.5 49 137 16.5 205.5q0 98 12.5 178t31 129 44 84.5 47.5 51 45 22.5q-23 7-45 22.5t-47.5 51-44 84.5-31 129-12.5 178q0 120-16.5 205.5t-49 137-72 79.5-94.5 43l66 108q139-46 222-186.5t83-386.5q0-119 17-202t48.5-127.5 69-63.5 86.5-19v-108 2q-49 0-86.5-19t-69-63.5-48.5-127.5-17-202q0-246-83-386.5t-222-186.5z"/><glyph unicode="~" d="M117 717q55 94 110 137t133 43q57 0 158.5-44t198.5-88 143-44q100 0 154 149l96-71q-37-99-105.5-153t-160.5-54q-53 0-154.5 45.5t-200.5 91-147 45.5q-83 0-139-133z"/><glyph/><glyph unicode="¡" d="M506 952q0 69 22 90t86 21q61 0 84-21.5t23-89.5q0-63-22.5-81.5t-84.5-18.5q-64 0-86 18t-22 82zm12-1317l45 1022h103l45-1022h-193z"/><glyph unicode="¢" d="M217 803q0 139 26 238.5t78.5 161 124.5 93 172 41.5v213h125v-207q63-3 140.5-17.5t128.5-33.5l-43-125q-95 43-226 50v-838q124 6 226 53l43-123q-52-24-126.5-39t-142.5-18v-252h-125v256q-100 10-172.5 43.5t-125 97.5-78 165-25.5 241zm148-4q0-210 59.5-302.5t193.5-111.5v825q-91-10-144-48.5t-81-126-28-236.5z"/><glyph unicode="£" d="M88 655v123h139v228q0 454 521 454 208 0 393-55l-41-133q-47 24-152 39.5t-198 15.5q-191 0-283-78t-92-243v-228h393v-123h-393v-532h737v-123h-885v655h-139z"/><glyph unicode="¤" d="M49 96l189 232q-84 127-84 395 0 258 79 383l-180 240 115 81 168-223q103 60 287 60 178 0 278-54l154 217 112-79-161-232q88-125 88-393 0-271-88-399l172-228-109-96-170 225q-103-53-276-53-189 0-289 61l-189-233zm252 623q0-169 31-259t98.5-125.5 192.5-35.5q95 0 154 18t98.5 66.5 55 128 15.5 207.5q0 89-6.5 153t-23 111.5-40 76.5-61.5 46.5-83 24-109 6.5q-77 0-127-10t-90-35.5-61.5-73.5-32.5-120-11-179z"/><glyph unicode="¥" d="M-16 1427h186q243-299 457-624 235 296 450 624h170q-273-388-493-663h352v-123h-416v-197h416v-122h-416v-322h-149v322h-416v122h416v197h-416v123h362q-235 334-503 663z"/><glyph unicode="¦" d="M541 227h145v-751h-145v751zm0 568v751h145v-751h-145z"/><glyph unicode="§" d="M96 1053q0 204 151.5 306.5t420.5 102.5q208 0 393-55l-41-133q-47 24-152 39.5t-198 15.5q-98 0-172.5-14t-130.5-45.5-84.5-84.5-28.5-128q0-69 31-113t111.5-72.5 219.5-37.5q263-19 388.5-105.5t125.5-263.5q0-130-81-244 84-78 84-227 0-204-151.5-307t-420.5-103q-205 0-393 56l41 133q48-24 153-40t197-16q98 0 172.5 14.5t130 46 84.5 84.5 29 128q0 69-31 113t-112 72.5-220 37.5q-263 19-388.5 105.5t-125.5 263.5q0 123 80 241-82 82-82 230zm158-469q0-110 86.5-165.5t294.5-68.5q193-12 309-61 31 83 31 174 0 110-86.5 165t-294.5 68q-196 12-309 60-31-74-31-172z"/><glyph unicode="¨" d="M336 1266q0 51 17 65.5t69 14.5q50 0 67-15t17-65q0-55-17.5-71.5t-66.5-16.5q-51 0-68.5 16.5t-17.5 71.5zm387 0q0 51 17 65.5t69 14.5q50 0 67-15t17-65q0-55-17.5-71.5t-66.5-16.5q-51 0-68.5 16.5t-17.5 71.5z"/><glyph unicode="©" d="M18 721q0 217 34.5 361t111 228 184 118 268.5 34 268.5-34 184-118 111-228 34.5-361q0-177-23-304.5t-67.5-214-118.5-137.5-167-72.5-222-21.5-222 21.5-167 72.5-118.5 137.5-67.5 214-23 304.5zm119-4q0-188 25.5-308t85-190.5 146-97.5 220.5-27q136 0 223.5 27t148 97.5 86.5 191 26 307.5q0 132-11 228.5t-37.5 167-62.5 115.5-93 71.5-123 36.5-157 10q-90 0-155-10t-121-36.5-92-71.5-61.5-115.5-36.5-167-11-228.5zm135 8q0 138 22 230.5t69 146 111.5 76 158.5 22.5q50 0 117.5-13t107.5-30l-29-129q-72 41-196 41-69 0-109.5-12.5t-69.5-50-40-104.5-11-179q0-142 22.5-217t70-104 137.5-29q107 0 196 47l29-125q-43-20-108.5-34.5t-116.5-14.5q-93 0-158 23t-112 78-69 148-22 230z"/><glyph unicode="ª" d="M319 942q0 60 15 104t39.5 70 63 41 77.5 20 92 5q101 0 207-23 0 68-10.5 109t-37 65-64.5 32.5-101 8.5q-129 0-209-35l-26 88q138 35 241 35 83 0 136.5-12t92.5-43.5 55.5-86 16.5-138.5v-426q-59-26-141-42t-152-16q-162 0-228.5 51.5t-66.5 192.5zm107 8q0-93 41-130.5t151-37.5q94 0 195 33v264q-72 19-195 19-39 0-65.5-2.5t-52.5-11.5-41-24.5-24-43-9-66.5z"/><glyph unicode="«" d="M74 612l549 549 79-88-444-455 444-466-75-91zm450 0l549 549 80-88-444-455 444-466-76-91z"/><glyph unicode="¬" d="M182 705v120h865v-825h-150v705h-715z"/><glyph unicode="­" d="M336 502v123h555v-123h-555z"/><glyph unicode="®" d="M164 985q0 139 26.5 231.5t84.5 146 138.5 75.5 198.5 22q120 0 201-22t139.5-75.5 85.5-146 27-231.5q0-138-26.5-230.5t-84.5-147.5-140-78-202-23q-119 0-200 23t-138.5 78-83.5 147.5-26 230.5zm121 0q0-113 17.5-184.5t58.5-114 100-58.5 151-16q95 0 155.5 16t102.5 58.5 59 114 17 184.5q0 119-17 191.5t-59.5 113-101.5 54.5-156 14q-94 0-151.5-14t-99.5-54.5-59-113.5-17-191zm118-264v530h306q70 0 104.5-49.5t34.5-126.5q0-170-133-170 59-26 141-184h-141q-29 62-68.5 121t-64.5 59h-62v-180h-117zm117 268h150q59 0 59 84 0 78-59 78h-150v-162z"/><glyph unicode="¯" d="M356 1200v119h514v-119h-514z"/><glyph unicode="°" d="M299 1022q0 129 19.5 216t61.5 135.5 97.5 68.5 136.5 20 137-20 98-68.5 61.5-135 19.5-216.5-20-219-61-140.5-97.5-73.5-137.5-22q-64 0-112 13.5t-87.5 45.5-64 84-38 129.5-13.5 182.5zm125-4q0-192 44-268t146-76q106 0 148.5 75t42.5 269q0 139-20 212t-59 98.5-112 25.5q-71 0-109.5-25.5t-59.5-99-21-211.5z"/><glyph unicode="±" d="M123 82v123h981v-123h-981zm0 733v123h426v430h127v-430h428v-123h-428v-428h-127v428h-426z"/><glyph unicode="²" d="M301 586q11 108 36 182t70 123 95.5 77.5 128.5 55.5q90 30 123.5 77t33.5 116q0 68-50 96t-165 28q-57 0-121-9t-92-23l-22 121q132 32 237 32 188 0 268.5-57t80.5-188q0-104-54.5-175.5t-177.5-117.5q-60-23-95-40t-70-43-52.5-60.5-23.5-82.5h475v-112h-625z"/><glyph unicode="³" d="M313 608l21 105q113-37 244-37 115 0 158.5 32.5t43.5 127.5q0 89-47 117t-184 28h-57v111h57q123 0 167 28.5t44 110.5q0 75-39.5 100t-147.5 25q-57 0-101-5t-66.5-11-61.5-19l-22 104q130 37 253 37 169 0 242.5-51t73.5-158q0-98-36-149.5t-142-61.5q114-6 158-61.5t44-159.5q0-139-81.5-195.5t-258.5-56.5q-137 0-262 39z"/><glyph unicode="´" d="M408 1163l243 264h170l-272-264h-141z"/><glyph unicode="µ" d="M201-393v1427h133v-557q0-121 13-192.5t49.5-114.5 90-57.5 144.5-14.5q150 0 260 37v899h135v-981q-83-37-202.5-59.5t-215.5-22.5q-182 0-270 60v-424h-137z"/><glyph unicode="¶" d="M92 965q0 462 406 462h637v-1427h-148v524h-199v-524h-147v524h-154q-106 0-185.5 37t-123.5 101-65 139.5-21 163.5z"/><glyph unicode="·" d="M500 616q0 68 23 88.5t89 20.5q70 0 93.5-20.5t23.5-88.5q0-73-24-95.5t-93-22.5q-65 0-88.5 22.5t-23.5 95.5z"/><glyph unicode="¸" d="M377-373l37 86q68-35 180-35 67 0 92 13.5t25 56.5q0 31-21 46t-76 19.5-151-1.5l74 188h69v-96q142 0 193-31.5t51-122.5q0-94-58-130t-198-36q-143 0-217 43z"/><glyph unicode="¹" d="M438 1339l353 152v-889h-132v715l-190-92z"/><glyph unicode="º" d="M285 1083q0 147 36.5 230.5t105.5 116 185 32.5q88 0 147-17.5t101.5-60.5 62-116.5 19.5-184.5q0-217-77-301t-253-84q-117 0-186 34t-105 119-36 232zm123-2q0-163 41.5-218.5t162.5-55.5q122 0 164.5 56t42.5 218q0 117-19 174.5t-61 78-127 20.5q-43 0-71.5-4t-53-15.5-38.5-30-24-50-13.5-73-3.5-100.5z"/><glyph unicode="»" d="M74 152l444 454-444 467 76 90 552-551-548-549zm450 0l445 454-445 467 76 90 553-551-549-549z"/><glyph unicode="¼" d="M16 1339l301 152v-889h-110v715l-164-92zm123-1339l692 1427h123l-690-1427h-125zm455 229v39q139 275 350 588h156v-514h106v-113h-106v-229h-109v229h-397zm145 113h252v418q-143-204-252-418z"/><glyph unicode="½" d="M12 1339l295 152v-889h-110v715l-158-92zm119-1339l678 1427h123l-678-1427h-123zm559 0h524v113h-399q5 48 20 82.5t44 60 58.5 42.5 80.5 40q104 46 149 117t45 176q0 132-67 189t-225 57q-87 0-199-33l18-121q24 14 79 23.5t102 9.5q96 0 137-28.5t41-96.5q0-69-27.5-116t-103.5-77q-66-27-108.5-55.5t-80-77.5-58.5-123-30-182z"/><glyph unicode="¾" d="M16 608l17 105q98-37 211-37 98 0 135 32.5t37 127.5q0 89-40 117t-157 28h-49v111h49q104 0 141 28.5t37 110.5q0 75-32.5 100t-124.5 25q-49 0-87-5.5t-57-11-53-18.5l-18 104q105 37 217 37 144 0 206-51t62-158q0-98-31-149.5t-121-61.5q97-6 135.5-62t38.5-159q0-139-69.5-195.5t-220.5-56.5q-123 0-226 39zm236-608l690 1427h125l-690-1427h-125zm352 229v39q161 309 352 588h154v-514h107v-113h-107v-229h-106v229h-400zm146 113h254v418q-150-215-254-418z"/><glyph unicode="¿" d="M225-23q0 184 78 341t266 339h166q-185-175-269.5-333t-84.5-334q0-64 13-108.5t45.5-79 92-51.5 148.5-17q70 0 150 13t131 36l40-131q-55-21-154-36t-167-15q-234 0-344.5 95t-110.5 281zm324 975q0 69 21.5 90t86.5 21q61 0 83-21.5t22-89.5q0-63-21.5-81.5t-83.5-18.5q-65 0-86.5 18t-21.5 82z"/><glyph unicode="À" d="M2 0h133q65 228 137 440h641q40-117 160-440h154q-222 547-496 1427h-231q-263-688-498-1427zm279 1794h190l299-264h-162zm34-1231q89 268 267 750h55q148-487 235-750h-557z"/><glyph unicode="Á" d="M2 0h133q65 228 137 440h641q40-117 160-440h154q-222 547-496 1427h-231q-263-688-498-1427zm313 563q89 268 267 750h55q148-487 235-750h-557zm136 967l274 264h188l-325-264h-137z"/><glyph unicode="Â" d="M2 0h133q65 228 137 440h641q40-117 160-440h154q-222 547-496 1427h-231q-263-688-498-1427zm281 1530l249 264h148l258-264h-162l-172 184-166-184h-155zm32-967q89 268 267 750h55q148-487 235-750h-557z"/><glyph unicode="Ã" d="M2 0h133q65 228 137 440h641q40-117 160-440h154q-222 547-496 1427h-231q-263-688-498-1427zm260 1610q47 84 93.5 123t111.5 39q39 0 81.5-20.5t74-45.5 70.5-45.5 71-20.5q40 0 71 31t56 105l82-66q-31-88-89.5-137t-135.5-49q-35 0-77 21.5t-74.5 47-72.5 47-71 21.5q-71 0-119-121zm53-1047q89 268 267 750h55q148-487 235-750h-557z"/><glyph unicode="Ä" d="M2 0h133q65 228 137 440h641q40-117 160-440h154q-222 547-496 1427h-231q-263-688-498-1427zm313 563q89 268 267 750h55q148-487 235-750h-557zm21 1092q0 51 17 65.5t69 14.5q50 0 67-14.5t17-65.5q0-55-17.5-71.5t-66.5-16.5q-51 0-68.5 16.5t-17.5 71.5zm387 0q0 51 17 65.5t69 14.5q50 0 67-14.5t17-65.5q0-55-17.5-71.5t-66.5-16.5q-51 0-68.5 16.5t-17.5 71.5z"/><glyph unicode="Å" d="M2 0q235 739 498 1427h231q274-880 496-1427h-154q-120 323-160 440h-641q-72-212-137-440h-133zm313 563h557q-87 263-235 750h-55q-178-482-267-750zm70 1032q0 99 51.5 146t171.5 47q110 0 168-48.5t58-144.5-58-144-168-48q-109 0-166 48t-57 144zm107-4q0-51 26-78.5t90-27.5q67 0 94 27.5t27 78.5q0 54-26.5 79.5t-94.5 25.5q-65 0-90.5-25.5t-25.5-79.5z"/><glyph unicode="Æ" d="M16 0q289 756 574 1427h633v-122h-412v-480h229v-120h-229v-582h412v-123h-529v440h-389q-104-265-166-440h-123zm336 563h342v750h-39q-190-464-303-750z"/><glyph unicode="Ç" d="M170 727q0 173 27.5 300.5t77.5 210.5 127.5 133.5 168.5 70.5 211 20q174 0 359-55l-47-133q-135 55-310 55-69 0-120-6t-100.5-22-84-44-64.5-73-47.5-108.5-27.5-150-10-198.5q0-155 19.5-265t53.5-179 92.5-108.5 125.5-54 163-14.5q169 0 310 54l47-131q-184-58-359-58-118 0-210 22.5t-169.5 76-127.5 139.5-77.5 216-27.5 302zm391-1100l37 86q68-35 180-35 67 0 92 13.5t25 56.5q0 31-21 46t-76 19.5-151-1.5l74 188h70v-96q142 0 192.5-31.5t50.5-122.5q0-94-58-130t-198-36q-143 0-217 43z"/><glyph unicode="È" d="M227 0h875v123h-727v579h485v123h-485v480h727v122h-875v-1427zm109 1794h190l299-264h-161z"/><glyph unicode="É" d="M227 0h875v123h-727v579h485v123h-485v480h727v122h-875v-1427zm316 1530l274 264h189l-326-264h-137z"/><glyph unicode="Ê" d="M227 0h875v123h-727v579h485v123h-485v480h727v122h-875v-1427zm115 1530l250 264h147l258-264h-161l-172 184-166-184h-156z"/><glyph unicode="Ë" d="M227 0h875v123h-727v579h485v123h-485v480h727v122h-875v-1427zm191 1655q0 51 17 65.5t69 14.5q50 0 67-14.5t17-65.5q0-55-17.5-71.5t-66.5-16.5q-51 0-68.5 16.5t-17.5 71.5zm387 0q0 51 17 65.5t69 14.5q50 0 67-14.5t17-65.5q0-55-17.5-71.5t-66.5-16.5q-51 0-68.5 16.5t-17.5 71.5z"/><glyph unicode="Ì" d="M184 0h860v123h-356v1182h356v122h-860v-122h357v-1182h-357v-123zm90 1794h191l299-264h-162z"/><glyph unicode="Í" d="M184 0h860v123h-356v1182h356v122h-860v-122h357v-1182h-357v-123zm295 1530l275 264h188l-326-264h-137z"/><glyph unicode="Î" d="M184 0h860v123h-356v1182h356v122h-860v-122h357v-1182h-357v-123zm103 1530l250 264h147l258-264h-162l-172 184-166-184h-155z"/><glyph unicode="Ï" d="M184 0h860v123h-356v1182h356v122h-860v-122h357v-1182h-357v-123zm152 1655q0 51 17 65.5t69 14.5q50 0 67-14.5t17-65.5q0-55-17.5-71.5t-66.5-16.5q-51 0-68.5 16.5t-17.5 71.5zm387 0q0 51 17 65.5t69 14.5q50 0 67-14.5t17-65.5q0-55-17.5-71.5t-66.5-16.5q-51 0-68.5 16.5t-17.5 71.5z"/><glyph unicode="Ð" d="M6 684v113h111v630h440q138 0 240-21t184.5-70 134-130.5 78.5-202.5 27-286-27-286.5-78-204-133-133-185-72-241-21.5h-440v684h-111zm258-561h293q143 0 235 26.5t155 94.5 89.5 182 26.5 291q0 125-11.5 216t-39 156.5-64.5 106-97.5 64-128.5 32-165 8.5h-293v-503h332v-113h-332v-561z"/><glyph unicode="Ñ" d="M135 0v1427h201q203-364 341-629t267-554v1183h150v-1427h-176q-79 177-175.5 370.5t-247.5 485.5-212 412v-1268h-148zm139 1610q47 84 93.5 123t111.5 39q39 0 81.5-20.5t74-45.5 70.5-45.5 71-20.5q40 0 71 31t56 105l82-66q-31-88-89.5-137t-135.5-49q-35 0-77 21.5t-74.5 47-72.5 47-71 21.5q-71 0-119-121z"/><glyph unicode="Ò" d="M88 721q0-175 22-304.5t63.5-214.5 107-136.5 145-73 186.5-21.5q135 0 228.5 34.5t163 118.5 102.5 231.5 33 365.5q0 173-22.5 300.5t-64 212-107.5 135.5-146 72-187 21q-106 0-185.5-21t-145.5-72-107-135.5-63.5-212-22.5-300.5zm164-4q0 159 12.5 266t37 178 69.5 109 100.5 52.5 140.5 14.5q86 0 142.5-14.5t102-52.5 70.5-109 37.5-178 12.5-266q0-151-12.5-255.5t-38-176.5-70-112-102.5-56.5-142-16.5q-83 0-140 16.5t-101 56.5-69 112-37.5 176.5-12.5 255.5zm90 1077h190l299-264h-161z"/><glyph unicode="Ó" d="M88 721q0-175 22-304.5t63.5-214.5 107-136.5 145-73 186.5-21.5q135 0 228.5 34.5t163 118.5 102.5 231.5 33 365.5q0 173-22.5 300.5t-64 212-107.5 135.5-146 72-187 21q-106 0-185.5-21t-145.5-72-107-135.5-63.5-212-22.5-300.5zm164-4q0 159 12.5 266t37 178 69.5 109 100.5 52.5 140.5 14.5q86 0 142.5-14.5t102-52.5 70.5-109 37.5-178 12.5-266q0-151-12.5-255.5t-38-176.5-70-112-102.5-56.5-142-16.5q-83 0-140 16.5t-101 56.5-69 112-37.5 176.5-12.5 255.5zm180 813l275 264h188l-326-264h-137z"/><glyph unicode="Ô" d="M88 721q0-175 22-304.5t63.5-214.5 107-136.5 145-73 186.5-21.5q135 0 228.5 34.5t163 118.5 102.5 231.5 33 365.5q0 173-22.5 300.5t-64 212-107.5 135.5-146 72-187 21q-106 0-185.5-21t-145.5-72-107-135.5-63.5-212-22.5-300.5zm164-4q0 159 12.5 266t37 178 69.5 109 100.5 52.5 140.5 14.5q86 0 142.5-14.5t102-52.5 70.5-109 37.5-178 12.5-266q0-151-12.5-255.5t-38-176.5-70-112-102.5-56.5-142-16.5q-83 0-140 16.5t-101 56.5-69 112-37.5 176.5-12.5 255.5zm33 813l250 264h147l258-264h-162l-172 184-166-184h-155z"/><glyph unicode="Õ" d="M88 721q0-175 22-304.5t63.5-214.5 107-136.5 145-73 186.5-21.5q135 0 228.5 34.5t163 118.5 102.5 231.5 33 365.5q0 173-22.5 300.5t-64 212-107.5 135.5-146 72-187 21q-106 0-185.5-21t-145.5-72-107-135.5-63.5-212-22.5-300.5zm164-4q0 159 12.5 266t37 178 69.5 109 100.5 52.5 140.5 14.5q86 0 142.5-14.5t102-52.5 70.5-109 37.5-178 12.5-266q0-151-12.5-255.5t-38-176.5-70-112-102.5-56.5-142-16.5q-83 0-140 16.5t-101 56.5-69 112-37.5 176.5-12.5 255.5zm6 893q47 84 93.5 123t111.5 39q39 0 81.5-20.5t74-45.5 70.5-45.5 71-20.5q40 0 71 31t56 105l82-66q-31-88-90-137t-136-49q-35 0-76.5 21.5t-74 47-72.5 47-71 21.5q-71 0-119-121z"/><glyph unicode="Ö" d="M88 721q0-175 22-304.5t63.5-214.5 107-136.5 145-73 186.5-21.5q135 0 228.5 34.5t163 118.5 102.5 231.5 33 365.5q0 173-22.5 300.5t-64 212-107.5 135.5-146 72-187 21q-106 0-185.5-21t-145.5-72-107-135.5-63.5-212-22.5-300.5zm164-4q0 159 12.5 266t37 178 69.5 109 100.5 52.5 140.5 14.5q86 0 142.5-14.5t102-52.5 70.5-109 37.5-178 12.5-266q0-151-12.5-255.5t-38-176.5-70-112-102.5-56.5-142-16.5q-83 0-140 16.5t-101 56.5-69 112-37.5 176.5-12.5 255.5zm76 938q0 51 17 65.5t69 14.5q50 0 67-14.5t17-65.5q0-55-17.5-71.5t-66.5-16.5q-51 0-68.5 16.5t-17.5 71.5zm387 0q0 51 17 65.5t69 14.5q50 0 67-14.5t17-65.5q0-55-17.5-71.5t-66.5-16.5q-51 0-68.5 16.5t-17.5 71.5z"/><glyph unicode="×" d="M223 434l301 303-301 301 88 86 301-301 303 305 91-90-304-305 304-301-88-88-304 303-301-303z"/><glyph unicode="Ø" d="M6 0l162 215q-80 174-80 506 0 173 22.5 300.5t63.5 212 107 135.5 145.5 72 185.5 21q132 0 226.5-34t158.5-113l86 112h140l-162-213q78-176 78-493 0-218-33-365.5t-102.5-231.5-163-118.5-228.5-34.5q-263 0-383 144l-88-115h-135zm246 717q0-223 27-355l630 836q-39 79-109 109t-188 30q-85 0-140.5-14.5t-100.5-52.5-69.5-109-37-178-12.5-266zm70-479q41-76 110.5-107t179.5-31q84 0 142 16.5t102.5 56.5 70 112 38 176.5 12.5 255.5q0 220-27 352z"/><glyph unicode="Ù" d="M143 537q0-130 18-225.5t53-161 93-105 132-57 175-17.5q102 0 176.5 17.5t132 56.5 92.5 105 52.5 161 17.5 226v890h-131v-892q0-244-74.5-339.5t-263.5-95.5q-128 0-200.5 39.5t-106 133.5-33.5 262v892h-133v-890zm197 1257h190l299-264h-161z"/><glyph unicode="Ú" d="M143 537q0-130 18-225.5t53-161 93-105 132-57 175-17.5q102 0 176.5 17.5t132 56.5 92.5 105 52.5 161 17.5 226v890h-131v-892q0-244-74.5-339.5t-263.5-95.5q-128 0-200.5 39.5t-106 133.5-33.5 262v892h-133v-890zm303 993l275 264h188l-325-264h-138z"/><glyph unicode="Û" d="M143 537q0-130 18-225.5t53-161 93-105 132-57 175-17.5q102 0 176.5 17.5t132 56.5 92.5 105 52.5 161 17.5 226v890h-131v-892q0-244-74.5-339.5t-263.5-95.5q-128 0-200.5 39.5t-106 133.5-33.5 262v892h-133v-890zm154 993l250 264h147l258-264h-161l-173 184-165-184h-156z"/><glyph unicode="Ü" d="M143 537q0-130 18-225.5t53-161 93-105 132-57 175-17.5q102 0 176.5 17.5t132 56.5 92.5 105 52.5 161 17.5 226v890h-131v-892q0-244-74.5-339.5t-263.5-95.5q-128 0-200.5 39.5t-106 133.5-33.5 262v892h-133v-890zm191 1118q0 51 17 65.5t69 14.5q50 0 67-14.5t17-65.5q0-55-17.5-71.5t-66.5-16.5q-51 0-68.5 16.5t-17.5 71.5zm387 0q0 51 17 65.5t69 14.5q50 0 67-14.5t17-65.5q0-55-17.5-71.5t-66.5-16.5q-51 0-68.5 16.5t-17.5 71.5z"/><glyph unicode="Ý" d="M20 1427h175q218-283 430-624 214 285 424 624h159q-251-384-524-741v-686h-139v686q-242 375-525 741zm457 103l275 264h188l-326-264h-137z"/><glyph unicode="Þ" d="M215 0v1427h147v-239h367q115 0 196.5-37t126-103.5 64-145.5 19.5-177q0-70-12.5-132t-42-119-74-98.5-113-66-154.5-24.5h-377v-285h-147zm147 416h365q122 0 183 84t61 227q0 160-60 247t-174 87h-375v-645z"/><glyph unicode="ß" d="M164 0v1100q0 179 114 270.5t318 91.5q220 0 325-87t105-261q0-72-10.5-124t-40-102.5-90.5-81-152-38.5q79-3 138-25t95.5-55.5 59-82 31-99.5 8.5-113q0-232-132-327t-427-95q-64 0-105 6l13 123q69-6 92-6 159 0 246.5 31.5t121 95 33.5 176.5q0 170-80.5 239t-285.5 69h-45v120h45q184 0 258.5 63t74.5 208q0 91-21.5 140.5t-82 75-174.5 25.5q-159 0-228-58.5t-69-178.5v-1100h-135z"/><glyph unicode="à" d="M195 319q0 86 21 148.5t55.5 99.5 89.5 59 111 29 132 7q143 0 295-33 0 98-13 155.5t-50 92.5-92.5 47-149.5 12q-182 0-297-49l-39 125q177 51 344 51 117 0 195-18.5t132.5-64.5 78.5-123.5 24-194.5v-609q-83-37-200-59.5t-218-22.5q-228 0-323.5 75.5t-95.5 272.5zm149 11q0-64 8.5-104.5t26-68 52-41.5 77.5-19 113-5q148 0 278 47v377q-114 27-278 27-68 0-109-4t-77-16-54-36-27.5-61.5-9.5-95.5zm53 1097h170l244-264h-141z"/><glyph unicode="á" d="M195 319q0-197 95.5-272.5t323.5-75.5q101 0 218 22.5t200 59.5v609q0 117-24 194.5t-78.5 123.5-132.5 64.5-195 18.5q-167 0-344-51l39-125q115 49 297 49 94 0 149.5-12t92.5-47 50-92.5 13-155.5q-152 33-295 33-76 0-132-7t-111-29-89.5-59-55.5-99.5-21-148.5zm149 11q0 72 13 113.5t49 64 83 29 132 6.5q164 0 278-27v-377q-130-47-278-47-70 0-113 5t-77.5 19-52 41.5-26 68-8.5 104.5zm160 833l244 264h170l-273-264h-141z"/><glyph unicode="â" d="M195 319q0-197 95.5-272.5t323.5-75.5q101 0 218 22.5t200 59.5v609q0 117-24 194.5t-78.5 123.5-132.5 64.5-195 18.5q-167 0-344-51l39-125q115 49 297 49 94 0 149.5-12t92.5-47 50-92.5 13-155.5q-152 33-295 33-76 0-132-7t-111-29-89.5-59-55.5-99.5-21-148.5zm110 844l250 264h147l259-264h-168l-166 176-162-176h-160zm39-833q0 72 13 113.5t49 64 83 29 132 6.5q164 0 278-27v-377q-130-47-278-47-70 0-113 5t-77.5 19-52 41.5-26 68-8.5 104.5z"/><glyph unicode="ã" d="M195 319q0-197 95.5-272.5t323.5-75.5q101 0 218 22.5t200 59.5v609q0 117-24 194.5t-78.5 123.5-132.5 64.5-195 18.5q-167 0-344-51l39-125q115 49 297 49 94 0 149.5-12t92.5-47 50-92.5 13-155.5q-152 33-295 33-76 0-132-7t-111-29-89.5-59-55.5-99.5-21-148.5zm94 920q48 87 96.5 127.5t114.5 40.5q33 0 64-14t56-33.5 49-39.5 51-34 54-14q40 0 69 31t56 108l84-68q-33-94-84-140t-131-46q-36 0-76 21t-69.5 46.5-67 46.5-70.5 21q-73 0-123-125zm55-909q0 72 13 113.5t49 64 83 29 132 6.5q164 0 278-27v-377q-130-47-278-47-70 0-113 5t-77.5 19-52 41.5-26 68-8.5 104.5z"/><glyph unicode="ä" d="M195 319q0-197 95.5-272.5t323.5-75.5q101 0 218 22.5t200 59.5v609q0 117-24 194.5t-78.5 123.5-132.5 64.5-195 18.5q-167 0-344-51l39-125q115 49 297 49 94 0 149.5-12t92.5-47 50-92.5 13-155.5q-152 33-295 33-76 0-132-7t-111-29-89.5-59-55.5-99.5-21-148.5zm141 947q0 51 17 65.5t69 14.5q50 0 67-15t17-65q0-55-17.5-71.5t-66.5-16.5q-51 0-68.5 16.5t-17.5 71.5zm8-936q0 72 13 113.5t49 64 83 29 132 6.5q164 0 278-27v-377q-130-47-278-47-70 0-113 5t-77.5 19-52 41.5-26 68-8.5 104.5zm379 936q0 51 17 65.5t69 14.5q50 0 67-15t17-65q0-55-17.5-71.5t-66.5-16.5q-51 0-68.5 16.5t-17.5 71.5z"/><glyph unicode="å" d="M195 319q0 86 21 148.5t55.5 99.5 89.5 59 111 29 132 7q143 0 295-33 0 98-13 155.5t-50 92.5-92.5 47-149.5 12q-182 0-297-49l-39 125q177 51 344 51 117 0 195-18.5t132.5-64.5 78.5-123.5 24-194.5v-609q-83-37-200-59.5t-218-22.5q-228 0-323.5 75.5t-95.5 272.5zm149 11q0-64 8.5-104.5t26-68 52-41.5 77.5-19 113-5q148 0 278 47v377q-114 27-278 27-68 0-109-4t-77-16-54-36-27.5-61.5-9.5-95.5zm68 989q0 99 51.5 145.5t171.5 46.5q225 0 225-192 0-96-57.5-144.5t-167.5-48.5q-108 0-165.5 48.5t-57.5 144.5zm106-4q0-51 26.5-79t90.5-28q66 0 93.5 28t27.5 79q0 54-26.5 79t-94.5 25q-65 0-91-25.5t-26-78.5z"/><glyph unicode="æ" d="M16 319q0 86 16.5 148.5t43 99.5 68.5 59 85 29 101 7q105 0 223-33 0 99-9.5 156t-37 92.5-70.5 47-117 11.5q-140 0-225-49l-31 125q135 51 265 51 127 0 193-39.5t93-140.5q35 98 102 139t183 41 184-47.5 103-170.5 35-341h-564q1-166 30.5-255.5t83.5-121 151-31.5q44 0 111 16t116 40l25-123q-61-25-136-41.5t-125-16.5q-178 0-262 97-36-47-132-72t-183-25q-173 0-246.5 75.5t-73.5 272.5zm113 11q0-75 7-116.5t30.5-71.5 64.5-40 111-10q62 0 134.5 18.5t119.5 51.5q-29 86-37 163t-8 191q-85 27-209 27-66 0-101-6t-63.5-28-38.5-64-10-115zm530 295h447q-5 129-27 196.5t-63 92-117 24.5q-63 0-103-12.5t-71-47-46.5-96-19.5-157.5z"/><glyph unicode="ç" d="M238 522q0 125 21.5 218t61.5 154.5 103 99.5 138.5 53.5 174.5 15.5q66 0 153.5-15t141.5-36l-43-125q-104 49-252 49-77 0-130-9.5t-98-36-70.5-73.5-39.5-120.5-14-178.5q0-125 20.5-207t65.5-129 108-65.5 158-18.5q131 0 252 54l43-123q-57-26-142-42t-153-16q-125 0-214.5 27t-155 89.5-97.5 170-32 264.5zm284-895l37 86q68-35 180-35 67 0 92 13.5t25 56.5q0 31-21 46t-76 19.5-151-1.5l74 188h70v-96q142 0 192.5-31.5t50.5-122.5q0-94-58-130t-198-36q-143 0-217 43z"/><glyph unicode="è" d="M180 522q0 151 29 255.5t89 167.5 144.5 90.5 202.5 27.5q114 0 190-25.5t130-89 78-171.5 24-273h-739q1-125 20.5-205t65-125 106.5-61.5 156-16.5q58 0 145.5 16t151.5 40l31-123q-79-25-177-41.5t-163-16.5q-97 0-171 16.5t-134.5 55.5-99 102-59 157-20.5 220zm150 103h585q-6 129-34.5 196.5t-82 92-153.5 24.5q-165 0-234-66.5t-81-246.5zm45 802h170l243-264h-141z"/><glyph unicode="é" d="M180 522q0-126 20.5-220t59-157 99-102 134.5-55.5 171-16.5q65 0 163 16.5t177 41.5l-31 123q-64-24-151.5-40t-145.5-16q-95 0-156 16.5t-106.5 61.5-65 125-20.5 205h739q0 165-24 273t-78 171.5-130 89-190 25.5q-118 0-202.5-27.5t-144.5-90.5-89-167.5-29-255.5zm150 103q12 180 81 246.5t234 66.5q100 0 153.5-24.5t82-92 34.5-196.5h-585zm168 538l243 264h170l-272-264h-141z"/><glyph unicode="ê" d="M180 522q0-126 20.5-220t59-157 99-102 134.5-55.5 171-16.5q65 0 163 16.5t177 41.5l-31 123q-64-24-151.5-40t-145.5-16q-95 0-156 16.5t-106.5 61.5-65 125-20.5 205h739q0 165-24 273t-78 171.5-130 89-190 25.5q-118 0-202.5-27.5t-144.5-90.5-89-167.5-29-255.5zm133 641l250 264h148l258-264h-168l-166 176-162-176h-160zm17-538q12 180 81 246.5t234 66.5q100 0 153.5-24.5t82-92 34.5-196.5h-585z"/><glyph unicode="ë" d="M180 522q0-126 20.5-220t59-157 99-102 134.5-55.5 171-16.5q65 0 163 16.5t177 41.5l-31 123q-64-24-151.5-40t-145.5-16q-95 0-156 16.5t-106.5 61.5-65 125-20.5 205h739q0 165-24 273t-78 171.5-130 89-190 25.5q-118 0-202.5-27.5t-144.5-90.5-89-167.5-29-255.5zm150 103q12 180 81 246.5t234 66.5q100 0 153.5-24.5t82-92 34.5-196.5h-585zm24 641q0 51 17 65.5t69 14.5q50 0 67-15t17-65q0-55-17.5-71.5t-66.5-16.5q-51 0-68.5 16.5t-17.5 71.5zm387 0q0 51 17 65.5t69 14.5q50 0 67-15t17-65q0-55-17.5-71.5t-66.5-16.5q-51 0-68.5 16.5t-17.5 71.5z"/><glyph unicode="ì" d="M242 0v123h366v788h-366v123h499v-911h357v-123h-856zm82 1427h170l243-264h-141z"/><glyph unicode="í" d="M242 0v123h366v788h-366v123h499v-911h357v-123h-856zm286 1163l244 264h170l-272-264h-142z"/><glyph unicode="î" d="M242 0v123h366v788h-366v123h499v-911h357v-123h-856zm86 1163l250 264h147l258-264h-168l-166 176-162-176h-159z"/><glyph unicode="ï" d="M242 0v123h366v788h-366v123h499v-911h357v-123h-856zm123 1266q0 51 17 65.5t69 14.5q50 0 67-15t17-65q0-55-17.5-71.5t-66.5-16.5q-51 0-68.5 16.5t-17.5 71.5zm387 0q0 51 17 65.5t69 14.5q50 0 67-15t17-65q0-55-17.5-71.5t-66.5-16.5q-51 0-68.5 16.5t-17.5 71.5z"/><glyph unicode="ð" d="M98 438q0 232 115.5 322t407.5 90q105 0 276-21-67 137-201 287l-168-112-67 100 151 100q-100 100-247 223h204q94-83 158-147l154 102 65-100-135-90q319-353 319-729 0-152-25.5-247t-89.5-152-158.5-78-246.5-21q-269 0-390.5 110t-121.5 363zm158-16q0-69 8.5-118.5t31.5-92.5 62.5-68.5 102-40 149.5-14.5q53 0 90 2t76 8.5 64.5 19 50.5 32.5 39.5 49.5 26.5 70.5 17 94.5 5 122.5q0 107-31 209-144 27-327 27-114 0-181.5-12t-110.5-47.5-58-91-15-150.5z"/><glyph unicode="ñ" d="M201 0v981q82 37 200.5 59.5t216.5 22.5q116 0 190.5-21.5t125-76.5 71.5-146.5 21-234.5v-584h-133v557q0 121-13 192.5t-49.5 114.5-90.5 57.5-146 14.5q-148 0-260-35v-901h-133zm47 1239q48 87 96.5 127.5t114.5 40.5q33 0 64-14t56-33.5 49-39.5 51-34 54-14q40 0 69 31t56 108l84-68q-33-94-84-140t-131-46q-36 0-76 21t-69.5 46.5-67 46.5-70.5 21q-72 0-122-125z"/><glyph unicode="ò" d="M143 522q0 157 27.5 262t88 166.5 145 87 208.5 25.5q100 0 173-16t131.5-53 94-99.5 54-154.5 18.5-218q0-159-27.5-265t-87.5-169.5-145-90-211-26.5q-125 0-210 26.5t-144.5 90-87 169.5-27.5 265zm148-4q0-128 15.5-208.5t54.5-129.5 98-67.5 153-18.5q126 0 194 36.5t99 127 31 260.5q0 134-15.5 215t-56 128-98 63-154.5 16q-76 0-126.5-10.5t-90.5-36.5-61.5-74.5-32-121-10.5-179.5zm96 909h170l244-264h-142z"/><glyph unicode="ó" d="M143 522q0 157 27.5 262t88 166.5 145 87 208.5 25.5q100 0 173-16t131.5-53 94-99.5 54-154.5 18.5-218q0-159-27.5-265t-87.5-169.5-145-90-211-26.5q-125 0-210 26.5t-144.5 90-87 169.5-27.5 265zm148-4q0-128 15.5-208.5t54.5-129.5 98-67.5 153-18.5q126 0 194 36.5t99 127 31 260.5q0 134-15.5 215t-56 128-98 63-154.5 16q-76 0-126.5-10.5t-90.5-36.5-61.5-74.5-32-121-10.5-179.5zm182 645l244 264h170l-273-264h-141z"/><glyph unicode="ô" d="M143 522q0 157 27.5 262t88 166.5 145 87 208.5 25.5q100 0 173-16t131.5-53 94-99.5 54-154.5 18.5-218q0-159-27.5-265t-87.5-169.5-145-90-211-26.5q-125 0-210 26.5t-144.5 90-87 169.5-27.5 265zm144 641l250 264h147l258-264h-168l-166 176-162-176h-159zm4-645q0-128 15.5-208.5t54.5-129.5 98-67.5 153-18.5q126 0 194 36.5t99 127 31 260.5q0 134-15.5 215t-56 128-98 63-154.5 16q-76 0-126.5-10.5t-90.5-36.5-61.5-74.5-32-121-10.5-179.5z"/><glyph unicode="õ" d="M143 522q0 157 27.5 262t88 166.5 145 87 208.5 25.5q100 0 173-16t131.5-53 94-99.5 54-154.5 18.5-218q0-159-27.5-265t-87.5-169.5-145-90-211-26.5q-125 0-210 26.5t-144.5 90-87 169.5-27.5 265zm103 717q48 87 96.5 127.5t114.5 40.5q33 0 64-14t56-33.5 49-39.5 51-34 54-14q40 0 69 31t56 108l84-68q-33-94-84-140t-131-46q-36 0-76 21t-69.5 46.5-67 46.5-70.5 21q-73 0-123-125zm45-721q0-128 15.5-208.5t54.5-129.5 98-67.5 153-18.5q126 0 194 36.5t99 127 31 260.5q0 134-15.5 215t-56 128-98 63-154.5 16q-76 0-126.5-10.5t-90.5-36.5-61.5-74.5-32-121-10.5-179.5z"/><glyph unicode="ö" d="M143 522q0 157 27.5 262t88 166.5 145 87 208.5 25.5q100 0 173-16t131.5-53 94-99.5 54-154.5 18.5-218q0-159-27.5-265t-87.5-169.5-145-90-211-26.5q-125 0-210 26.5t-144.5 90-87 169.5-27.5 265zm148-4q0-128 15.5-208.5t54.5-129.5 98-67.5 153-18.5q126 0 194 36.5t99 127 31 260.5q0 134-15.5 215t-56 128-98 63-154.5 16q-76 0-126.5-10.5t-90.5-36.5-61.5-74.5-32-121-10.5-179.5zm43 748q0 51 17 65.5t69 14.5q50 0 67-15t17-65q0-55-17.5-71.5t-66.5-16.5q-51 0-68.5 16.5t-17.5 71.5zm387 0q0 51 17 65.5t69 14.5q50 0 67-15t17-65q0-55-17.5-71.5t-66.5-16.5q-51 0-68.5 16.5t-17.5 71.5z"/><glyph unicode="÷" d="M123 672v123h981v-123h-981zm391-348q0 63 21 81.5t83 18.5q66 0 87.5-18t21.5-82q0-69-22-90t-87-21q-61 0-82.5 21.5t-21.5 89.5zm0 823q0 63 21 81.5t83 18.5q66 0 87.5-18t21.5-82q0-70-22-90.5t-87-20.5q-61 0-82.5 21t-21.5 90z"/><glyph unicode="ø" d="M104 0l115 137q-76 128-76 385 0 157 27.5 262t88 166.5 145 87 208.5 25.5q209 0 314-76l41 47h155l-114-137q75-124 75-375 0-159-27.5-265t-87.5-169.5-145-90-211-26.5q-207 0-315 78l-41-49h-152zm187 518q0-172 28-260l521 625q-66 53-228 53-77 0-127-10t-90-35.5-61.5-73.5-32-120-10.5-179zm96-362q66-58 225-58 95 0 154 18t99 66.5 55.5 128 15.5 207.5q0 172-29 260z"/><glyph unicode="ù" d="M201 451v583h133v-557q0-121 13-192.5t49.5-114.5 90-57.5 144.5-14.5q152 0 262 37v899h133v-981q-83-37-202.5-59.5t-215.5-22.5q-154 0-240 42t-126.5 146-40.5 292zm196 976h170l244-264h-141z"/><glyph unicode="ú" d="M201 451q0-188 40.5-292t126.5-146 240-42q96 0 215.5 22.5t202.5 59.5v981h-133v-899q-110-37-262-37-91 0-144.5 14.5t-90 57.5-49.5 114.5-13 192.5v557h-133v-583zm286 712l244 264h170l-272-264h-142z"/><glyph unicode="û" d="M201 451q0-188 40.5-292t126.5-146 240-42q96 0 215.5 22.5t202.5 59.5v981h-133v-899q-110-37-262-37-91 0-144.5 14.5t-90 57.5-49.5 114.5-13 192.5v557h-133v-583zm98 712l250 264h147l258-264h-168l-165 176-162-176h-160z"/><glyph unicode="ü" d="M201 451q0-188 40.5-292t126.5-146 240-42q96 0 215.5 22.5t202.5 59.5v981h-133v-899q-110-37-262-37-91 0-144.5 14.5t-90 57.5-49.5 114.5-13 192.5v557h-133v-583zm155 815q0 51 17 65.5t69 14.5q50 0 67-15t17-65q0-55-17.5-71.5t-66.5-16.5q-51 0-68.5 16.5t-17.5 71.5zm387 0q0 51 17 65.5t69 14.5q50 0 67-15t17-65q0-55-17.5-71.5t-66.5-16.5q-51 0-68.5 16.5t-17.5 71.5z"/><glyph unicode="ý" d="M143 1034q181-375 381-1083-91-202-168-344h156q104 193 186 393 259 614 385 1034h-145q-107-388-326-915-159 555-319 915h-150zm351 129l243 264h170l-272-264h-141z"/><glyph unicode="þ" d="M190-393v1872h134v-453q151 37 284 37 124 0 208.5-25.5t145-87 88-166.5 27.5-262q0-159-27.5-265t-87-169.5-144.5-90-210-26.5q-177 0-284 86v-450h-134zm134 639q0-69 81.5-108.5t202.5-39.5q125 0 192.5 35.5t98.5 125.5 31 259q0 107-11 179t-32.5 120-61.5 73.5-90 35.5-127 10q-165 0-284-43v-647z"/><glyph unicode="ÿ" d="M143 1034q181-375 381-1083-91-202-168-344h156q104 193 186 393 259 614 385 1034h-145q-107-388-326-915-159 555-319 915h-150zm203 232q0 51 17 65.5t69 14.5q50 0 67-15t17-65q0-55-17.5-71.5t-66.5-16.5q-51 0-68.5 16.5t-17.5 71.5zm387 0q0 51 17 65.5t69 14.5q50 0 67-15t17-65q0-55-17.5-71.5t-66.5-16.5q-51 0-68.5 16.5t-17.5 71.5z"/><glyph unicode="Œ" d="M57 721q0 217 21 361t68 228 112 118 162 34q98 0 164-35h618v-122h-502q73-146 82-480h238v-120h-236q-3-418-90-582h508v-123h-633q-62-29-149-29-78 0-134 21.5t-101 72.5-72.5 137-41.5 214-14 305zm131-4q0-154 7-256t21.5-175.5 42.5-112.5 66-56 95-17q58 0 96 17t66.5 56 43.5 112.5 22 175.5 7 256q0 266-21 396t-68.5 177-145.5 47q-48 0-81-9t-60.5-35.5-43.5-68.5-27.5-113.5-15.5-165-4-228.5z"/><glyph unicode="œ" d="M20 522q0 209 37.5 328.5t109 166 191.5 46.5q111 0 179-42t104-140q37 93 105.5 137.5t175.5 44.5q110 0 173.5-47.5t96.5-170.5 33-341h-531q0-125 14-205.5t47-125 77-61 112-16.5q41 0 104 16t109 40l23-123q-59-25-128.5-41.5t-115.5-16.5q-116 0-186 43.5t-107 147.5q-36-103-104.5-147t-180.5-44q-120 0-191.5 49t-109 170.5-37.5 331.5zm107-4q0-170 22-260.5t70.5-127 138.5-36.5 139 36.5 72 127.5 23 260q0 176-23.5 267t-71 123-139.5 32-139-32.5-69.5-122.5-22.5-267zm567 107h422q-4 129-25 196.5t-59.5 92-109.5 24.5q-78 0-123-24t-72-93-33-196z"/><glyph unicode="Ÿ" d="M20 1427h175q218-283 430-624 214 285 424 624h159q-251-384-524-741v-686h-139v686q-242 375-525 741zm320 228q0 51 17 65.5t69 14.5q50 0 67-14.5t17-65.5q0-55-17.5-71.5t-66.5-16.5q-51 0-68.5 16.5t-17.5 71.5zm387 0q0 51 17 65.5t69 14.5q50 0 67-14.5t17-65.5q0-55-17.5-71.5t-66.5-16.5q-51 0-68.5 16.5t-17.5 71.5z"/><glyph unicode="ˆ" d="M287 1163l250 264h147l258-264h-168l-166 176-162-176h-159z"/><glyph unicode="˜" d="M266 1239q48 87 96.5 127.5t114.5 40.5q40 0 79.5-21t66-46.5 62-46.5 67.5-21q40 0 69 31t56 108l84-68q-33-94-84.5-140t-131.5-46q-36 0-76 21t-69 46.5-66.5 46.5-70.5 21q-73 0-123-125z"/><glyph horiz-adv-x="897"/><glyph horiz-adv-x="1794"/><glyph horiz-adv-x="897"/><glyph horiz-adv-x="1794"/><glyph horiz-adv-x="598"/><glyph horiz-adv-x="448"/><glyph horiz-adv-x="299"/><glyph horiz-adv-x="299"/><glyph horiz-adv-x="224"/><glyph horiz-adv-x="358"/><glyph horiz-adv-x="99"/><glyph unicode="‐" d="M336 502v123h555v-123h-555z"/><glyph unicode="‑" d="M336 502v123h555v-123h-555z"/><glyph unicode="‒" d="M336 502v123h555v-123h-555z"/><glyph unicode="–" d="M207 502v123h815v-123h-815z"/><glyph unicode="—" d="M10 502v123h1211v-123h-1211z"/><glyph unicode="‘" d="M440 1034l224 527h122l-159-527h-187z"/><glyph unicode="’" d="M440 1034l160 527h186l-223-527h-123z"/><glyph unicode="‚" d="M440-326l160 527h186l-223-527h-123z"/><glyph unicode="“" d="M274 1034l224 527h123l-160-527h-187zm332 0l223 527h123l-159-527h-187z"/><glyph unicode="”" d="M274 1034l160 527h187l-224-527h-123zm332 0l160 527h186l-223-527h-123z"/><glyph unicode="„" d="M274-326l160 527h187l-224-527h-123zm332 0l160 527h186l-223-527h-123z"/><glyph unicode="•" d="M143 666q0 157 27.5 262t88 166.5 145 86.5 208.5 25q125 0 210-25t145.5-86.5 88-166.5 27.5-262q0-159-27.5-265t-87.5-169.5-145-90-211-26.5q-125 0-210 26.5t-144.5 90-87 169.5-27.5 265z"/><glyph unicode="…" d="M55 111q0 63 21.5 81.5t83.5 18.5q65 0 86.5-18t21.5-82q0-69-21.5-90t-86.5-21q-61 0-83 21.5t-22 89.5zm453 0q0 63 22 81.5t84 18.5q65 0 87-18.5t22-81.5q0-68-22.5-89.5t-86.5-21.5q-61 0-83.5 21.5t-22.5 89.5zm455 0q0 63 22 81.5t82 18.5q66 0 87.5-18t21.5-82q0-69-22-90t-87-21q-60 0-82 21.5t-22 89.5z"/><glyph horiz-adv-x="358"/><glyph unicode="‹" d="M299 612l549 549 80-88-445-455 445-466-76-91z"/><glyph unicode="›" d="M299 152l444 454-444 467 76 90 553-551-549-549z"/><glyph horiz-adv-x="448"/><glyph unicode="€" d="M129 727q0 146 17.5 257.5t54 193 88.5 136 127.5 87.5 163 47 202.5 14q96 0 206.5-15t193.5-40l-47-133q-62 25-162.5 40t-188.5 15q-94 0-158.5-7.5t-122.5-29-95-60-63.5-100-39.5-149.5h598v-123h-612q-2-43-2-133 0-92 2-131h612v-121h-598q16-114 50.5-186.5t96-112.5 138.5-55 194-15q86 0 187 15t164 39l47-131q-83-26-193.5-42t-206.5-16q-137 0-238.5 23t-182 75.5-130.5 140-76 215.5-26 302z"/><glyph unicode="™" d="M-12 1333v94h467v-94h-174v-618h-117v618h-176zm547-618v712h172l167-600 164 600h164v-712h-104v622l-168-622h-125l-168 622v-622h-102z"/><glyph unicode="◼" horiz-adv-x="1034" d="M0 0v1034h1034v-1034h-1034z"/></font>
</defs>
</svg>
