<svg xmlns="http://www.w3.org/2000/svg"><defs><font horiz-adv-x="1290"><font-face units-per-em="2048" ascent="1638" descent="-410"/><glyph unicode="ﬁ" horiz-adv-x="1298" d="M-6 733v320h166v41q0 115 36.5 194t112 124 175.5 64 241 19q222 0 422-57l-78-285q-148 29-278 29-131 0-193.5-25.5t-62.5-91.5v-12h634v-1053h-374v733h-260v-733h-375v733h-166z"/><glyph unicode="ﬂ" horiz-adv-x="1310" d="M-6 733v320h166v41q0 116 34 195t103 124 160 63.5 219 18.5q242 0 493-57v-1119q0-151 62-266l-344-106q-92 128-92 362v860q-93 13-129 13-74 0-102.5-26.5t-28.5-90.5v-12h186v-320h-186v-733h-375v733h-166z"/><glyph unicode="ﬃ" horiz-adv-x="1933" d="M-6 733v320h166v41q0 401 420 401 177 0 383-72 136 72 397 72 222 0 422-57l-78-285q-148 29-279 29t-193.5-25.5-62.5-91.5v-12h635v-1053h-374v733h-261v-733h-374v733h-260v-733h-375v733h-166zm541 320h260v41q0 50 4 73-84 15-133 15-74 0-102.5-26.5t-28.5-90.5v-12z"/><glyph unicode="ﬄ" horiz-adv-x="1945" d="M-6 733v320h166v41q0 401 420 401 180 0 374-68 122 68 357 68 242 0 493-57v-1119q0-151 62-266l-344-106q-92 128-92 362v860q-93 13-130 13-74 0-102.5-26.5t-28.5-90.5v-12h187v-320h-187v-733h-374v733h-260v-733h-375v733h-166zm541 320h260v41q0 50 4 73-84 15-133 15-74 0-102.5-26.5t-28.5-90.5v-12z"/><glyph horiz-adv-x="0"/><glyph horiz-adv-x="682"/><glyph horiz-adv-x="505"/><glyph horiz-adv-x="505"/><glyph horiz-adv-x="505"/><glyph unicode="!" horiz-adv-x="684" d="M123 1427h436l-84-919h-268zm8-1239q0 61 10 98t37 57.5 64.5 27 101.5 6.5q128 0 172.5-35.5t44.5-153.5q0-67-10-106.5t-37.5-62-65.5-30-104-7.5q-64 0-101.5 7.5t-64.5 30-37 62-10 106.5z"/><glyph unicode=""" horiz-adv-x="890" d="M92 1427h301l-39-512h-239zm412 0h295l-39-512h-238z"/><glyph unicode="#" horiz-adv-x="1566" d="M41 301l20 295h238l18 254h-239l18 297h240l20 283h342l-20-283h227l21 283h342l-21-283h258l-18-297h-258l-19-254h260l-20-295h-258l-21-301h-342l21 301h-227l-21-301h-342l21 301h-240zm600 295h227l19 254h-228z"/><glyph unicode="$" horiz-adv-x="1271" d="M90 932q0 216 101 328t319 141v289h238v-277q245-6 401-65l-74-318q-147 37-327 45v-207q207-35 313-132t106-273q0-219-96-320.5t-323-124.5v-299h-238v291q-252 6-410 66l74 319q137-38 336-47v211q-97 14-171 41t-131.5 70.5-87.5 109.5-30 152zm352 55q0-34 13.5-52.5t54.5-29.5v158q-39-10-53.5-29t-14.5-47zm306-631q36 10 49.5 28.5t13.5 51.5q0 36-11 53.5t-52 30.5v-164z"/><glyph unicode="%" horiz-adv-x="2164" d="M41 991q0 142 21 231.5t74 143.5 131.5 75 203.5 21 204-21 132-75 74.5-143.5 21.5-231.5q0-144-21.5-237t-74-150.5-132.5-80.5-204-23-203.5 23-131.5 80.5-73.5 150.5-21.5 237zm321 0q0-111 9-158.5t29.5-62 70.5-14.5 70 15 28.5 62 8.5 158q0 64-2.5 100.5t-8 63-19.5 37-30.5 14.5-46.5 4q-50 0-70.5-13.5t-29.5-58-9-147.5zm74-991l946 1427h334l-948-1427h-332zm826 463q0 142 21 231.5t74 143.5 131.5 75 203.5 21 204-21 132-75 74.5-143.5 21.5-231.5q0-192-42-297.5t-133.5-150-256.5-44.5-256 44.5-132.5 150-41.5 297.5zm321 0q0-111 9-158.5t29.5-62.5 70.5-15q30 0 46.5 4.5t30 16 19 40 8 68 2.5 107.5q0 104-8 147.5t-28 57.5-70 14-70.5-13.5-29.5-58-9-147.5z"/><glyph unicode="&" horiz-adv-x="1708" d="M76 369q0 174 97 259.5t302 94.5q-95 7-156.5 31t-95 68-46.5 99.5-13 137.5q0 86 12.5 145.5t46.5 111.5 94.5 82 157 47 232.5 17q163 0 267-19t166-64.5 85.5-112 23.5-170.5q0-158-82.5-237.5t-271.5-94.5q114-6 301-178 45 95 45 217h408q0-269-207-492 93-116 237-311h-448q-37 50-72 96-247-125-514-125-224 0-347 39.5t-172.5 123.5-49.5 235zm416 57q0-82 31-109.5t124-27.5q167 0 305 63-188 232-303 232-84 0-120.5-37.5t-36.5-120.5zm67 588q0-74 30-101.5t109-27.5 117.5 28.5 38.5 100.5q0 79-32 102t-113 23q-85 0-117.5-23t-32.5-102z"/><glyph unicode="'" horiz-adv-x="485" d="M92 1427h301l-39-512h-239z"/><glyph unicode="(" horiz-adv-x="718" d="M139 510q0 237 36.5 425t104 316.5 154.5 211 197 126.5l170-272q-54-32-92.5-69.5t-73.5-100-56.5-146-34-207-12.5-284.5q0-199 18-340.5t55.5-231.5 82.5-142 113-93l-170-272q-110 44-197 126.5t-154.5 211-104 316.5-36.5 425z"/><glyph unicode=")" horiz-adv-x="718" d="M-82-297q68 41 113 93t82.5 141.5 55 231 17.5 341.5-17.5 341-55 231-83 142-112.5 93l170 272q110-44 197-126.5t154.5-211 104-316.5 36.5-425-36.5-425-104-316.5-154.5-211-197-126.5z"/><glyph unicode="*" horiz-adv-x="1165" d="M61 901v301h258l-131 225 267 152 129-225 127 225 266-152-133-225h260v-301h-260l131-223-266-150-125 220-129-220-267 152 131 221h-258z"/><glyph unicode="+" horiz-adv-x="1112" d="M51 569v361h324v325h360v-325h326v-361h-326v-323h-360v323h-324z"/><glyph unicode="," horiz-adv-x="643" d="M-6-326l162 547h417l-247-547h-332z"/><glyph unicode="-" horiz-adv-x="677" d="M51 410v360h576v-360h-576z"/><glyph unicode="." horiz-adv-x="643" d="M106 188q0 61 10 98t37 57.5 64.5 27 101.5 6.5q128 0 173-35.5t45-153.5q0-53-7.5-89t-21.5-59.5-41.5-36-61.5-17-86-4.5q-64 0-101.5 7.5t-64.5 30-37 62-10 106.5z"/><glyph unicode="/" horiz-adv-x="1038" d="M-23 0l730 1427h395l-729-1427h-396z"/><glyph unicode="0" d="M78 733q0 172 24 298t68.5 208.5 116 132 157.5 70 201 20.5 201-20.5 157.5-70 116-132 68.5-208.5 24-298q0-175-24-305t-69-217.5-115.5-141-157.5-76-201-22.5-201 22.5-157.5 76-115.5 141-69 217.5-24 305zm391 0q0-99 1.5-156t9-107.5 17.5-73 32-39 48-20 70-3.5q33 0 55 2t42 10 31.5 18.5 22 34 15 49 8 71 4 93 .5 121.5q0 70-.5 114.5t-4 87.5-8 66.5-15 45-22 30.5-32 16.5-41.5 9-55 1.5q-33 0-54-1.5t-41.5-8.5-32-16.5-22-31-15-45.5-8-66-4.5-87.5-1-114.5z"/><glyph unicode="1" d="M117 1219l803 278v-1497h-383v1006l-320-121z"/><glyph unicode="2" d="M68 0v319q411 298 511 382 118 97 146 163 18 42 18 117 0 76-34.5 102.5t-135.5 26.5q-205 0-391-55l-80 331q89 33 228.5 54.5t287.5 21.5q115 0 195.5-10.5t150-38 110.5-76.5 64-126.5 23-186.5q0-79-7-133.5t-32.5-110-58-96-102.5-97.5-145.5-108.5-205.5-134.5h564v-344h-1106z"/><glyph unicode="3" d="M78 16l69 353q51-14 155.5-24.5t172.5-10.5q116 0 171.5 10t75 33.5 19.5 71.5q0 70-29.5 93t-103.5 23h-241v338h231q76 0 99.5 16.5t23.5 79.5q0 45-17.5 65.5t-69 30-159.5 9.5q-68 0-169-10.5t-154-24.5l-70 344q225 49 498 49 165 0 270.5-18.5t171.5-64 92.5-116 26.5-180.5q0-83-12.5-138.5t-46-100-95-68.5-156.5-31q100-4 166.5-28.5t104-72.5 52.5-110.5 15-154.5q0-226-133-317t-456-91q-117 0-260 12.5t-242 32.5z"/><glyph unicode="4" d="M-2 315v140q365 646 588 972h485v-784h178v-328h-178v-315h-373v315h-700zm457 328h243v410q-119-176-243-410z"/><glyph unicode="5" d="M104 16l70 353q44-14 151-24.5t177-10.5q71 0 106.5 2t67.5 7.5 43.5 19.5 17.5 35 6 57q0 30-2 47.5t-11.5 33.5-24 23-44.5 12.5-68 7-99 1.5q-173 0-326-17v864h962v-344h-595v-174q78 4 110 4 157 0 257.5-23t161-78.5 84-137.5 23.5-209q0-147-27.5-240t-95.5-151-172.5-80.5-269.5-22.5q-110 0-267 13t-235 32z"/><glyph unicode="6" d="M90 727q0 149 13 257.5t45 192.5 80 137 124 87 170.5 47.5 225.5 13.5q102 0 221-13.5t200-35.5l-69-344q-116 35-352 35-44 0-72-2t-55.5-9.5-43.5-20.5-29.5-36-21-55-12.5-78q66 10 170 10 158 0 259.5-23t163.5-78.5 87-137.5 25-209q0-147-27-240t-94.5-151-171.5-80.5-269-22.5q-129 0-220.5 23t-160 75-108.5 141-59 214.5-19 302.5zm418-149q4-109 20.5-161.5t44-67.5 84.5-15q94 0 125 25t31 96q0 40-6 62t-25.5 38.5-56 22.5-98.5 6q-2 0-119-6z"/><glyph unicode="7" d="M90 1083v344h1180v-108q-118-189-314-616t-284-703h-443q113 311 262 630.5t259 452.5h-660z"/><glyph unicode="8" d="M80 379q0 92 14 154.5t50.5 110.5 102.5 72.5 167 28.5q-95 7-156.5 31t-95.5 68.5-47 100.5-13 138q0 71 8.5 121.5t30.5 95.5 60.5 73.5 99 49.5 145 30 199.5 9 199.5-9 145-30 99-49.5 60.5-73.5 30.5-95.5 8.5-121.5q0-83-13-138.5t-46.5-100-95-68.5-156.5-31q101-4 166.5-28.5t102-72.5 50.5-110 14-155q0-114-25-188t-89-125-172.5-73-276.5-22h-2q-135 0-230.5 14.5t-161 44-103.5 79.5-54 114.5-16 155.5zm407 47q0-81 33-109t127-28 126 27.5 32 109.5q0 86-32.5 122t-125.5 36q-94 0-127-36t-33-122zm11 588q0-73 34.5-101t114.5-28q78 0 112 28t34 101q0 78-32 101.5t-114 23.5q-84 0-116.5-23t-32.5-102z"/><glyph unicode="9" d="M90 971q0 147 26.5 239t93.5 149.5 171 80 270 22.5q119 0 205-10t150.5-35 104.5-60.5 64.5-93 34-126 9.5-164.5q0-278-110-510t-327-463h-469q282 313 389 522h-77q-126 0-215.5 15.5t-152 47.5-99 86.5-52.5 126.5-16 173zm406 8q0-58 12.5-82.5t50-34.5 123.5-10q74 0 115 2 4 29 4 86 0 101-26.5 131.5t-123.5 30.5-126-23-29-100z"/><glyph unicode=":" horiz-adv-x="643" d="M106 188q0 61 10 98t37 57.5 64.5 27 101.5 6.5q128 0 173-35.5t45-153.5q0-53-7.5-89t-21.5-59.5-41.5-36-61.5-17-86-4.5q-64 0-101.5 7.5t-64.5 30-37 62-10 106.5zm0 699q0 62 10 98.5t37.5 57 64 26.5 101.5 6q66 0 104-6t66-26.5 38-57 10-98.5q0-127-45-166t-173-39q-64 0-101.5 7.5t-64.5 30-37 62-10 105.5z"/><glyph unicode=";" horiz-adv-x="643" d="M-6-326l162 547h417l-247-547h-332zm112 1213q0 62 10 98.5t37.5 57 64 26.5 101.5 6q66 0 104-6t66-26.5 38-57 10-98.5q0-127-45-166t-173-39q-64 0-101.5 7.5t-64.5 30-37 62-10 105.5z"/><glyph unicode="<" horiz-adv-x="1112" d="M119 657v181l741 567 193-272-443-381 443-387-191-277z"/><glyph unicode="=" horiz-adv-x="1112" d="M51 236v360h1010v-360h-1010zm0 673v361h1010v-361h-1010z"/><glyph unicode=">" horiz-adv-x="1112" d="M119 362l442 381-442 387 190 277 744-569v-181l-742-567z"/><glyph unicode="?" horiz-adv-x="1064" d="M16 1413q81 22 199.5 35.5t220.5 13.5q329 0 471-101t142-331q0-77-27.5-152.5t-81.5-147.5-107.5-128.5-130.5-126.5h-366q134 163 197 277.5t63 224.5q0 62-44 94.5t-161 32.5q-195 0-305-35zm297-1225q0 61 10 98t37 57.5 64.5 27 101.5 6.5q128 0 172.5-35.5t44.5-153.5q0-67-10-106.5t-37.5-62-65.5-30-104-7.5q-64 0-101.5 7.5t-64.5 30-37 62-10 106.5z"/><glyph unicode="@" horiz-adv-x="1937" d="M94 547q0 129 19.5 233.5t55 182 90.5 135.5 120 95.5 149.5 60.5 174 32.5 198.5 9.5q105 0 179-9.5t136-34.5 100.5-66 65-107.5 37.5-156 11-213.5q0-87-4.5-152t-16.5-119-29-90.5-47-65-64-44.5-86.5-26-108.5-13.5-136-3.5q-104 0-172.5 10t-117.5 32-75 63.5-37.5 97.5-11.5 141q0 105 16.5 169t60.5 103.5 111.5 53.5 178.5 14q114 0 203-19-1 43-7 66.5t-27 41.5-60 24.5-105 6.5q-102 0-168-5.5t-124-23-90.5-46.5-56-79.5-32-118.5-8.5-167q0-108 8.5-181.5t33.5-131 62.5-90.5 103-54.5 145.5-28.5 200-7q119 0 202 10t148.5 36.5 104.5 67 64 107.5 34.5 150.5 9.5 203.5q0 90-10.5 184.5t-28.5 141.5h313q37-142 37-338 0-165-21.5-292t-67.5-223-114.5-161.5-167.5-106.5-220-59-279-18q-162 0-284 15t-223 51-169 93.5-114.5 145-67.5 203.5-21 270zm776 2q0-54 21.5-70t97.5-16q57 0 81 16.5t24 63.5v84q-49 8-119 8-61 0-83-16t-22-70z"/><glyph unicode="A" horiz-adv-x="1425" d="M-66 0q77 272 228 703t270 724h596q93-318 236-731.5t256-695.5h-433q-44 103-102 274h-553q-37-130-74-274h-424zm596 612h342q-87 275-139 471h-51q-63-178-152-471z"/><glyph unicode="B" horiz-adv-x="1505" d="M156 0v1427h850q107 0 176.5-19.5t110.5-63 57-105.5 16-156q0-83-13-138.5t-46.5-100-95-68.5-156.5-31q101-4 167-28.5t102.5-72.5 50.5-110.5 14-154.5q0-107-26.5-182t-79-117.5-119.5-61-158-18.5h-850zm391 334h344q35 0 54.5 26t19.5 91q0 69-21 96.5t-61 27.5h-336v-241zm0 559h338q30 0 44.5 18.5t14.5 79.5q0 59-15 81t-44 22h-338v-201z"/><glyph unicode="C" horiz-adv-x="1193" d="M90 727q0 174 27.5 300.5t79.5 210.5 137 133.5 190 70 250 20.5q102 0 220.5-13.5t199.5-35.5l-70-344q-110 35-258 35-54 0-91-2t-75.5-8-62.5-17.5-48-31-37.5-47-24-67.5-15-91-4.5-117q0-89 7.5-151.5t27.5-106 45-69 69.5-39.5 90.5-18.5 118-4.5q148 0 258 35l70-353q-185-45-420-45-180 0-303.5 36.5t-211 123-128.5 233-41 363.5z"/><glyph unicode="D" horiz-adv-x="1576" d="M156 0v1427h647q119 0 211-13.5t171-45 133.5-84.5 93.5-131 57-184.5 18-245.5q0-208-41-348t-129-222.5-211.5-117.5-302.5-35h-647zm391 346h205q72 0 115.5 4t82.5 18 59 37 35.5 66.5 20 101 4.5 144.5q0 66-2.5 114t-10.5 87.5-17.5 65-30 44.5-40.5 29.5-56 16.5-70.5 7.5-89.5 1.5h-205v-737z"/><glyph unicode="E" horiz-adv-x="1292" d="M156 0v1427h1093v-344h-702v-180h506v-338h-506v-221h702v-344h-1093z"/><glyph unicode="F" horiz-adv-x="1222" d="M156 0v1427h1067v-344h-676v-258h506v-338h-506v-487h-391z"/><glyph unicode="G" horiz-adv-x="1482" d="M90 727q0 173 33.5 300.5t94 210.5 157 133 210.5 70.5 267 20.5q105 0 244-14t217-35l-64-344q-45 14-165 24.5t-191 10.5q-69 0-113-2.5t-89-11-71.5-25.5-50.5-44-36-68.5-18.5-97.5-6.5-132q0-89 7.5-151.5t27.5-106 45-69 69.5-39.5 90.5-18.5 118-4.5q30 0 84 4v227h-252v338h656v-856q-96-30-263.5-53t-316.5-23q-180 0-303.5 36.5t-211 123-128.5 233-41 363.5z"/><glyph unicode="H" horiz-adv-x="1554" d="M156 0v1427h391v-493h463v493h389v-1427h-389v569h-463v-569h-391z"/><glyph unicode="I" horiz-adv-x="702" d="M156 0v1427h391v-1427h-391z"/><glyph unicode="J" horiz-adv-x="989" d="M0 23l57 346q113-35 258-35 136 0 136 131v962h393l2-1034q0-94-27.5-168.5t-73-121-108.5-77.5-128.5-43-139.5-12q-208 0-369 52z"/><glyph unicode="K" horiz-adv-x="1447" d="M156 0v1427h391v-1427h-391zm393 754q58 54 180.5 235.5t261.5 437.5h461q-143-251-260.5-426t-167.5-229q53-46 182-250.5t281-521.5h-465q-159 329-288 527.5t-185 226.5z"/><glyph unicode="L" horiz-adv-x="1138" d="M156 0v1427h391v-1083h610v-344h-1001z"/><glyph unicode="M" horiz-adv-x="1972" d="M156 0v1427h516q149-297 334-755 152 405 317 755h494v-1427h-379v864q-62-140-155.5-370t-152.5-388h-313q-194 555-285 758v-864h-376z"/><glyph unicode="N" horiz-adv-x="1675" d="M156 0v1427h506q248-420 471-849v849h387v-1427h-486q-225 414-497 874v-874h-381z"/><glyph unicode="O" horiz-adv-x="1599" d="M90 733q0 143 20 254.5t62 191.5 99.5 135 139.5 87.5 176 46.5 214 14 213-14 175-46.5 139.5-87.5 99-135 61.5-191.5 20-254.5q0-175-30-305t-86-217.5-144.5-141-196.5-76-251-22.5q-144 0-252.5 22.5t-197 76-145 141-86.5 217.5-30 305zm418-4q0-98 3-156t15-107.5 29-72.5 53.5-39.5 78.5-20 114-3.5q53 0 88 2t68 10 51.5 18.5 35.5 33.5 25 49 14 71 7.5 93.5 1.5 121.5q0 69-1.5 114.5t-7.5 87.5-13.5 66-25 45.5-36 31-52 16.5-67.5 8.5-88 1.5q-73 0-114-3t-78.5-18-53.5-35.5-29-67-15.5-101-2.5-146.5z"/><glyph unicode="P" horiz-adv-x="1425" d="M156 0v1427h850q387 0 387-514 0-138-42.5-248t-131.5-177.5-213-67.5h-459v-420h-391zm391 737h307q111 0 111 176 0 98-27.5 139.5t-81.5 41.5h-309v-357z"/><glyph unicode="Q" horiz-adv-x="1599" d="M90 733q0 143 20 254.5t62 191.5 99.5 135 139.5 87.5 176 46.5 214 14 213-14 175-46.5 139.5-87.5 99-135 61.5-191.5 20-254.5q0-294-86-452.5t-252-202.5q128-48 416-471h-444q-206 348-342 364-144 0-252.5 22.5t-197 76-145 141-86.5 217.5-30 305zm418-4q0-98 3-156t15-107.5 29-72.5 53.5-39.5 78.5-20 114-3.5q53 0 88 2t68 10 51.5 18.5 35.5 33.5 25 49 14 71 7.5 93.5 1.5 121.5q0 69-1.5 114.5t-7.5 87.5-13.5 66-25 45.5-36 31-52 16.5-67.5 8.5-88 1.5q-73 0-114-3t-78.5-18-53.5-35.5-29-67-15.5-101-2.5-146.5z"/><glyph unicode="R" horiz-adv-x="1511" d="M156 0v1427h850q104 0 180-31t120.5-88 65.5-131 21-167q0-81-17.5-148.5t-55-124-105-91.5-160.5-42q50-19 99-68t132-173 225-363h-485q-110 194-178 295t-111.5 139.5-85.5 38.5h-104v-473h-391zm391 791h327q35 0 58.5 34.5t23.5 114.5q0 154-79 154h-330v-303z"/><glyph unicode="S" horiz-adv-x="1271" d="M70 950q0 274 153 393t494 119q290 0 477-71l-76-332q-184 45-405 45-96 0-147.5-12t-66-30-14.5-50q0-39 18-58t71.5-32.5 175.5-28.5q244-31 354-133.5t110-306.5q0-140-34-231.5t-114-148-200-79.5-303-23q-287 0-483 72l78 334q188-47 399-47 101 0 150.5 9t66.5 28 17 57q0 39-18.5 58t-78.5 34-194 31q-225 27-327.5 118t-102.5 285z"/><glyph unicode="T" horiz-adv-x="1331" d="M0 1083v344h1331v-344h-469v-1083h-393v1083h-469z"/><glyph unicode="U" horiz-adv-x="1529" d="M141 369v1058h394v-972q0-61 50-89t179-28 180 28 51 89v972h394v-1058q0-93-30-162.5t-82-114-132.5-72-172-38.5-208.5-11q-118 0-209.5 11t-171 38.5-131.5 72-81.5 114-29.5 162.5z"/><glyph unicode="V" horiz-adv-x="1347" d="M-90 1427h430q77-184 184-492t160-499q65 177 158 482t147 509h422q-73-265-226.5-692.5t-279.5-734.5h-497q-103 348-244.5 757.5t-253.5 669.5z"/><glyph unicode="W" horiz-adv-x="2142" d="M-20 1427h423q62-183 137-449t117-458q183 603 244 907h348q58-184 136.5-465.5t117.5-441.5q59 190 125.5 452.5t102.5 454.5h411q-61-267-183-695.5t-220-731.5h-498q-65 333-166 743-76-321-201-743h-497q-81 345-194 755.5t-203 671.5z"/><glyph unicode="X" horiz-adv-x="1435" d="M-43 1427h516q151-206 260-356 158 232 223 356h492q-157-247-469-702 377-538 494-725h-494q-102 164-248 375-204-280-280-375h-492q154 194 526 721-364 503-528 706z"/><glyph unicode="Y" horiz-adv-x="1370" d="M-145 1427h520q156-206 338-464 237 345 303 464h485q-214-340-596-880v-547h-391v545q-476 662-659 882z"/><glyph unicode="Z" horiz-adv-x="1298" d="M27 0v74q130 200 332.5 527.5t291.5 481.5h-588v344h1215v-69q-82-158-304-516t-321-498h633v-344h-1259z"/><glyph unicode="[" horiz-adv-x="851" d="M193-532v2078h696v-323h-309v-1434h309v-321h-696z"/><glyph unicode="\" horiz-adv-x="1038" d="M-20 1427h395l729-1427h-395z"/><glyph unicode="]" horiz-adv-x="851" d="M-37-211h309v1434h-309v323h696v-2078h-696v321z"/><glyph unicode="^" horiz-adv-x="1210" d="M35 606l395 821h346l402-821h-408l-168 400-164-400h-403z"/><glyph unicode="_" horiz-adv-x="1112" d="M51-55h1010v-361h-1010v361z"/><glyph unicode="`" horiz-adv-x="960" d="M172 1427h373l254-264h-307z"/><glyph unicode="a" horiz-adv-x="1183" d="M86 319q0 87 19 149t51 99.5 86 58.5 112.5 28.5 141.5 7.5q94 0 219-25 0 46-6 70.5t-28.5 44-64.5 26-116 6.5q-150 0-334-51l-53 293q233 57 485 57 246 0 358.5-92t112.5-317v-621q-110-38-255-60t-269-22q-140 0-225 15t-139.5 56-74.5 105.5-20 171.5zm383 11q0-56 19.5-72t86.5-16q79 0 140 22v142q-46 10-133 10-66 0-89.5-16t-23.5-70z"/><glyph unicode="b" horiz-adv-x="1236" d="M129 43v1436h375v-449q49 22 120 37.5t134 15.5q100 0 170.5-25.5t122.5-86 77-166.5 25-262q0-162-30.5-271.5t-97-176.5-163.5-95.5-239-28.5q-131 0-269.5 20.5t-224.5 51.5zm375 244q56-23 119-23 49 0 75.5 7.5t47 35.5 27.5 80.5 7 144.5q0 136-30.5 184t-116.5 48q-56 0-92.5-13.5t-36.5-35.5v-428z"/><glyph unicode="c" horiz-adv-x="970" d="M82 532q0 156 38.5 266t112 171 165.5 87.5 214 26.5q212 0 342-45l-73-311q-141 41-232 41-36 0-58-2t-46.5-10-38.5-24-26.5-42.5-17.5-67-5-96.5q0-79 11.5-127.5t38.5-72 58-30.5 84-7q108 0 232 45l73-311q-62-24-158.5-38t-183.5-14q-97 0-175 16.5t-145.5 56.5-113 103.5-71 160.5-25.5 224z"/><glyph unicode="d" horiz-adv-x="1236" d="M82 532q0 153 34 263t95.5 171.5 137 89 169.5 27.5q107 0 215-32v428h375v-1436q-87-31-225.5-51.5t-268.5-20.5q-143 0-239.5 27t-164 91.5-98 172.5-30.5 270zm375 7q0-111 15.5-166t47-73.5 94.5-18.5q70 0 119 18v426q0 23-35.5 40t-89.5 17q-86 0-118.5-52.5t-32.5-190.5z"/><glyph unicode="e" horiz-adv-x="1144" d="M82 532q0 156 36 265.5t105 171 157 88 206 26.5q117 0 196-15.5t144-57.5 99-118 47-194q7-62 7-138 0-70-6-152h-608q3-78 47-103.5t145-25.5q60 0 148 8t141 20l53-278q-78-26-186-42t-205-16q-526 0-526 561zm385 144h291q-1 79-32.5 105t-109.5 26q-75 0-105-28t-44-103z"/><glyph unicode="f" horiz-adv-x="815" d="M-6 733v320h166v41q0 401 420 401 190 0 342-57l-78-285q-89 29-178 29-74 0-102.5-26.5t-28.5-90.5v-12h309v-320h-309v-733h-375v733h-166z"/><glyph unicode="g" horiz-adv-x="1236" d="M82 514q0 161 30.5 270t97.5 175.5 164.5 95 239.5 28.5q131 0 269-20t225-51v-926q0-91-16-164t-44-125-71.5-90.5-92-62-112.5-38-126.5-19.5-139.5-5q-219 0-400 62l62 284q193-43 332-43 115 0 174 33t59 113q-116-51-244-51-80 0-140.5 14.5t-112 51.5-84.5 97-51.5 153-18.5 218zm375 10q0-138 29.5-185.5t117.5-47.5q55 0 92 14t37 35v428q-61 25-119 25-65 0-95.5-17t-46-74.5-15.5-177.5z"/><glyph unicode="h" horiz-adv-x="1253" d="M129 0v1479h375v-455q156 59 272 59 68 0 118-9.5t98.5-39 79-79.5 49-135 18.5-202v-618h-375v602q0 152-148 152-48 0-80-10t-32-29v-715h-375z"/><glyph unicode="i" horiz-adv-x="628" d="M106 1356q0 57 9.5 90.5t36.5 52 63 24 100 5.5 100-5.5 63-24 36.5-52 9.5-90.5q0-119-43-156t-166-37-166 37-43 156zm23-1356h375v1053h-375v-1053z"/><glyph unicode="j" horiz-adv-x="628" d="M-16-117v-299q285 0 402.5 97t117.5 333v1039h-375v-1051q0-56-37-87.5t-108-31.5zm122 1473q0 57 9.5 90.5t36.5 52 63 24 100 5.5 100-5.5 63-24 36.5-52 9.5-90.5q0-119-43-156t-166-37-166 37-43 156z"/><glyph unicode="k" horiz-adv-x="1280" d="M129 0v1479h375v-1479h-375zm375 557q29-18 107.5-145t240.5-412h428q-115 237-212.5 391t-137.5 184q39 37 126.5 164t196.5 314h-428q-247-418-321-496z"/><glyph unicode="l" horiz-adv-x="645" d="M129 309v1170h375v-1160q0-153 61-266l-344-106q-92 128-92 362z"/><glyph unicode="m" horiz-adv-x="1847" d="M129 0v985q294 98 559 98 162 0 256-67 191 67 359 67 222 0 325-114.5t103-388.5v-580h-373v555q0 116-25.5 156.5t-111.5 40.5q-21 0-117-11 14-86 14-161v-580h-375v555q0 116-25.5 156.5t-111.5 40.5q-40 0-102-15v-737h-375z"/><glyph unicode="n" horiz-adv-x="1253" d="M129 0v985q294 98 569 98 224 0 332.5-115.5t108.5-387.5v-580h-375v555q0 115-28 156t-120 41q-31 0-112-15v-737h-375z"/><glyph unicode="o" horiz-adv-x="1212" d="M82 532q0 159 33 267t101.5 170 161.5 88 226 26q135 0 229-26t163-88 101.5-170 32.5-267q0-160-32.5-269.5t-101-173.5-163-91-229.5-27q-134 0-227.5 27t-161.5 91-100.5 173.5-32.5 269.5zm375-6q0-62 2.5-103.5t10-72.5 17-48 27.5-27.5 38-13.5 52-3q39 0 62 5t42 20 28 45.5 13.5 77 4.5 120.5q0 95-6 147.5t-25 81-44.5 35.5-74.5 7q-64 0-92-16.5t-41.5-73-13.5-181.5z"/><glyph unicode="p" horiz-adv-x="1236" d="M129-393v1405q85 31 224 51t270 20q143 0 239.5-27t163.5-91.5 97-172 30-268.5q0-154-34-264.5t-95.5-172-137-89-169.5-27.5-213 35v-399h-375zm375 723q0-22 35-39t88-17q87 0 120 52.5t33 189.5q0 111-15.5 166t-47 73.5-94.5 18.5q-74 0-119-18v-426z"/><glyph unicode="q" horiz-adv-x="1236" d="M82 514q0 161 30.5 270t97.5 175.5 164.5 95 239.5 28.5q131 0 269-20t225-51v-1405h-375v420q-127-56-256-56-100 0-170.5 25.5t-122.5 86.5-77 167.5-25 263.5zm375 10q0-138 29.5-185.5t117.5-47.5q55 0 92 14t37 35v428q-61 25-119 25-65 0-95.5-17t-46-74.5-15.5-177.5z"/><glyph unicode="r" horiz-adv-x="849" d="M129 0v1053h375v-84q30 56 82.5 85t158.5 29q47 0 105-6v-346q-64 21-160 21-77 0-131.5-27t-54.5-70v-655h-375z"/><glyph unicode="s" horiz-adv-x="978" d="M61 713q0 87 26 152.5t69 106.5 106.5 66.5 131.5 35 151 9.5q89 0 191.5-16.5t170.5-42.5l-65-270q-168 41-314 41-63 0-86.5-10t-23.5-48q0-29 25.5-38t144.5-27q185-27 263.5-97t78.5-231q0-373-494-373-90 0-197 16t-176 42l68 276q156-39 287-39 88 0 121.5 11t33.5 49q0 21-14 32.5t-55 20-125 16.5q-83 8-138.5 25.5t-98 53-62 94.5-19.5 145z"/><glyph unicode="t" horiz-adv-x="897" d="M14 733v320h166v135l375 151v-286h309v-320h-309v-334q0-63 26-88.5t99-25.5q71 0 158 26l59-282q-143-58-346-58-73 0-127 9.5t-102 35-78 68.5-47 111-17 161v377h-166z"/><glyph unicode="u" horiz-adv-x="1253" d="M117 473v580h372v-555q0-115 28-156t120-41q36 0 115 14v738h372v-985q-297-99-569-99-223 0-330.5 115.5t-107.5 388.5z"/><glyph unicode="v" horiz-adv-x="1050" d="M-49 1053h377q103-285 198-668 124 376 191 668h368q-162-556-362-1053h-438q-140 509-334 1053z"/><glyph unicode="w" horiz-adv-x="1734" d="M-49 1053h377q111-307 198-658 84 265 183 658h323q41-134 95.5-334t82.5-324q131 400 191 658h368q-175-588-362-1053h-440q-46 253-107 518-20-105-61.5-259.5t-75.5-258.5h-438q-140 509-334 1053z"/><glyph unicode="x" horiz-adv-x="1064" d="M-39 0q98 116 395 524-264 375-389 529h422q28-37 168-236 69 99 152 236h401q-99-158-354-518 269-394 356-535h-405q-49 86-158 244-29-38-71-95.5t-69-92.5-44-56h-404z"/><glyph unicode="y" horiz-adv-x="1050" d="M-49 1053h377q103-285 198-668 124 376 191 668h368q-101-359-242.5-738.5t-297.5-707.5h-410q83 142 172 340-122 448-356 1106z"/><glyph unicode="z" horiz-adv-x="1021" d="M2 0v49q108 149 247.5 366t194.5 318h-405v320h977v-52q-82-142-210.5-339.5t-230.5-342.5h408v-319h-981z"/><glyph unicode="{" horiz-adv-x="856" d="M96 352v314q230 0 230 411 0 100 22.5 181.5t57 134.5 86 95 98 65 104.5 42l176-274q-71-30-108.5-67t-59.5-119-22-222q0-86-12.5-155t-31-111.5-44-72.5-47.5-43.5-45-20.5q23-7 45-21t47.5-45.5 44-75 31-113.5 12.5-157q0-107 9.5-175t35-112.5 57.5-69 88-48.5l-176-268q-58 19-104.5 42t-98 65-86 95-57 134.5-22.5 181.5q0 411-230 411v-2z"/><glyph unicode="|" horiz-adv-x="882" d="M246-524v2070h391v-2070h-391z"/><glyph unicode="}" horiz-adv-x="856" d="M-14-301q53 23 85 47t57.5 69 36.5 115 11 176 18 186 47.5 123 57 64.5 57.5 30.5q-23 7-45 21t-47.5 45.5-44 75-31 113.5-12.5 157q0 107-9.5 175t-35 112.5-57.5 69-88 48.5l176 268q58-19 104.5-42t98-65 86-95 57-134.5 22.5-181.5q0-411 230-411v2-314q-230 0-230-411 0-100-22.5-181.5t-57-134.5-86-95-98-65-104.5-42z"/><glyph unicode="~" horiz-adv-x="1112" d="M16 766q129 219 316 219 60 0 113-17t91-41 71.5-48 68.5-41 69-17q46 0 72 26.5t55 104.5l230-186q-41-109-135.5-185.5t-223.5-76.5q-51 0-98.5 17.5t-83 42-69 49-70.5 42-74 17.5q-39 0-67-24t-56-89z"/><glyph unicode="¡" horiz-adv-x="684" d="M123 877q0 67 10 106.5t37.5 62 65.5 30 104 7.5q64 0 101.5-7.5t64.5-30 37-62 10-106.5q0-61-10-98t-37-57.5-64.5-27-101.5-6.5q-128 0-172.5 35.5t-44.5 153.5zm2-1239l84 919h268l84-919h-436z"/><glyph unicode="¢" horiz-adv-x="923" d="M82 766q0 133 28 233t81.5 162 121.5 97 156 49v221h279v-221q93-10 167-35l-69-275q-39 13-98 17v-506q60 4 98 20l69-272q-72-28-167-41v-244h-279v242q-89 14-157 50.5t-121 100.5-81 165.5-28 236.5zm338-6q0-145 49-201v408q-49-59-49-207z"/><glyph unicode="£" horiz-adv-x="1271" d="M51 547v305h105v98q0 262 145 387t477 125q290 0 477-71l-75-332q-184 45-406 45-98 0-147.5-13.5t-64.5-37-15-70.5v-131h414v-305h-414v-203h651v-344h-1042v547h-105z"/><glyph unicode="¤" horiz-adv-x="1435" d="M115 1214l352 213 119-155q72 10 141 10 53 0 139-8l97 153 354-210-117-166q53-121 53-320t-53-323l131-195-352-213-115 178q-57-8-137-8-82 0-139 8l-137-178-330 213 139 190q-55 122-55 328 0 189 47 307zm444-489q0-72 7-118t17.5-72.5 34.5-39 45.5-15.5 63.5-3q35 0 54.5 1.5t42 9 33.5 23.5 21.5 43 14.5 69 4 102q0 47-2 82t-8 61.5-12 44.5-19 30-22.5 18.5-30 9.5-34.5 3.5-42 .5q-31 0-46.5-1t-37.5-5.5-32-14-22.5-27-17.5-44.5-8.5-66-3.5-92z"/><glyph unicode="¥" horiz-adv-x="1370" d="M-145 1427h520q156-206 338-464 237 345 303 464h485q-176-279-450-673h139v-256h-285v-121h285v-256h-285v-121h-391v121h-311v256h311v121h-311v256h159q-393 534-507 673z"/><glyph unicode="¦" horiz-adv-x="882" d="M246 227h391v-751h-391v751zm0 568v751h391v-751h-391z"/><glyph unicode="§" horiz-adv-x="1271" d="M51 526q0 149 96 256-53 80-53 203 0 252 157.5 364.5t475.5 112.5q269 0 436-67l-69-310q-161 43-371 43-87 0-134-11.5t-60-28-13-46.5q0-37 16.5-54.5t64-29.5 161.5-26q229-30 347-128t118-284q0-133-107-244 64-86 64-215 0-252-157.5-364.5t-475.5-112.5q-267 0-436 68l69 309q161-43 371-43 87 0 134 11.5t60 28 13 46.5q0 37-16.5 55t-64.5 30-161 26q-229 31-347 128.5t-118 282.5zm387 27q0-37 18.5-54.5t81.5-31.5 207-29q7-1 23-3t23-3q45 22 45 62 0 37-18.5 54.5t-82 31-207.5 28.5q-8 1-24 2t-23 2q-43-18-43-59z"/><glyph unicode="¨" horiz-adv-x="1058" d="M106 1298q0 92 32.5 120t125.5 28q94 0 127-28t33-120q0-101-33-132t-127-31q-93 0-125.5 31t-32.5 132zm486 0q0 93 32.5 120.5t127.5 27.5q93 0 125-28t32-120q0-101-32.5-132t-124.5-31q-95 0-127.5 31t-32.5 132z"/><glyph unicode="©" horiz-adv-x="1640" d="M90 733q0 171 32.5 297.5t91 209 151 132.5 202 70 254.5 20q144 0 253.5-20t201.5-70 150.5-132.5 91-209 32.5-297.5q0-174-32-305t-91-217.5-150.5-140.5-202-76.5-253.5-22.5q-119 0-215 16t-180 51-144.5 93.5-104.5 142.5-65.5 198.5-21.5 260.5zm303 0q0-87 4.5-152.5t16.5-118.5 27.5-90 42.5-64 56.5-42.5 75-25 92-12.5 113.5-3q66 0 112.5 3t92 12.5 75 25 56.5 42.5 42 64 27 90 16.5 118.5 4.5 152.5q0 82-4.5 143.5t-16.5 110.5-27 82.5-42.5 58-56 39-74.5 22.5-92 10.5-113 2.5q-68 0-113.5-2.5t-92-10.5-75.5-22.5-56.5-39-42.5-58-27-82.5-16.5-110.5-4.5-143.5zm86-10q0 103 16.5 175t46 117 82.5 70 115 34 154 9q154 0 252-36l-58-238q-82 23-167 23-41 0-63.5-4.5t-41.5-20.5-26-48-7-85q0-95 30-125.5t108-30.5q100 0 167 25l58-238q-106-41-252-41-92 0-154 9.5t-115 35.5-83 72.5-46 119-16 177.5z"/><glyph unicode="ª" horiz-adv-x="950" d="M123 918q0 62 13.5 106t36 70.5 60.5 41.5 79 20 100 5q76 0 151-16 0 42-9.5 61t-40.5 28-99 9q-126 0-234-31l-37 209q168 41 340 41 173 0 258.5-64t85.5-214v-455q-76-27-184-42t-199-15q-99 0-158 10.5t-97 39-52 74.5-14 122zm272 8q0-40 13.5-52t60.5-12q48 0 94 17v100q-33 8-90 8-45 0-61.5-11.5t-16.5-49.5z"/><glyph unicode="«" horiz-adv-x="1519" d="M41 666l557 596 213-211-279-381 279-387-211-215zm668 0l557 596 213-211-279-381 279-387-211-215z"/><glyph unicode="¬" horiz-adv-x="1112" d="M51 569v361h1010v-930h-387v569h-623z"/><glyph unicode="­" horiz-adv-x="677" d="M51 410v360h576v-360h-576z"/><glyph unicode="®" horiz-adv-x="1179" d="M63 926q0 157 31.5 261.5t100 165 163 85 234.5 24.5q139 0 233-24.5t161.5-85 98.5-165 31-261.5q0-155-31-259.5t-97.5-167-161.5-88.5-234-26q-140 0-235.5 26t-163 88-99 167-31.5 260zm222 0q0-142 29.5-214.5t92.5-99 185-26.5q92 0 147.5 13.5t93.5 51.5 53 103 15 172q0 76-6.5 129t-22.5 91.5-37.5 61.5-59 36-79 17.5-104.5 4.5q-76 0-122.5-7t-85.5-26.5-58.5-58-30-98-10.5-150.5zm71-277v557h363q76 0 114.5-52t38.5-132q0-90-35.5-124t-111.5-34q24-11 38.5-21.5t32-33 27.5-62.5 13-98h-209q0 59-15 95t-34 36h-17v-131h-205zm205 322h72q26 0 26 37 0 36-26 36h-72v-73z"/><glyph unicode="¯" horiz-adv-x="1040" d="M225 1161v250h625v-250h-625z"/><glyph unicode="°" horiz-adv-x="944" d="M41 991q0 142 21 231.5t74 143.5 131.5 75 203.5 21 204-21 132-75 74.5-143.5 21.5-231.5q0-144-21.5-237t-74-150.5-132.5-80.5-204-23-203.5 23-131.5 80.5-73.5 150.5-21.5 237zm321 0q0-111 9-158.5t29.5-62 70.5-14.5 70 15 28.5 62 8.5 158q0 64-2.5 100.5t-8 63-19.5 37-30.5 14.5-46.5 4q-50 0-70.5-13.5t-29.5-58-9-147.5z"/><glyph unicode="±" horiz-adv-x="1112" d="M51-4v360h1010v-360h-1010zm0 745v361h324v325h360v-325h326v-361h-326v-323h-360v323h-324z"/><glyph unicode="²" horiz-adv-x="980" d="M76 537q9 192 66 293t192 169q25 13 67.5 29t67 26 44 28.5 19.5 43.5q0 37-25 50.5t-99 13.5q-122 0-263-37l-47 260q53 20 148.5 33.5t189.5 13.5q199 0 300.5-68.5t101.5-230.5q0-218-140-266-43-14-91.5-28.5t-74-22-49.5-16-34.5-17.5-12.5-20h404v-254h-764z"/><glyph unicode="³" horiz-adv-x="964" d="M96 535l45 245q32-9 99.5-15.5t109.5-6.5q102 0 134 12t32 41q0 41-17.5 55.5t-62.5 14.5h-153v227h147q44 0 58 12t14 43q0 18-9 27t-42.5 14.5-100.5 5.5q-46 0-110-6t-97-16l-43 242q140 30 318 30 215 0 316.5-54.5t101.5-186.5q0-104-48-156.5t-167-61.5q126-6 179.5-62.5t53.5-172.5q0-139-110.5-199.5t-325.5-60.5q-162 0-322 29z"/><glyph unicode="´" horiz-adv-x="960" d="M172 1163l254 264h373l-320-264h-307z"/><glyph unicode="µ" horiz-adv-x="1253" d="M90-393l27 866v580h372v-555q0-115 28-156t120-41q36 0 115 14v738h372v-985q-297-99-569-99-68 0-117 8l13-370h-361z"/><glyph unicode="¶" horiz-adv-x="1425" d="M33 913q0 514 387 514h850v-1427h-330v420h-154v-420h-329v420h-37q-124 0-213 67.5t-131.5 177.5-42.5 248z"/><glyph unicode="·" horiz-adv-x="677" d="M106 625q0 66 11 105t40.5 61 69.5 29 109 7q71 0 112.5-7t71-29 40.5-61 11-105q0-71-11-114.5t-40.5-68-71-33-112.5-8.5q-134 0-182 43.5t-48 180.5z"/><glyph unicode="¸" horiz-adv-x="1288" d="M528-393l54 135q28-14 110-14 29 0 41 9.5t12 29.5q0 29-31.5 37.5t-107.5 2.5l74 193h133v-74q205 0 205-166 0-99-67.5-137.5t-237.5-38.5q-105 0-185 23z"/><glyph unicode="¹" horiz-adv-x="856" d="M53 1247l576 232v-942h-297v538l-197-76z"/><glyph unicode="º" horiz-adv-x="983" d="M104 1049q0 221 98.5 317t286.5 96q192 0 291-96t99-317q0-222-99.5-320t-290.5-98q-188 0-286.5 98t-98.5 320zm273-5q0-85 11.5-128t34-57.5 66.5-14.5q45 0 68 14.5t35 57.5 12 128q0 87-12 131t-35 58-68 14q-44 0-66.5-14t-34-58-11.5-131z"/><glyph unicode="»" horiz-adv-x="1519" d="M41 281l278 381-278 387 211 215 559-598-557-596zm668 0l278 381-278 387 211 215 559-598-557-596z"/><glyph unicode="¼" horiz-adv-x="1929" d="M-6 1247l575 232v-942h-297v538l-196-76zm211-1247l956 1427h355l-957-1427h-354zm776 172v139q74 131 187.5 307t199.5 295h377v-481h113v-260h-113v-172h-295v172h-469zm313 260h156v242q-95-130-156-242z"/><glyph unicode="½" horiz-adv-x="1929" d="M-6 1247l575 232v-942h-297v538l-196-76zm211-1247l956 1427h355l-957-1427h-354zm921 0q9 192 66 293.5t192 169.5q25 13 67.5 29t67 26 44.5 28.5 20 43.5q0 37-25.5 50t-99.5 13q-121 0-262-37l-47 261q53 20 148.5 33.5t189.5 13.5q199 0 300-68.5t101-230.5q0-220-139-267-43-14-91.5-28.5t-74-22-49.5-16-34.5-17.5-12.5-20h403v-254h-764z"/><glyph unicode="¾" horiz-adv-x="1929" d="M16 535l45 245q32-9 99.5-15.5t109.5-6.5q102 0 134 12t32 41q0 41-17.5 55.5t-62.5 14.5h-153v227h147q44 0 58 12t14 43q0 18-9 27t-42.5 14.5-100.5 5.5q-46 0-110-6t-97-16l-43 242q140 30 318 30 215 0 316.5-54.5t101.5-186.5q0-104-48-156.5t-167-61.5q126-6 179.5-62.5t53.5-172.5q0-139-110.5-199.5t-325.5-60.5q-162 0-322 29zm330-535l957 1427h354l-957-1427h-354zm694 172v139q74 131 187.5 307t199.5 295h377v-481h113v-260h-113v-172h-295v172h-469zm314 260h155v242q-91-125-155-242z"/><glyph unicode="¿" horiz-adv-x="1064" d="M16 35q0-230 142-331t471-101q102 0 220.5 13.5t199.5 35.5l-70 344q-110-35-305-35-117 0-161 32.5t-44 94.5q0 110 63 224.5t197 277.5h-367q-76-69-130-126t-107.5-129-81-147.5-27.5-152.5zm306 842q0 67 10 106.5t37.5 62 65.5 30 104 7.5q64 0 101.5-7.5t64.5-30 37-62 10-106.5q0-61-10-98t-37-57.5-64.5-27-101.5-6.5q-128 0-172.5 35.5t-44.5 153.5z"/><glyph unicode="À" horiz-adv-x="1425" d="M-66 0q77 272 228 703t270 724h596q93-318 236-731.5t256-695.5h-433q-44 103-102 274h-553q-37-130-74-274h-424zm392 1794h372l254-264h-307zm204-1182h342q-87 275-139 471h-51q-63-178-152-471z"/><glyph unicode="Á" horiz-adv-x="1425" d="M-66 0h424q37 144 74 274h553q58-171 102-274h433q-113 282-256 695.5t-236 731.5h-596q-119-293-270-724t-228-703zm527 1530l254 264h372l-319-264h-307zm69-918q89 293 152 471h51q52-196 139-471h-342z"/><glyph unicode="Â" horiz-adv-x="1425" d="M-66 0h424q37 144 74 274h553q58-171 102-274h433q-113 282-256 695.5t-236 731.5h-596q-119-293-270-724t-228-703zm355 1530l250 264h352l258-264h-311l-125 135-121-135h-303zm241-918q89 293 152 471h51q52-196 139-471h-342z"/><glyph unicode="Ã" horiz-adv-x="1425" d="M-66 0h424q37 144 74 274h553q58-171 102-274h433q-113 282-256 695.5t-236 731.5h-596q-119-293-270-724t-228-703zm363 1647q93 161 233 161 69 0 126.5-20t101.5-39.5 80-19.5q34 0 53.5 19t40.5 77l170-137q-31-81-100.5-138t-165.5-57q-58 0-110 21t-97 42-86 21q-29 0-49-18t-41-66zm233-1035q89 293 152 471h51q52-196 139-471h-342z"/><glyph unicode="Ä" horiz-adv-x="1425" d="M-66 0h424q37 144 74 274h553q58-171 102-274h433q-113 282-256 695.5t-236 731.5h-596q-119-293-270-724t-228-703zm377 1657q0 92 32.5 119.5t125.5 27.5q95 0 127.5-27.5t32.5-119.5q0-101-33-132.5t-127-31.5q-92 0-125 31.5t-33 132.5zm219-1045q89 293 152 471h51q52-196 139-471h-342zm267 1045q0 93 32 120t127 27q93 0 125.5-27.5t32.5-119.5q0-101-33-132.5t-125-31.5q-95 0-127 31t-32 133z"/><glyph unicode="Å" horiz-adv-x="1425" d="M-66 0q77 272 228 703t270 724h596q93-318 236-731.5t256-695.5h-433q-44 103-102 274h-553q-37-130-74-274h-424zm512 1651q0 120 61.5 164.5t205.5 44.5q142 0 202-44t60-165q0-122-60-165.5t-202-43.5q-144 0-205.5 44t-61.5 165zm84-1039h342q-87 275-139 471h-51q-63-178-152-471zm95 1037q0-42 16-56t72-14q54 0 70 14.5t16 55.5q0 43-16 57t-70 14q-55 0-71.5-14.5t-16.5-56.5z"/><glyph unicode="Æ" horiz-adv-x="1998" d="M-350 0q176 279 474.5 711.5t510.5 715.5h1321v-344h-703v-180h404v-338h-404v-221h703v-344h-1094v274h-569q-41-65-104-169t-64-105h-475zm858 612h354v471h-43q-108-156-311-471z"/><glyph unicode="Ç" horiz-adv-x="1193" d="M90 727q0 174 27.5 300.5t79.5 210.5 137 133.5 190 70 250 20.5q102 0 220.5-13.5t199.5-35.5l-70-344q-110 35-258 35-54 0-91-2t-75.5-8-62.5-17.5-48-31-37.5-47-24-67.5-15-91-4.5-117q0-89 7.5-151.5t27.5-106 45-69 69.5-39.5 90.5-18.5 118-4.5q148 0 258 35l70-353q-185-45-420-45-180 0-303.5 36.5t-211 123-128.5 233-41 363.5zm438-1120l54 135q28-14 110-14 29 0 41 9.5t12 29.5q0 29-31.5 37.5t-107.5 2.5l74 193h133v-74q205 0 205-166 0-99-67.5-137.5t-237.5-38.5q-105 0-185 23z"/><glyph unicode="È" horiz-adv-x="1292" d="M156 0v1427h1093v-344h-702v-180h506v-338h-506v-221h702v-344h-1093zm225 1794h373l254-264h-308z"/><glyph unicode="É" horiz-adv-x="1292" d="M156 0h1093v344h-702v221h506v338h-506v180h702v344h-1093v-1427zm336 1530l253 264h373l-319-264h-307z"/><glyph unicode="Ê" horiz-adv-x="1292" d="M156 0h1093v344h-702v221h506v338h-506v180h702v344h-1093v-1427zm133 1530l250 264h352l258-264h-311l-125 135-121-135h-303z"/><glyph unicode="Ë" horiz-adv-x="1292" d="M156 0h1093v344h-702v221h506v338h-506v180h702v344h-1093v-1427zm151 1657q0 92 32.5 119.5t125.5 27.5q95 0 127.5-27.5t32.5-119.5q0-101-33-132.5t-127-31.5q-92 0-125 31.5t-33 132.5zm486 0q0 93 32 120t127 27q93 0 125.5-27.5t32.5-119.5q0-101-33-132.5t-125-31.5q-95 0-127 31t-32 133z"/><glyph unicode="Ì" horiz-adv-x="702" d="M-55 1794h372l254-264h-307zm211-1794v1427h391v-1427h-391z"/><glyph unicode="Í" horiz-adv-x="702" d="M139 1530l254 264h373l-320-264h-307zm17-1530h391v1427h-391v-1427z"/><glyph unicode="Î" horiz-adv-x="702" d="M-78 1530l250 264h352l258-264h-311l-125 135-121-135h-303zm234-1530h391v1427h-391v-1427z"/><glyph unicode="Ï" horiz-adv-x="702" d="M-49 1657q0 92 32.5 119.5t125.5 27.5q94 0 126.5-27.5t32.5-119.5q0-101-32.5-132.5t-126.5-31.5q-92 0-125 31.5t-33 132.5zm205-1657h391v1427h-391v-1427zm280 1657q0 92 32 119.5t128 27.5q93 0 125.5-27.5t32.5-119.5q0-101-33-132.5t-125-31.5q-95 0-127.5 31t-32.5 133z"/><glyph unicode="Ð" horiz-adv-x="1576" d="M51 592v262h105v573h647q119 0 211-13.5t171-45 133.5-84.5 93.5-131 57-184.5 18-245.5q0-208-41-348t-129-222.5-211.5-117.5-302.5-35h-647v592h-105zm496-246h205q72 0 115.5 4t82.5 18 59 37 35.5 66.5 20 101 4.5 144.5q0 66-2.5 114t-10.5 87.5-17.5 65-30 44.5-40.5 29.5-56 16.5-70.5 7.5-89.5 1.5h-205v-229h319v-262h-319v-246z"/><glyph unicode="Ñ" horiz-adv-x="1675" d="M156 0v1427h506q248-420 471-849v849h387v-1427h-486q-225 414-497 874v-874h-381zm272 1647q93 161 234 161 69 0 126.5-20t101-39.5 79.5-19.5q34 0 53.5 19t40.5 77l170-137q-31-81-100.5-138t-165.5-57q-58 0-110 21t-97 42-86 21q-29 0-49-18t-41-66z"/><glyph unicode="Ò" horiz-adv-x="1599" d="M90 733q0 143 20 254.5t62 191.5 99.5 135 139.5 87.5 176 46.5 214 14 213-14 175-46.5 139.5-87.5 99-135 61.5-191.5 20-254.5q0-175-30-305t-86-217.5-144.5-141-196.5-76-251-22.5q-144 0-252.5 22.5t-197 76-145 141-86.5 217.5-30 305zm318 1061h372l254-264h-307zm100-1065q0-98 3-156t15-107.5 29-72.5 53.5-39.5 78.5-20 114-3.5q53 0 88 2t68 10 51.5 18.5 35.5 33.5 25 49 14 71 7.5 93.5 1.5 121.5q0 69-1.5 114.5t-7.5 87.5-13.5 66-25 45.5-36 31-52 16.5-67.5 8.5-88 1.5q-73 0-114-3t-78.5-18-53.5-35.5-29-67-15.5-101-2.5-146.5z"/><glyph unicode="Ó" horiz-adv-x="1599" d="M90 733q0-175 30-305t86.5-217.5 145-141 197-76 252.5-22.5q143 0 251 22.5t196.5 76 144.5 141 86 217.5 30 305q0 143-20 254.5t-61.5 191.5-99 135-139.5 87.5-175 46.5-213 14-214-14-176-46.5-139.5-87.5-99.5-135-62-191.5-20-254.5zm402 797l253 264h373l-319-264h-307zm16-801q0 92 2.5 146.5t15.5 101 29 67 53.5 35.5 78.5 18 114 3q54 0 88-1.5t67.5-8.5 52-16.5 36-31 25-45.5 13.5-66 7.5-87.5 1.5-114.5q0-73-1.5-121.5t-7.5-93.5-14-71-25-49-35.5-33.5-51.5-18.5-68-10-88-2q-72 0-114 3.5t-78.5 20-53.5 39.5-29 72.5-15 107.5-3 156z"/><glyph unicode="Ô" horiz-adv-x="1599" d="M90 733q0-175 30-305t86.5-217.5 145-141 197-76 252.5-22.5q143 0 251 22.5t196.5 76 144.5 141 86 217.5 30 305q0 143-20 254.5t-61.5 191.5-99 135-139.5 87.5-175 46.5-213 14-214-14-176-46.5-139.5-87.5-99.5-135-62-191.5-20-254.5zm279 797l249 264h353l258-264h-311l-125 135-121-135h-303zm139-801q0 92 2.5 146.5t15.5 101 29 67 53.5 35.5 78.5 18 114 3q54 0 88-1.5t67.5-8.5 52-16.5 36-31 25-45.5 13.5-66 7.5-87.5 1.5-114.5q0-73-1.5-121.5t-7.5-93.5-14-71-25-49-35.5-33.5-51.5-18.5-68-10-88-2q-72 0-114 3.5t-78.5 20-53.5 39.5-29 72.5-15 107.5-3 156z"/><glyph unicode="Õ" horiz-adv-x="1599" d="M90 733q0-175 30-305t86.5-217.5 145-141 197-76 252.5-22.5q143 0 251 22.5t196.5 76 144.5 141 86 217.5 30 305q0 143-20 254.5t-61.5 191.5-99 135-139.5 87.5-175 46.5-213 14-214-14-176-46.5-139.5-87.5-99.5-135-62-191.5-20-254.5zm307 914q93 161 234 161 69 0 126.5-20t101-39.5 79.5-19.5q34 0 53.5 19t40.5 77l170-137q-31-81-100.5-138t-165.5-57q-58 0-110 21t-97 42-86 21q-29 0-49-18t-41-66zm111-918q0 92 2.5 146.5t15.5 101 29 67 53.5 35.5 78.5 18 114 3q54 0 88-1.5t67.5-8.5 52-16.5 36-31 25-45.5 13.5-66 7.5-87.5 1.5-114.5q0-73-1.5-121.5t-7.5-93.5-14-71-25-49-35.5-33.5-51.5-18.5-68-10-88-2q-72 0-114 3.5t-78.5 20-53.5 39.5-29 72.5-15 107.5-3 156z"/><glyph unicode="Ö" horiz-adv-x="1599" d="M90 733q0-175 30-305t86.5-217.5 145-141 197-76 252.5-22.5q143 0 251 22.5t196.5 76 144.5 141 86 217.5 30 305q0 143-20 254.5t-61.5 191.5-99 135-139.5 87.5-175 46.5-213 14-214-14-176-46.5-139.5-87.5-99.5-135-62-191.5-20-254.5zm303 924q0 92 32.5 119.5t125.5 27.5q95 0 127.5-27.5t32.5-119.5q0-101-33-132.5t-127-31.5q-92 0-125 31.5t-33 132.5zm115-928q0 92 2.5 146.5t15.5 101 29 67 53.5 35.5 78.5 18 114 3q54 0 88-1.5t67.5-8.5 52-16.5 36-31 25-45.5 13.5-66 7.5-87.5 1.5-114.5q0-73-1.5-121.5t-7.5-93.5-14-71-25-49-35.5-33.5-51.5-18.5-68-10-88-2q-72 0-114 3.5t-78.5 20-53.5 39.5-29 72.5-15 107.5-3 156zm371 928q0 93 32 120t127 27q93 0 125.5-27.5t32.5-119.5q0-101-33-132.5t-125-31.5q-95 0-127 31t-32 133z"/><glyph unicode="×" horiz-adv-x="1112" d="M70 979l256 256 229-231 229 231 256-256-231-229 229-230-254-254-229 230-229-230-254 254 229 230z"/><glyph unicode="Ø" horiz-adv-x="1599" d="M-23 0l211 240q-98 174-98 493 0 143 20 254.5t62 191.5 99.5 135 139.5 87.5 176 46.5 214 14q256 0 405-69l31 34h395l-211-237q88-171 88-457 0-175-30-305t-86-217.5-144.5-141-196.5-76-251-22.5q-243 0-393 68l-35-39h-396zm531 729q0-90 2-127l432 490q-49 8-141 8-73 0-114-3t-78.5-18-53.5-35.5-29-67-15.5-101-2.5-146.5zm162-393q52-6 131-6 53 0 88 2t68 10 51.5 18.5 35.5 33.5 25 49 14 71 7.5 93.5 1.5 121.5q0 59-2 84z"/><glyph unicode="Ù" horiz-adv-x="1529" d="M141 369v1058h394v-972q0-61 50-89t179-28 180 28 51 89v972h394v-1058q0-93-30-162.5t-82-114-132.5-72-172-38.5-208.5-11q-118 0-209.5 11t-171 38.5-131.5 72-81.5 114-29.5 162.5zm252 1425h373l254-264h-307z"/><glyph unicode="Ú" horiz-adv-x="1529" d="M141 369q0-93 29.5-162.5t81.5-114 131.5-72 171-38.5 209.5-11q117 0 208.5 11t172 38.5 132.5 72 82 114 30 162.5v1058h-394v-972q0-61-51-89t-180-28-179 28-50 89v972h-394v-1058zm367 1161l254 264h373l-320-264h-307z"/><glyph unicode="Û" horiz-adv-x="1529" d="M141 369q0-93 29.5-162.5t81.5-114 131.5-72 171-38.5 209.5-11q117 0 208.5 11t172 38.5 132.5 72 82 114 30 162.5v1058h-394v-972q0-61-51-89t-180-28-179 28-50 89v972h-394v-1058zm187 1161l250 264h352l258-264h-311l-125 135-121-135h-303z"/><glyph unicode="Ü" horiz-adv-x="1529" d="M141 369q0-93 29.5-162.5t81.5-114 131.5-72 171-38.5 209.5-11q117 0 208.5 11t172 38.5 132.5 72 82 114 30 162.5v1058h-394v-972q0-61-51-89t-180-28-179 28-50 89v972h-394v-1058zm217 1288q0 92 32.5 119.5t125.5 27.5q95 0 127.5-27.5t32.5-119.5q0-101-33-132.5t-127-31.5q-92 0-125 31.5t-33 132.5zm486 0q0 92 32 119.5t128 27.5q93 0 125-27.5t32-119.5q0-101-32.5-132.5t-124.5-31.5q-95 0-127.5 31t-32.5 133z"/><glyph unicode="Ý" horiz-adv-x="1370" d="M-145 1427h520q156-206 338-464 237 345 303 464h485q-214-340-596-880v-547h-391v545q-476 662-659 882zm620 103l254 264h373l-320-264h-307z"/><glyph unicode="Þ" horiz-adv-x="1425" d="M156 0v1427h391v-182h459q387 0 387-514 0-138-42.5-248t-131.5-177.5-213-67.5h-459v-238h-391zm391 555h307q111 0 111 176 0 98-27.5 139t-81.5 41h-309v-356z"/><glyph unicode="ß" horiz-adv-x="1417" d="M129 0v1061q0 93 25 162.5t71 115 118 73 158 39 199 11.5q337 0 471-82.5t134-296.5q0-83-12.5-138.5t-46-100-95-68.5-156.5-31q100-4 166-28.5t103.5-72.5 52-110.5 14.5-154.5q0-226-132.5-317t-455.5-91q-83 0-178 9l45 317q90-8 156-8 94 0 126 29.5t32 107.5q0 90-36.5 124t-117.5 34h-111v299h101q88 0 119.5 33.5t31.5 97.5q0 73-42.5 97t-170.5 24q-194 0-194-146v-989h-375z"/><glyph unicode="à" horiz-adv-x="1183" d="M86 319q0 87 19 149t51 99.5 86 58.5 112.5 28.5 141.5 7.5q94 0 219-25 0 46-6 70.5t-28.5 44-64.5 26-116 6.5q-150 0-334-51l-53 293q233 57 485 57 246 0 358.5-92t112.5-317v-621q-110-38-255-60t-269-22q-140 0-225 15t-139.5 56-74.5 105.5-20 171.5zm86 1108h373l254-264h-307zm297-1097q0-56 19.5-72t86.5-16q79 0 140 22v142q-46 10-133 10-66 0-89.5-16t-23.5-70z"/><glyph unicode="á" horiz-adv-x="1183" d="M86 319q0-107 20-171.5t74.5-105.5 139.5-56 225-15q124 0 269 22t255 60v621q0 225-112.5 317t-358.5 92q-252 0-485-57l53-293q184 51 334 51 74 0 116-6.5t64.5-26 28.5-44 6-70.5q-125 25-219 25-83 0-141.5-7.5t-112.5-28.5-86-58.5-51-99.5-19-149zm283 844l254 264h372l-319-264h-307zm100-833q0 54 23.5 70t89.5 16q87 0 133-10v-142q-61-22-140-22-67 0-86.5 16t-19.5 72z"/><glyph unicode="â" horiz-adv-x="1183" d="M86 319q0-107 20-171.5t74.5-105.5 139.5-56 225-15q124 0 269 22t255 60v621q0 225-112.5 317t-358.5 92q-252 0-485-57l53-293q184 51 334 51 74 0 116-6.5t64.5-26 28.5-44 6-70.5q-125 25-219 25-83 0-141.5-7.5t-112.5-28.5-86-58.5-51-99.5-19-149zm76 844l250 264h352l258-264h-311l-125 135-121-135h-303zm307-833q0 54 23.5 70t89.5 16q87 0 133-10v-142q-61-22-140-22-67 0-86.5 16t-19.5 72z"/><glyph unicode="ã" horiz-adv-x="1183" d="M86 319q0-107 20-171.5t74.5-105.5 139.5-56 225-15q124 0 269 22t255 60v621q0 225-112.5 317t-358.5 92q-252 0-485-57l53-293q184 51 334 51 74 0 116-6.5t64.5-26 28.5-44 6-70.5q-125 25-219 25-83 0-141.5-7.5t-112.5-28.5-86-58.5-51-99.5-19-149zm80 967q94 162 233 162 69 0 126.5-20t101.5-40 80-20q34 0 53.5 19t40.5 77l170-137q-31-81-100.5-137.5t-165.5-56.5q-58 0-110 21t-97 42-86 21q-29 0-49-18t-41-66zm303-956q0 54 23.5 70t89.5 16q87 0 133-10v-142q-61-22-140-22-67 0-86.5 16t-19.5 72z"/><glyph unicode="ä" horiz-adv-x="1183" d="M86 319q0-107 20-171.5t74.5-105.5 139.5-56 225-15q124 0 269 22t255 60v621q0 225-112.5 317t-358.5 92q-252 0-485-57l53-293q184 51 334 51 74 0 116-6.5t64.5-26 28.5-44 6-70.5q-125 25-219 25-83 0-141.5-7.5t-112.5-28.5-86-58.5-51-99.5-19-149zm88 979q0 92 32.5 120t125.5 28q94 0 127-28t33-120q0-101-33-132t-127-31q-93 0-125.5 31t-32.5 132zm295-968q0 54 23.5 70t89.5 16q87 0 133-10v-142q-61-22-140-22-67 0-86.5 16t-19.5 72zm190 968q0 93 32.5 120.5t127.5 27.5q93 0 125.5-28t32.5-120q0-101-32.5-132t-125.5-31q-95 0-127.5 31t-32.5 132z"/><glyph unicode="å" horiz-adv-x="1183" d="M86 319q0 87 19 149t51 99.5 86 58.5 112.5 28.5 141.5 7.5q94 0 219-25 0 46-6 70.5t-28.5 44-64.5 26-116 6.5q-150 0-334-51l-53 293q233 57 485 57 246 0 358.5-92t112.5-317v-621q-110-38-255-60t-269-22q-140 0-225 15t-139.5 56-74.5 105.5-20 171.5zm229 996q0 120 61.5 164.5t205.5 44.5q142 0 202-44t60-165q0-122-60-165.5t-202-43.5q-144 0-205.5 44t-61.5 165zm154-985q0-56 19.5-72t86.5-16q79 0 140 22v142q-46 10-133 10-66 0-89.5-16t-23.5-70zm25 983q0-42 16-56t72-14q54 0 70 14.5t16 55.5q0 43-16 57t-70 14q-55 0-71.5-14.5t-16.5-56.5z"/><glyph unicode="æ" horiz-adv-x="1757" d="M86 319q0 87 19 149t51 99.5 86 58.5 112.5 28.5 141.5 7.5q94 0 219-25 0 37-4 57.5t-15.5 38.5-36 26.5-62 12.5-97.5 4q-179 0-334-43l-53 293q233 57 485 57 203 0 313-67 105 67 287 67 57 0 103.5-3.5t92-12 79.5-22.5 66.5-35 54.5-50 42.5-67.5 30.5-87 18.5-108 6-131.5-5.5-158h-609q3-78 47.5-103.5t145.5-25.5q60 0 148 8t141 20l53-278q-78-26-186-42t-205-16q-157 0-265 54-214-54-411-54-140 0-225 15t-139.5 56-74.5 105.5-20 171.5zm387 11q0-56 20-72t87-16q32 0 81.5 9t73.5 17q-24 74-24 138-46 10-125 10-66 0-89.5-16t-23.5-70zm606 346h291q-1 79-32 105t-109 26q-75 0-105.5-28t-44.5-103z"/><glyph unicode="ç" horiz-adv-x="970" d="M82 532q0 156 38.5 266t112 171 165.5 87.5 214 26.5q212 0 342-45l-73-311q-141 41-232 41-36 0-58-2t-46.5-10-38.5-24-26.5-42.5-17.5-67-5-96.5q0-79 11.5-127.5t38.5-72 58-30.5 84-7q108 0 232 45l73-311q-62-24-158.5-38t-183.5-14q-97 0-175 16.5t-145.5 56.5-113 103.5-71 160.5-25.5 224zm285-925l53 135q28-14 110-14 54 0 54 39 0 29-32 37.5t-108 2.5l74 193h133v-74q205 0 205-166 0-99-67.5-137.5t-237.5-38.5q-103 0-184 23z"/><glyph unicode="è" horiz-adv-x="1144" d="M82 532q0 156 36 265.5t105 171 157 88 206 26.5q117 0 196-15.5t144-57.5 99-118 47-194.5 1-289.5h-608q3-78 47-103.5t145-25.5q60 0 148 8t141 20l53-278q-78-26-186-42t-205-16q-526 0-526 561zm119 895h372l254-264h-307zm266-751h291q-1 79-32.5 105t-109.5 26q-75 0-105-28t-44-103z"/><glyph unicode="é" horiz-adv-x="1144" d="M82 532q0-561 526-561 97 0 205 16t186 42l-53 278q-53-12-141-20t-148-8q-101 0-145 25.5t-47 103.5h608q12 171-1 289.5t-47 194.5-99 118-144 57.5-196 15.5q-118 0-206-26.5t-157-88-105-171-36-265.5zm311 631l254 264h373l-320-264h-307zm74-487q14 75 44 103t105 28q78 0 109.5-26t32.5-105h-291z"/><glyph unicode="ê" horiz-adv-x="1144" d="M82 532q0-561 526-561 97 0 205 16t186 42l-53 278q-53-12-141-20t-148-8q-101 0-145 25.5t-47 103.5h608q12 171-1 289.5t-47 194.5-99 118-144 57.5-196 15.5q-118 0-206-26.5t-157-88-105-171-36-265.5zm102 631l250 264h352l258-264h-311l-125 135-121-135h-303zm283-487q14 75 44 103t105 28q78 0 109.5-26t32.5-105h-291z"/><glyph unicode="ë" horiz-adv-x="1144" d="M82 532q0-561 526-561 97 0 205 16t186 42l-53 278q-53-12-141-20t-148-8q-101 0-145 25.5t-47 103.5h608q12 171-1 289.5t-47 194.5-99 118-144 57.5-196 15.5q-118 0-206-26.5t-157-88-105-171-36-265.5zm127 766q0 92 32.5 120t125.5 28q94 0 126.5-28t32.5-120q0-101-32.5-132t-126.5-31q-93 0-125.5 31t-32.5 132zm258-622q14 75 44 103t105 28q78 0 109.5-26t32.5-105h-291zm227 622q0 93 32.5 120.5t127.5 27.5q93 0 125.5-28t32.5-120q0-101-32.5-132t-125.5-31q-95 0-127.5 31t-32.5 132z"/><glyph unicode="ì" horiz-adv-x="628" d="M-80 1427h373l254-264h-307zm209-1427v1053h375v-1053h-375z"/><glyph unicode="í" horiz-adv-x="628" d="M74 1163l254 264h372l-319-264h-307zm55-1163v1053h375v-1053h-375z"/><glyph unicode="î" horiz-adv-x="628" d="M-113 1163l250 264h352l259-264h-312l-125 135-121-135h-303zm242-1163v1053h375v-1053h-375z"/><glyph unicode="ï" horiz-adv-x="628" d="M-82 1298q0 92 32.5 120t125.5 28q94 0 127-28t33-120q0-101-33-132t-127-31q-93 0-125.5 31t-32.5 132zm211-1298v1053h375v-1053h-375zm274 1298q0 93 32.5 120.5t127.5 27.5q93 0 125.5-28t32.5-120q0-101-32.5-132t-125.5-31q-95 0-127.5 31t-32.5 132z"/><glyph unicode="ð" d="M90 457q0 127 25 209t87 137.5 163.5 78.5 259.5 23h77q-49 88-79 131l-129-73-134 167 138 78q-26 33-55.5 68.5t-70 82-59.5 68.5h469q5-6 16.5-18t16.5-18l96 55 133-166-92-53q132-178 199.5-366t67.5-406q0-96-9.5-164.5t-34-126-64.5-93.5-104.5-60.5-150.5-35-205-10.5q-166 0-270 22.5t-171 80.5-93.5 150-26.5 239zm406-8q0-77 29-100t126-23 123.5 30 26.5 131q0 57-4 86-41 2-115 2-66 0-100-4t-55-19-26-37-5-66z"/><glyph unicode="ñ" horiz-adv-x="1253" d="M129 0v985q294 98 569 98 224 0 332.5-115.5t108.5-387.5v-580h-375v555q0 115-28 156t-120 41q-31 0-112-15v-737h-375zm98 1286q94 162 234 162 55 0 103.5-12.5t76.5-27.5 62.5-27.5 64.5-12.5q34 0 53.5 19t40.5 77l170-137q-31-81-100.5-137.5t-165.5-56.5q-58 0-110 21t-97 42-86 21q-29 0-49-18t-41-66z"/><glyph unicode="ò" horiz-adv-x="1212" d="M82 532q0 159 33 267t101.5 170 161.5 88 226 26q135 0 229-26t163-88 101.5-170 32.5-267q0-160-32.5-269.5t-101-173.5-163-91-229.5-27q-134 0-227.5 27t-161.5 91-100.5 173.5-32.5 269.5zm129 895h373l254-264h-308zm246-901q0-62 2.5-103.5t10-72.5 17-48 27.5-27.5 38-13.5 52-3q39 0 62 5t42 20 28 45.5 13.5 77 4.5 120.5q0 95-6 147.5t-25 81-44.5 35.5-74.5 7q-64 0-92-16.5t-41.5-73-13.5-181.5z"/><glyph unicode="ó" horiz-adv-x="1212" d="M82 532q0-160 32.5-269.5t100.5-173.5 161.5-91 227.5-27q135 0 229.5 27t163 91 101 173.5 32.5 269.5q0 159-32.5 267t-101.5 170-163 88-229 26q-133 0-226-26t-161.5-88-101.5-170-33-267zm285 631l254 264h372l-319-264h-307zm90-637q0 125 13.5 181.5t41.5 73 92 16.5q49 0 74.5-7t44.5-35.5 25-81 6-147.5q0-74-4.5-120.5t-13.5-77-28-45.5-42-20-62-5q-32 0-52 3t-38 13.5-27.5 27.5-17 48-10 72.5-2.5 103.5z"/><glyph unicode="ô" horiz-adv-x="1212" d="M82 532q0-160 32.5-269.5t100.5-173.5 161.5-91 227.5-27q135 0 229.5 27t163 91 101 173.5 32.5 269.5q0 159-32.5 267t-101.5 170-163 88-229 26q-133 0-226-26t-161.5-88-101.5-170-33-267zm88 631l250 264h352l258-264h-311l-125 135-121-135h-303zm287-637q0 125 13.5 181.5t41.5 73 92 16.5q49 0 74.5-7t44.5-35.5 25-81 6-147.5q0-74-4.5-120.5t-13.5-77-28-45.5-42-20-62-5q-32 0-52 3t-38 13.5-27.5 27.5-17 48-10 72.5-2.5 103.5z"/><glyph unicode="õ" horiz-adv-x="1212" d="M82 532q0-160 32.5-269.5t100.5-173.5 161.5-91 227.5-27q135 0 229.5 27t163 91 101 173.5 32.5 269.5q0 159-32.5 267t-101.5 170-163 88-229 26q-133 0-226-26t-161.5-88-101.5-170-33-267zm119 754q94 162 233 162 55 0 103.5-12.5t76.5-27.5 62.5-27.5 64.5-12.5q34 0 54 19.5t41 76.5l170-137q-31-81-101-137.5t-166-56.5q-58 0-110 21t-97 42-86 21q-29 0-49-18t-41-66zm256-760q0 125 13.5 181.5t41.5 73 92 16.5q49 0 74.5-7t44.5-35.5 25-81 6-147.5q0-74-4.5-120.5t-13.5-77-28-45.5-42-20-62-5q-32 0-52 3t-38 13.5-27.5 27.5-17 48-10 72.5-2.5 103.5z"/><glyph unicode="ö" horiz-adv-x="1212" d="M82 532q0-160 32.5-269.5t100.5-173.5 161.5-91 227.5-27q135 0 229.5 27t163 91 101 173.5 32.5 269.5q0 159-32.5 267t-101.5 170-163 88-229 26q-133 0-226-26t-161.5-88-101.5-170-33-267zm121 766q0 92 32 120t125 28q94 0 127-28t33-120q0-101-33-132t-127-31q-92 0-124.5 31t-32.5 132zm254-772q0 125 13.5 181.5t41.5 73 92 16.5q49 0 74.5-7t44.5-35.5 25-81 6-147.5q0-74-4.5-120.5t-13.5-77-28-45.5-42-20-62-5q-32 0-52 3t-38 13.5-27.5 27.5-17 48-10 72.5-2.5 103.5zm231 772q0 93 32.5 120.5t127.5 27.5q93 0 125.5-28t32.5-120q0-101-32.5-132t-125.5-31q-95 0-127.5 31t-32.5 132z"/><glyph unicode="÷" horiz-adv-x="1112" d="M51 569v361h1010v-361h-1010zm281-264q0 61 10 98t37 57.5 64.5 27 101.5 6.5q128 0 172.5-35.5t44.5-153.5q0-67-10-107t-37.5-62.5-66-30-103.5-7.5q-125 0-169 39.5t-44 167.5zm0 903q0 62 10 99t37 57 64 26.5 102 6.5q66 0 104-6.5t65.5-26.5 37.5-57 10-99q0-127-44.5-165.5t-172.5-38.5q-64 0-101.5 7.5t-64.5 29.5-37 61.5-10 105.5z"/><glyph unicode="ø" horiz-adv-x="1212" d="M-23 0l166 186q-61 125-61 346 0 159 33 267t101.5 170 161.5 88 226 26q189 0 297-51l19 21h319l-168-189q59-124 59-332 0-160-32.5-269.5t-101-173.5-163-91-229.5-27q-173 0-289 49l-18-20h-320zm480 535l225 251q-28 11-78 11-49 0-73.5-7t-43.5-34.5-24.5-78-5.5-142.5zm75-271q18-6 72-6 62 0 91 16.5t43.5 69.5 15.5 166z"/><glyph unicode="ù" horiz-adv-x="1253" d="M117 473v580h372v-555q0-115 28-156t120-41q36 0 115 14v738h372v-985q-297-99-569-99-223 0-330.5 115.5t-107.5 388.5zm102 954h373l254-264h-307z"/><glyph unicode="ú" horiz-adv-x="1253" d="M117 473q0-273 107.5-388.5t330.5-115.5q272 0 569 99v985h-372v-738q-79-14-115-14-92 0-120 41t-28 156v555h-372v-580zm278 690l254 264h373l-320-264h-307z"/><glyph unicode="û" horiz-adv-x="1253" d="M117 473q0-273 107.5-388.5t330.5-115.5q272 0 569 99v985h-372v-738q-79-14-115-14-92 0-120 41t-28 156v555h-372v-580zm80 690l249 264h353l258-264h-312l-124 135-121-135h-303z"/><glyph unicode="ü" horiz-adv-x="1253" d="M117 473q0-273 107.5-388.5t330.5-115.5q272 0 569 99v985h-372v-738q-79-14-115-14-92 0-120 41t-28 156v555h-372v-580zm98 825q0 92 32.5 120t125.5 28q94 0 126.5-28t32.5-120q0-101-32.5-132t-126.5-31q-93 0-125.5 31t-32.5 132zm485 0q0 93 32.5 120.5t127.5 27.5q93 0 125.5-28t32.5-120q0-101-32.5-132t-125.5-31q-95 0-127.5 31t-32.5 132z"/><glyph unicode="ý" horiz-adv-x="1050" d="M-49 1053h377q103-285 198-668 124 376 191 668h368q-101-359-242.5-738.5t-297.5-707.5h-410q83 142 172 340-122 448-356 1106zm381 110l254 264h372l-319-264h-307z"/><glyph unicode="þ" horiz-adv-x="1236" d="M129-393v1820h375v-348q78 4 119 4 143 0 239.5-27t163.5-91.5 97-172 30-268.5q0-154-34-264.5t-95.5-172-137-89-169.5-27.5-213 35v-399h-375zm375 723q0-22 35-39t88-17q87 0 120 52.5t33 189.5q0 111-15.5 166t-47 73.5-94.5 18.5q-74 0-119-18v-426z"/><glyph unicode="ÿ" horiz-adv-x="1050" d="M-49 1053h377q103-285 198-668 124 376 191 668h368q-101-359-242.5-738.5t-297.5-707.5h-410q83 142 172 340-122 448-356 1106zm188 245q0 92 32.5 120t125.5 28q94 0 127-28t33-120q0-101-33-132t-127-31q-93 0-125.5 31t-32.5 132zm486 0q0 93 32 120.5t127 27.5q93 0 125.5-28t32.5-120q0-101-32.5-132t-125.5-31q-95 0-127 30.5t-32 132.5z"/><glyph unicode="Œ" horiz-adv-x="2226" d="M90 733q0 143 20 254.5t62 191.5 99.5 135 139.5 87.5 176 46.5 214 14q185 0 311-35h1071v-344h-719q26-86 37-180h383v-338h-383q-11-113-45-221h727v-344h-1104q-119-29-278-29-144 0-252.5 22.5t-197 76-145 141-86.5 217.5-30 305zm418-4q0-98 3-156t15-107.5 29-72.5 53.5-39.5 78.5-20 114-3.5q53 0 88 2t68 10 51.5 18.5 35.5 33.5 25 49 14 71 7.5 93.5 1.5 121.5q0 69-1.5 114.5t-7.5 87.5-13.5 66-25 45.5-36 31-52 16.5-67.5 8.5-88 1.5q-73 0-114-3t-78.5-18-53.5-35.5-29-67-15.5-101-2.5-146.5z"/><glyph unicode="œ" horiz-adv-x="1808" d="M82 532q0 159 33 267t101.5 170 161.5 88 226 26q230 0 338-82 106 82 307 82 57 0 103.5-3.5t92-12 79.5-22.5 66.5-35 54.5-50 42.5-67.5 30.5-87 18.5-108 6-131.5-5.5-158h-609q3-78 47.5-103.5t145.5-25.5q60 0 148 8t141 20l53-278q-78-26-186-42t-205-16q-208 0-322 92-109-92-346-92-134 0-227.5 27t-161.5 91-100.5 173.5-32.5 269.5zm375-6q0-62 2.5-103.5t10-72.5 17-48 27.5-27.5 38-13.5 52-3q39 0 62 5t42 20 28 45.5 13.5 77 4.5 120.5q0 95-6 147.5t-25 81-44.5 35.5-74.5 7q-64 0-92-16.5t-41.5-73-13.5-181.5zm673 150h291q-1 79-32 105t-109 26q-75 0-105.5-28t-44.5-103z"/><glyph unicode="Ÿ" horiz-adv-x="1370" d="M-145 1427h520q156-206 338-464 237 345 303 464h485q-214-340-596-880v-547h-391v545q-476 662-659 882zm454 230q0 92 32.5 119.5t125.5 27.5q95 0 127.5-27.5t32.5-119.5q0-101-33-132.5t-127-31.5q-92 0-125 31.5t-33 132.5zm486 0q0 93 32 120t127 27q93 0 125.5-27.5t32.5-119.5q0-101-33-132.5t-125-31.5q-95 0-127 31t-32 133z"/><glyph unicode="ˆ" horiz-adv-x="1312" d="M258 1163l250 264h352l258-264h-311l-125 135-121-135h-303z"/><glyph unicode="˜" horiz-adv-x="1439" d="M289 1286q94 162 233 162 55 0 103.5-12.5t76.5-27.5 62.5-27.5 64.5-12.5q34 0 54 19.5t41 76.5l170-137q-31-81-101-137.5t-166-56.5q-58 0-110 21t-96.5 42-85.5 21q-29 0-49.5-18t-41.5-66z"/><glyph horiz-adv-x="930"/><glyph horiz-adv-x="1860"/><glyph horiz-adv-x="930"/><glyph horiz-adv-x="1860"/><glyph horiz-adv-x="620"/><glyph horiz-adv-x="465"/><glyph horiz-adv-x="310"/><glyph horiz-adv-x="310"/><glyph horiz-adv-x="232"/><glyph horiz-adv-x="372"/><glyph horiz-adv-x="103"/><glyph unicode="‐" horiz-adv-x="677" d="M51 410v360h576v-360h-576z"/><glyph unicode="‑" horiz-adv-x="677" d="M51 410v360h576v-360h-576z"/><glyph unicode="‒" horiz-adv-x="677" d="M51 410v360h576v-360h-576z"/><glyph unicode="–" horiz-adv-x="1255" d="M92 410v360h1071v-360h-1071z"/><glyph unicode="—" horiz-adv-x="1828" d="M92 410v360h1645v-360h-1645z"/><glyph unicode="‘" horiz-adv-x="604" d="M49 1034l223 547h287l-160-547h-350z"/><glyph unicode="’" horiz-adv-x="604" d="M47 1014l160 547h350l-223-547h-287z"/><glyph unicode="‚" horiz-adv-x="563" d="M27-326l159 547h351l-224-547h-286z"/><glyph unicode="“" horiz-adv-x="1071" d="M49 1034l223 547h287l-160-547h-350zm463 0l223 547h287l-160-547h-350z"/><glyph unicode="”" horiz-adv-x="1071" d="M49 1018l160 547h350l-223-547h-287zm463 0l160 547h350l-223-547h-287z"/><glyph unicode="„" horiz-adv-x="1071" d="M49-346l160 547h350l-223-547h-287zm463 0l160 547h350l-223-547h-287z"/><glyph unicode="•" horiz-adv-x="1212" d="M82 676q0 159 33 267t101.5 170 161.5 88 226 26q135 0 229-26t163-88 101.5-170 32.5-267q0-160-32.5-269.5t-101-173.5-163-91-229.5-27q-134 0-227.5 27t-161.5 91-100.5 173.5-32.5 269.5z"/><glyph unicode="…" horiz-adv-x="2193" d="M164 188q0 61 10 98t37 57.5 64.5 27 101.5 6.5q128 0 172.5-35.5t44.5-153.5q0-67-10-106.5t-37.5-62-65.5-30-104-7.5q-64 0-101.5 7.5t-64.5 30-37 62-10 106.5zm715 0q0 61 10 98t37 57.5 64.5 27 101.5 6.5q128 0 172.5-35.5t44.5-153.5q0-67-10-106.5t-37.5-62-65.5-30-104-7.5q-64 0-101.5 7.5t-64.5 30-37 62-10 106.5zm720 0q0 61 10 98t37 57.5 64.5 27 101.5 6.5q128 0 173-35.5t45-153.5q0-53-7.5-89t-21.5-59.5-41.5-36-61.5-17-86-4.5q-64 0-101.5 7.5t-64.5 30-37 62-10 106.5z"/><glyph horiz-adv-x="372"/><glyph unicode="‹" horiz-adv-x="851" d="M41 666l557 596 213-211-279-381 279-387-211-215z"/><glyph unicode="›" horiz-adv-x="851" d="M41 281l278 381-278 387 211 215 559-598-557-596z"/><glyph horiz-adv-x="465"/><glyph unicode="€" horiz-adv-x="1193" d="M90 727q0 174 27.5 300.5t79.5 210.5 137 133.5 190 70 250 20.5q102 0 220.5-13.5t199.5-35.5l-70-344q-110 35-258 35-134 0-205-20t-108-83h381v-227h-426v-102h426v-228h-381q36-67 106.5-88.5t206.5-21.5q148 0 258 35l70-353q-185-45-420-45-180 0-303.5 36.5t-211 123-128.5 233-41 363.5z"/><glyph unicode="™" horiz-adv-x="1886" d="M0 1204v223h745v-223h-247v-532h-250v532h-248zm821-532v755h305l187-393 176 393h295v-755h-242v401l-168-344h-157l-154 344v-401h-242z"/><glyph unicode="◼" horiz-adv-x="1054" d="M0 0v1055h1055v-1055h-1055z"/></font>
</defs>
</svg>
